<svg width="172" height="103" viewBox="0 0 172 103" fill="none" xmlns="http://www.w3.org/2000/svg">
<path d="M10.8111 1.98878L9.95908 2.82878C9.62308 2.51678 8.95108 2.02478 8.47108 1.70078L9.29908 0.956781C9.79108 1.24478 10.4631 1.68878 10.8111 1.98878ZM2.86708 7.19678L4.75108 6.88478C4.70308 7.24478 4.69108 7.78478 4.71508 8.07278C1.78708 8.63678 1.30708 8.78078 0.995078 8.96078C0.923078 8.69678 0.707078 8.06078 0.551078 7.71278C0.863078 7.64078 1.13908 7.37678 1.51108 6.94478C1.70308 6.75278 2.05108 6.30878 2.45908 5.75678C1.39108 5.87678 1.10308 5.94878 0.911078 6.04478C0.839078 5.78078 0.611078 5.10878 0.455078 4.73678C0.707078 4.66478 0.911078 4.41278 1.17508 4.02878C1.43908 3.68078 2.25508 2.22878 2.68708 0.860781L4.01908 1.50878C3.56308 2.56478 2.90308 3.68078 2.24308 4.60478L3.25108 4.52078C3.50308 4.11278 3.74308 3.69278 3.94708 3.26078L5.09908 3.99278C4.46308 5.12078 3.68308 6.23678 2.86708 7.19678ZM4.66708 8.92478L4.88308 10.0888C3.51508 10.5688 2.05108 11.0968 0.887078 11.4808L0.599078 10.1368C1.60708 9.87278 3.16708 9.38078 4.66708 8.92478ZM10.3191 6.78878L11.5191 7.32878C10.9551 8.21678 10.2351 9.00878 9.40708 9.66878C9.67108 10.2808 9.95908 10.6528 10.2591 10.6528C10.4871 10.6528 10.5951 10.3408 10.6551 9.38078C10.9311 9.71678 11.3511 10.0288 11.6511 10.1728C11.4231 11.6488 11.0511 12.0328 10.1031 12.0328C9.32308 12.0328 8.73508 11.4448 8.25508 10.4848C7.36708 11.0488 6.39508 11.4928 5.36308 11.8648C5.19508 11.5048 4.83508 11.0248 4.49908 10.6888C5.66308 10.3408 6.79108 9.86078 7.77508 9.23678C7.59508 8.57678 7.42708 7.84478 7.29508 7.05278L5.15908 7.43678L4.93108 6.17678L7.12708 5.76878C7.07908 5.39678 7.04308 5.01278 7.00708 4.62878L5.41108 4.88078L5.17108 3.59678L6.92308 3.33278C6.87508 2.49278 6.85108 1.64078 6.85108 0.800781H8.26708C8.25508 1.58078 8.26708 2.36078 8.30308 3.11678L10.8711 2.73278L11.1111 3.96878L8.38708 4.40078C8.42308 4.78478 8.45908 5.15678 8.49508 5.51678L11.1951 5.03678L11.4231 6.27278L8.67508 6.78878C8.77108 7.34078 8.86708 7.86878 8.97508 8.33678C9.51508 7.88078 9.97108 7.35278 10.3191 6.78878Z" fill="white"/>
<path d="M18.9351 7.59278H21.9111C21.3591 7.26878 20.8671 6.90878 20.4111 6.50078C19.9551 6.92078 19.4631 7.26878 18.9351 7.59278ZM19.2591 10.3888H21.5151V8.79278H19.2591V10.3888ZM17.2191 6.65678V7.02878C18.0471 6.66878 18.8391 6.15278 19.5111 5.52878C19.2231 5.18078 18.9831 4.82078 18.7671 4.47278C18.5391 4.77278 18.2991 5.04878 18.0591 5.30078C17.8551 5.08478 17.4231 4.70078 17.0991 4.48478V5.25278H15.8991V6.65678H17.2191ZM14.1951 2.50478L14.2071 4.02878H15.7911V2.50478H14.1951ZM21.2271 3.18878H19.5711L19.4751 3.36878C19.7151 3.77678 20.0151 4.19678 20.3511 4.60478C20.6991 4.16078 20.9871 3.69278 21.2271 3.18878ZM22.0791 1.92878L22.9791 2.31278C22.6071 3.57278 22.0431 4.64078 21.3111 5.54078C22.0071 6.09278 22.8351 6.57278 23.7951 6.87278C23.5071 7.14878 23.0991 7.70078 22.9071 8.07278L22.8831 8.06078V11.9848H21.5151V11.6128H19.2591V12.0208H17.9391V8.12078L17.6631 8.24078C17.5671 8.04878 17.3991 7.78478 17.2191 7.55678V7.90478H15.8991V9.50078L17.3151 9.17678L17.4471 10.4368C15.7671 10.8568 13.9431 11.2768 12.5871 11.5888L12.3351 10.2208L12.8751 10.1248V6.09278H14.0391V9.88478L14.6391 9.76478V5.25278H12.9591V1.28078H17.0991V4.25678C17.9751 3.41678 18.6951 2.14478 19.0911 0.836781L20.4471 1.17278C20.3511 1.43678 20.2551 1.71278 20.1471 1.97678H21.8271L22.0791 1.92878Z" fill="white"/>
<path d="M35.3631 3.90878H28.9431C28.6551 4.53278 28.3431 5.14478 27.9711 5.72078H29.9031V4.34078H31.3431V5.72078H34.7871V9.44078C34.7871 10.1008 34.6551 10.4608 34.1751 10.6768C33.7191 10.8808 33.0711 10.8928 32.1711 10.8928C32.1111 10.4968 31.9071 9.95678 31.7271 9.59678C32.2791 9.62078 32.9151 9.62078 33.0831 9.62078C33.2751 9.62078 33.3351 9.57278 33.3351 9.41678V7.07678H31.3431V12.0328H29.9031V7.07678H28.0071V10.9768H26.5791V7.50878C26.1111 8.00078 25.6191 8.43278 25.0551 8.82878C24.8751 8.46878 24.5031 7.89278 24.2511 7.56878C25.5831 6.70478 26.6031 5.37278 27.3471 3.90878H24.6711V2.54078H27.9591C28.1871 1.95278 28.3671 1.37678 28.4991 0.800781L29.9751 1.13678C29.8311 1.60478 29.6751 2.07278 29.5071 2.54078H35.3631V3.90878Z" fill="white"/>
<path d="M43.0191 9.74078V8.66078H40.9431V9.74078H43.0191ZM44.7711 2.60078H39.0951V3.64478H44.7711V2.60078ZM39.0711 5.60078H47.0991C47.0991 5.60078 47.0871 6.00878 47.0751 6.18878C46.9551 9.65678 46.8111 10.9768 46.4511 11.4328C46.1751 11.7808 45.8871 11.9008 45.4911 11.9488C45.1311 12.0088 44.5911 12.0088 44.0151 11.9968C43.9911 11.6608 43.8831 11.2168 43.7151 10.8688H40.9431V11.5888H39.6231V7.53278H44.3511V10.7248C44.5431 10.7248 44.6991 10.7248 44.8071 10.7248C44.9751 10.7368 45.0831 10.7008 45.2031 10.5688C45.4191 10.3288 45.5391 9.32078 45.6231 6.83678H38.9751C38.7951 8.55278 38.3631 10.4008 37.4031 11.7328C37.1751 11.4688 36.5751 10.9768 36.2631 10.8208C37.5951 8.97278 37.7031 6.23678 37.7031 4.35278V1.40078H46.1871V4.84478H39.0951C39.0831 5.08478 39.0831 5.33678 39.0711 5.60078Z" fill="white"/>
<path d="M56.1351 10.3648H57.6951V6.71678C57.4551 6.99278 57.1911 7.37678 57.0591 7.62878C56.0151 7.41278 54.9951 7.05278 54.0711 6.57278C53.7591 6.74078 53.4351 6.88478 53.1111 7.02878C54.0591 7.23278 55.1871 7.58078 55.8591 7.88078L55.2831 8.75678C54.5751 8.43278 53.3031 8.00078 52.2951 7.78478L52.7391 7.17278C52.0911 7.42478 51.4191 7.62878 50.7711 7.78478C50.6751 7.50878 50.4591 7.10078 50.2551 6.81278V10.3648H55.9311C54.7311 9.93278 52.7871 9.50078 51.2031 9.32078L51.8511 8.39678C53.4711 8.56478 55.4991 8.99678 56.7231 9.41678L56.1351 10.3648ZM52.8471 2.57678H50.2551V6.59678C51.1191 6.42878 52.0191 6.17678 52.8351 5.85278C52.5231 5.62478 52.2351 5.39678 51.9831 5.15678C51.7431 5.36078 51.4911 5.54078 51.2511 5.69678C51.0351 5.46878 50.5791 5.04878 50.3151 4.85678C51.2871 4.30478 52.2591 3.46478 52.8471 2.57678ZM55.1991 4.54478H52.8951C53.2071 4.82078 53.5791 5.08478 54.0111 5.30078C54.4671 5.08478 54.8511 4.82078 55.1991 4.54478ZM57.6951 6.53678V2.57678H53.0271L54.0471 2.93678C53.9271 3.11678 53.7951 3.30878 53.6511 3.48878H56.2671L56.4711 3.44078L57.2751 3.92078C56.7951 4.66478 56.0871 5.31278 55.2711 5.87678C56.0271 6.16478 56.8671 6.38078 57.6951 6.53678ZM48.8871 1.29278H59.1351V12.0568H57.6951V11.6248H50.2551V12.0568H48.8871V1.29278Z" fill="white"/>
<path d="M0.911078 16.4328H5.00308C5.94708 16.4328 6.65508 16.6368 7.12708 17.0448C7.59908 17.4528 7.83508 18.0208 7.83508 18.7488C7.83508 19.1568 7.77508 19.4968 7.65508 19.7688C7.53508 20.0328 7.39508 20.2488 7.23508 20.4168C7.07508 20.5768 6.91508 20.6928 6.75508 20.7648C6.60308 20.8368 6.49108 20.8848 6.41908 20.9088V20.9328C6.54708 20.9488 6.68308 20.9888 6.82708 21.0528C6.97908 21.1168 7.11908 21.2208 7.24708 21.3648C7.37508 21.5008 7.47908 21.6808 7.55908 21.9048C7.64708 22.1288 7.69108 22.4088 7.69108 22.7448C7.69108 23.2488 7.72708 23.7088 7.79908 24.1248C7.87908 24.5328 7.99908 24.8248 8.15908 25.0008H6.55108C6.43908 24.8168 6.37108 24.6128 6.34708 24.3888C6.33108 24.1648 6.32308 23.9488 6.32308 23.7408C6.32308 23.3488 6.29908 23.0128 6.25108 22.7328C6.20308 22.4448 6.11508 22.2088 5.98708 22.0248C5.85908 21.8328 5.68308 21.6928 5.45908 21.6048C5.24308 21.5168 4.96308 21.4728 4.61908 21.4728H2.41108V25.0008H0.911078V16.4328ZM2.41108 20.3328H4.87108C5.35108 20.3328 5.71508 20.2208 5.96308 19.9968C6.21108 19.7648 6.33508 19.4208 6.33508 18.9648C6.33508 18.6928 6.29508 18.4728 6.21508 18.3048C6.13508 18.1288 6.02308 17.9928 5.87908 17.8968C5.74308 17.8008 5.58308 17.7368 5.39908 17.7048C5.22308 17.6728 5.03908 17.6568 4.84708 17.6568H2.41108V20.3328Z" fill="white"/>
<path d="M12.0123 25.1688C11.5163 25.1688 11.0723 25.0888 10.6803 24.9288C10.2963 24.7608 9.9683 24.5328 9.6963 24.2448C9.4323 23.9568 9.2283 23.6128 9.0843 23.2128C8.9483 22.8128 8.8803 22.3728 8.8803 21.8928C8.8803 21.4208 8.9483 20.9848 9.0843 20.5848C9.2283 20.1848 9.4323 19.8408 9.6963 19.5528C9.9683 19.2648 10.2963 19.0408 10.6803 18.8808C11.0723 18.7128 11.5163 18.6288 12.0123 18.6288C12.5083 18.6288 12.9483 18.7128 13.3323 18.8808C13.7243 19.0408 14.0523 19.2648 14.3163 19.5528C14.5883 19.8408 14.7923 20.1848 14.9283 20.5848C15.0723 20.9848 15.1443 21.4208 15.1443 21.8928C15.1443 22.3728 15.0723 22.8128 14.9283 23.2128C14.7923 23.6128 14.5883 23.9568 14.3163 24.2448C14.0523 24.5328 13.7243 24.7608 13.3323 24.9288C12.9483 25.0888 12.5083 25.1688 12.0123 25.1688ZM12.0123 24.0888C12.3163 24.0888 12.5803 24.0248 12.8043 23.8968C13.0283 23.7688 13.2123 23.6008 13.3563 23.3928C13.5003 23.1848 13.6043 22.9528 13.6683 22.6968C13.7403 22.4328 13.7763 22.1648 13.7763 21.8928C13.7763 21.6288 13.7403 21.3648 13.6683 21.1008C13.6043 20.8368 13.5003 20.6048 13.3563 20.4048C13.2123 20.1968 13.0283 20.0288 12.8043 19.9008C12.5803 19.7728 12.3163 19.7088 12.0123 19.7088C11.7083 19.7088 11.4443 19.7728 11.2203 19.9008C10.9963 20.0288 10.8123 20.1968 10.6683 20.4048C10.5243 20.6048 10.4163 20.8368 10.3443 21.1008C10.2803 21.3648 10.2483 21.6288 10.2483 21.8928C10.2483 22.1648 10.2803 22.4328 10.3443 22.6968C10.4163 22.9528 10.5243 23.1848 10.6683 23.3928C10.8123 23.6008 10.9963 23.7688 11.2203 23.8968C11.4443 24.0248 11.7083 24.0888 12.0123 24.0888Z" fill="white"/>
<path d="M21.7296 25.0008H20.3856V24.1368H20.3616C20.1936 24.4488 19.9416 24.7008 19.6056 24.8928C19.2776 25.0768 18.9416 25.1688 18.5976 25.1688C17.7816 25.1688 17.1896 24.9688 16.8216 24.5688C16.4616 24.1608 16.2816 23.5488 16.2816 22.7328V18.7968H17.6496V22.6008C17.6496 23.1448 17.7536 23.5288 17.9616 23.7528C18.1696 23.9768 18.4616 24.0888 18.8376 24.0888C19.1256 24.0888 19.3656 24.0448 19.5576 23.9568C19.7496 23.8688 19.9056 23.7528 20.0256 23.6088C20.1456 23.4568 20.2296 23.2768 20.2776 23.0688C20.3336 22.8608 20.3616 22.6368 20.3616 22.3968V18.7968H21.7296V25.0008Z" fill="white"/>
<path d="M22.5482 18.7968H23.5802V16.9368H24.9482V18.7968H26.1842V19.8168H24.9482V23.1288C24.9482 23.2728 24.9522 23.3968 24.9602 23.5008C24.9762 23.6048 25.0042 23.6928 25.0442 23.7648C25.0922 23.8368 25.1602 23.8928 25.2482 23.9328C25.3362 23.9648 25.4562 23.9808 25.6082 23.9808C25.7042 23.9808 25.8002 23.9808 25.8962 23.9808C25.9922 23.9728 26.0882 23.9568 26.1842 23.9328V24.9888C26.0322 25.0048 25.8842 25.0208 25.7402 25.0368C25.5962 25.0528 25.4482 25.0608 25.2962 25.0608C24.9362 25.0608 24.6442 25.0288 24.4202 24.9648C24.2042 24.8928 24.0322 24.7928 23.9042 24.6648C23.7842 24.5288 23.7002 24.3608 23.6522 24.1608C23.6122 23.9608 23.5882 23.7328 23.5802 23.4768V19.8168H22.5482V18.7968Z" fill="white"/>
<path d="M31.4283 21.3528C31.4123 21.1368 31.3643 20.9288 31.2843 20.7288C31.2123 20.5288 31.1083 20.3568 30.9723 20.2128C30.8443 20.0608 30.6843 19.9408 30.4923 19.8528C30.3083 19.7568 30.1003 19.7088 29.8683 19.7088C29.6283 19.7088 29.4083 19.7528 29.2083 19.8408C29.0163 19.9208 28.8483 20.0368 28.7043 20.1888C28.5683 20.3328 28.4563 20.5048 28.3683 20.7048C28.2883 20.9048 28.2443 21.1208 28.2363 21.3528H31.4283ZM28.2363 22.2528C28.2363 22.4928 28.2683 22.7248 28.3323 22.9488C28.4043 23.1728 28.5083 23.3688 28.6443 23.5368C28.7803 23.7048 28.9523 23.8408 29.1603 23.9448C29.3683 24.0408 29.6163 24.0888 29.9043 24.0888C30.3043 24.0888 30.6243 24.0048 30.8643 23.8368C31.1123 23.6608 31.2963 23.4008 31.4163 23.0568H32.7123C32.6403 23.3928 32.5163 23.6928 32.3403 23.9568C32.1643 24.2208 31.9523 24.4448 31.7043 24.6288C31.4563 24.8048 31.1763 24.9368 30.8643 25.0248C30.5603 25.1208 30.2403 25.1688 29.9043 25.1688C29.4163 25.1688 28.9843 25.0888 28.6083 24.9288C28.2323 24.7688 27.9123 24.5448 27.6483 24.2568C27.3923 23.9688 27.1963 23.6248 27.0603 23.2248C26.9323 22.8248 26.8683 22.3848 26.8683 21.9048C26.8683 21.4648 26.9363 21.0488 27.0723 20.6568C27.2163 20.2568 27.4163 19.9088 27.6723 19.6128C27.9363 19.3088 28.2523 19.0688 28.6203 18.8928C28.9883 18.7168 29.4043 18.6288 29.8683 18.6288C30.3563 18.6288 30.7923 18.7328 31.1763 18.9408C31.5683 19.1408 31.8923 19.4088 32.1483 19.7448C32.4043 20.0808 32.5883 20.4688 32.7003 20.9088C32.8203 21.3408 32.8523 21.7888 32.7963 22.2528H28.2363Z" fill="white"/>
<path d="M37.3681 16.4328H38.8681V23.7048H43.2241V25.0008H37.3681V16.4328Z" fill="white"/>
<path d="M49.2627 23.6208C49.2627 23.7888 49.2827 23.9088 49.3227 23.9808C49.3707 24.0528 49.4587 24.0888 49.5867 24.0888C49.6267 24.0888 49.6747 24.0888 49.7307 24.0888C49.7867 24.0888 49.8507 24.0808 49.9227 24.0648V25.0128C49.8747 25.0288 49.8107 25.0448 49.7307 25.0608C49.6587 25.0848 49.5827 25.1048 49.5027 25.1208C49.4227 25.1368 49.3427 25.1488 49.2627 25.1568C49.1827 25.1648 49.1147 25.1688 49.0587 25.1688C48.7787 25.1688 48.5467 25.1128 48.3627 25.0008C48.1787 24.8888 48.0587 24.6928 48.0027 24.4128C47.7307 24.6768 47.3947 24.8688 46.9947 24.9888C46.6027 25.1088 46.2227 25.1688 45.8547 25.1688C45.5747 25.1688 45.3067 25.1288 45.0507 25.0488C44.7947 24.9768 44.5667 24.8688 44.3667 24.7248C44.1747 24.5728 44.0187 24.3848 43.8987 24.1608C43.7867 23.9288 43.7307 23.6608 43.7307 23.3568C43.7307 22.9728 43.7987 22.6608 43.9347 22.4208C44.0787 22.1808 44.2627 21.9928 44.4867 21.8568C44.7187 21.7208 44.9747 21.6248 45.2547 21.5688C45.5427 21.5048 45.8307 21.4568 46.1187 21.4248C46.3667 21.3768 46.6027 21.3448 46.8267 21.3288C47.0507 21.3048 47.2467 21.2688 47.4147 21.2208C47.5907 21.1728 47.7267 21.1008 47.8227 21.0048C47.9267 20.9008 47.9787 20.7488 47.9787 20.5488C47.9787 20.3728 47.9347 20.2288 47.8467 20.1168C47.7667 20.0048 47.6627 19.9208 47.5347 19.8648C47.4147 19.8008 47.2787 19.7608 47.1267 19.7448C46.9747 19.7208 46.8307 19.7088 46.6947 19.7088C46.3107 19.7088 45.9947 19.7888 45.7467 19.9488C45.4987 20.1088 45.3587 20.3568 45.3267 20.6928H43.9587C43.9827 20.2928 44.0787 19.9608 44.2467 19.6968C44.4147 19.4328 44.6267 19.2208 44.8827 19.0608C45.1467 18.9008 45.4427 18.7888 45.7707 18.7248C46.0987 18.6608 46.4347 18.6288 46.7787 18.6288C47.0827 18.6288 47.3827 18.6608 47.6787 18.7248C47.9747 18.7888 48.2387 18.8928 48.4707 19.0368C48.7107 19.1808 48.9027 19.3688 49.0467 19.6008C49.1907 19.8248 49.2627 20.1008 49.2627 20.4288V23.6208ZM47.8947 21.8928C47.6867 22.0288 47.4307 22.1128 47.1267 22.1448C46.8227 22.1688 46.5187 22.2088 46.2147 22.2648C46.0707 22.2888 45.9307 22.3248 45.7947 22.3728C45.6587 22.4128 45.5387 22.4728 45.4347 22.5528C45.3307 22.6248 45.2467 22.7248 45.1827 22.8528C45.1267 22.9728 45.0987 23.1208 45.0987 23.2968C45.0987 23.4488 45.1427 23.5768 45.2307 23.6808C45.3187 23.7848 45.4227 23.8688 45.5427 23.9328C45.6707 23.9888 45.8067 24.0288 45.9507 24.0528C46.1027 24.0768 46.2387 24.0888 46.3587 24.0888C46.5107 24.0888 46.6747 24.0688 46.8507 24.0288C47.0267 23.9888 47.1907 23.9208 47.3427 23.8248C47.5027 23.7288 47.6347 23.6088 47.7387 23.4648C47.8427 23.3128 47.8947 23.1288 47.8947 22.9128V21.8928Z" fill="white"/>
<path d="M50.0507 18.7968H51.5507L53.1707 23.4288H53.1947L54.7667 18.7968H56.1947L53.7827 25.3368C53.6707 25.6168 53.5587 25.8848 53.4467 26.1408C53.3427 26.3968 53.2107 26.6208 53.0507 26.8128C52.8987 27.0128 52.7067 27.1688 52.4747 27.2808C52.2427 27.4008 51.9467 27.4608 51.5867 27.4608C51.2667 27.4608 50.9507 27.4368 50.6387 27.3888V26.2368C50.7507 26.2528 50.8587 26.2688 50.9627 26.2848C51.0667 26.3088 51.1747 26.3208 51.2867 26.3208C51.4467 26.3208 51.5787 26.3008 51.6827 26.2608C51.7867 26.2208 51.8707 26.1608 51.9347 26.0808C52.0067 26.0088 52.0667 25.9208 52.1147 25.8168C52.1627 25.7128 52.2067 25.5928 52.2467 25.4568L52.4027 24.9768L50.0507 18.7968Z" fill="white"/>
<path d="M59.8014 25.1688C59.3054 25.1688 58.8614 25.0888 58.4694 24.9288C58.0854 24.7608 57.7574 24.5328 57.4854 24.2448C57.2214 23.9568 57.0174 23.6128 56.8734 23.2128C56.7374 22.8128 56.6694 22.3728 56.6694 21.8928C56.6694 21.4208 56.7374 20.9848 56.8734 20.5848C57.0174 20.1848 57.2214 19.8408 57.4854 19.5528C57.7574 19.2648 58.0854 19.0408 58.4694 18.8808C58.8614 18.7128 59.3054 18.6288 59.8014 18.6288C60.2974 18.6288 60.7374 18.7128 61.1214 18.8808C61.5134 19.0408 61.8414 19.2648 62.1054 19.5528C62.3774 19.8408 62.5814 20.1848 62.7174 20.5848C62.8614 20.9848 62.9334 21.4208 62.9334 21.8928C62.9334 22.3728 62.8614 22.8128 62.7174 23.2128C62.5814 23.6128 62.3774 23.9568 62.1054 24.2448C61.8414 24.5328 61.5134 24.7608 61.1214 24.9288C60.7374 25.0888 60.2974 25.1688 59.8014 25.1688ZM59.8014 24.0888C60.1054 24.0888 60.3694 24.0248 60.5934 23.8968C60.8174 23.7688 61.0014 23.6008 61.1454 23.3928C61.2894 23.1848 61.3934 22.9528 61.4574 22.6968C61.5294 22.4328 61.5654 22.1648 61.5654 21.8928C61.5654 21.6288 61.5294 21.3648 61.4574 21.1008C61.3934 20.8368 61.2894 20.6048 61.1454 20.4048C61.0014 20.1968 60.8174 20.0288 60.5934 19.9008C60.3694 19.7728 60.1054 19.7088 59.8014 19.7088C59.4974 19.7088 59.2334 19.7728 59.0094 19.9008C58.7854 20.0288 58.6014 20.1968 58.4574 20.4048C58.3134 20.6048 58.2054 20.8368 58.1334 21.1008C58.0694 21.3648 58.0374 21.6288 58.0374 21.8928C58.0374 22.1648 58.0694 22.4328 58.1334 22.6968C58.2054 22.9528 58.3134 23.1848 58.4574 23.3928C58.6014 23.6008 58.7854 23.7688 59.0094 23.8968C59.2334 24.0248 59.4974 24.0888 59.8014 24.0888Z" fill="white"/>
<path d="M69.5186 25.0008H68.1746V24.1368H68.1506C67.9826 24.4488 67.7306 24.7008 67.3946 24.8928C67.0666 25.0768 66.7306 25.1688 66.3866 25.1688C65.5706 25.1688 64.9786 24.9688 64.6106 24.5688C64.2506 24.1608 64.0706 23.5488 64.0706 22.7328V18.7968H65.4386V22.6008C65.4386 23.1448 65.5426 23.5288 65.7506 23.7528C65.9586 23.9768 66.2506 24.0888 66.6266 24.0888C66.9146 24.0888 67.1546 24.0448 67.3466 23.9568C67.5386 23.8688 67.6946 23.7528 67.8146 23.6088C67.9346 23.4568 68.0186 23.2768 68.0666 23.0688C68.1226 22.8608 68.1506 22.6368 68.1506 22.3968V18.7968H69.5186V25.0008Z" fill="white"/>
<path d="M70.3373 18.7968H71.3693V16.9368H72.7373V18.7968H73.9733V19.8168H72.7373V23.1288C72.7373 23.2728 72.7413 23.3968 72.7493 23.5008C72.7653 23.6048 72.7933 23.6928 72.8333 23.7648C72.8813 23.8368 72.9493 23.8928 73.0373 23.9328C73.1253 23.9648 73.2453 23.9808 73.3973 23.9808C73.4933 23.9808 73.5893 23.9808 73.6853 23.9808C73.7813 23.9728 73.8773 23.9568 73.9733 23.9328V24.9888C73.8213 25.0048 73.6733 25.0208 73.5293 25.0368C73.3853 25.0528 73.2373 25.0608 73.0853 25.0608C72.7253 25.0608 72.4333 25.0288 72.2093 24.9648C71.9933 24.8928 71.8213 24.7928 71.6933 24.6648C71.5733 24.5288 71.4893 24.3608 71.4413 24.1608C71.4013 23.9608 71.3773 23.7328 71.3693 23.4768V19.8168H70.3373V18.7968Z" fill="white"/>
<path d="M79.6304 52.8311V53.7211H84.4104V52.8311H79.6304ZM84.4104 48.5911H79.6304V49.4311H84.4104V48.5911ZM84.4104 50.8111V50.0111H79.6304V50.8111H84.4104ZM79.6304 51.3911V52.2511H84.4104V51.3911H79.6304ZM85.1504 53.7211H86.5104V54.4111H77.5004V53.7211H78.9204V47.9611H81.2604C81.3004 47.7211 81.3504 47.4511 81.3904 47.1711H77.7904V46.4911H81.4904C81.5304 46.1811 81.5604 45.8811 81.5804 45.6211L82.3904 45.7011L82.2604 46.4911H86.2104V47.1711H82.1304C82.0804 47.4511 82.0304 47.7211 81.9704 47.9611H85.1504V53.7211Z" fill="white"/>
<path d="M95.8904 46.6711L95.4604 47.1311C95.1504 46.8611 94.5204 46.4711 94.0304 46.2311L94.4504 45.8211C94.9404 46.0311 95.5804 46.4111 95.8904 46.6711ZM88.8704 51.1811L90.8504 50.8211C90.8304 51.0111 90.8304 51.3011 90.8504 51.4411C88.3604 51.9511 88.0304 52.0411 87.8204 52.1611C87.7804 52.0111 87.6804 51.6811 87.5904 51.4811C87.8004 51.4411 88.0304 51.2011 88.3304 50.8311C88.5204 50.6311 88.9104 50.1311 89.3404 49.4811C88.1404 49.6411 87.9004 49.7011 87.7504 49.7811C87.7204 49.6211 87.6004 49.2711 87.5204 49.0711C87.7004 49.0311 87.8704 48.8011 88.0904 48.4611C88.3004 48.1311 89.0204 46.8611 89.4204 45.6711L90.1204 45.9911C89.6804 47.0211 89.1104 48.1011 88.5204 48.9511L89.7704 48.8311C90.0004 48.4611 90.2104 48.0911 90.4004 47.7211L91.0204 48.1011C90.3804 49.2011 89.6404 50.2911 88.8704 51.1811ZM90.8904 52.5511L91.0004 53.1811L87.7304 54.1511L87.5804 53.4311C88.4004 53.2411 89.6604 52.8811 90.8904 52.5511ZM95.8404 50.5111L96.4604 50.8011C95.9604 51.5811 95.2904 52.2911 94.5004 52.8811C94.8104 53.6111 95.1904 54.0211 95.6204 54.0211C95.8904 54.0211 96.0004 53.7811 96.0404 52.9011C96.2004 53.0711 96.4204 53.2311 96.5904 53.2911C96.4604 54.4111 96.2304 54.7411 95.5504 54.7411C94.8404 54.7411 94.3104 54.2111 93.9004 53.3111C93.1104 53.8311 92.2204 54.2711 91.2904 54.5911C91.1904 54.4011 91.0004 54.1511 90.8304 53.9811C91.8504 53.6711 92.8104 53.2211 93.6504 52.6611C93.4404 52.0311 93.2904 51.2911 93.1604 50.4611L91.2604 50.8311L91.1304 50.1611L93.0704 49.8011C93.0204 49.3711 92.9804 48.9211 92.9504 48.4611L91.4704 48.6911L91.3404 48.0211L92.9104 47.7911C92.8704 47.0911 92.8504 46.3711 92.8404 45.6211H93.5704C93.5704 46.3411 93.5804 47.0211 93.6104 47.6811L96.0004 47.3311L96.1204 47.9811L93.6504 48.3611C93.6904 48.8211 93.7304 49.2511 93.7804 49.6711L96.2704 49.2011L96.4004 49.8511L93.8604 50.3311C93.9704 51.0411 94.1104 51.6811 94.2704 52.2211C94.9004 51.7111 95.4404 51.1411 95.8404 50.5111Z" fill="white"/>
<path d="M99.4304 48.7311V51.6211C99.8004 51.4611 100.18 51.2911 100.57 51.1411L100.72 51.8011C99.6604 52.3011 98.5304 52.7911 97.6504 53.1811L97.3604 52.4411C97.7304 52.3111 98.2104 52.1211 98.7304 51.9011V48.7311H97.4504V48.0211H98.7304V45.7511H99.4304V48.0211H100.6V48.7311H99.4304ZM102.78 53.8711H105.19C105.77 53.8711 105.87 53.6011 105.94 52.4511C106.12 52.5811 106.4 52.7011 106.61 52.7411C106.49 54.1011 106.26 54.5411 105.21 54.5411H102.76C101.63 54.5411 101.29 54.2711 101.29 53.2011V50.0511L100.5 50.3811L100.21 49.7411L101.29 49.2811V46.5611H102V48.9811L103.34 48.4111V45.6311H104.05V48.1211L105.37 47.5611L105.53 47.4211L105.67 47.3111L106.19 47.5111L106.15 47.6511C106.15 49.5211 106.13 51.0111 106.05 51.3911C106 51.8011 105.8 51.9811 105.52 52.0511C105.24 52.1211 104.86 52.1211 104.58 52.1211C104.55 51.9211 104.49 51.6411 104.4 51.4811C104.64 51.4911 104.96 51.4911 105.07 51.4911C105.22 51.4911 105.32 51.4511 105.37 51.2311C105.42 50.9911 105.44 49.8811 105.44 48.2911L104.05 48.8811V52.5511H103.34V49.1811L102 49.7511V53.2111C102 53.7411 102.13 53.8711 102.78 53.8711Z" fill="white"/>
<path d="M111.31 47.4611H108.77C108.45 47.9611 108.11 48.4011 107.74 48.7611C107.68 48.6011 107.48 48.2211 107.36 48.0611C107.98 47.4811 108.54 46.5811 108.87 45.6611L109.53 45.8611C109.43 46.1611 109.3 46.4711 109.15 46.7611H111.31V47.4611ZM109.85 53.4411L111.18 52.7611C111.21 52.9611 111.28 53.2511 111.32 53.4011C109.49 54.3911 109.2 54.5511 109.03 54.7111C108.97 54.5311 108.81 54.2211 108.68 54.0611C108.86 53.9511 109.14 53.7211 109.14 53.3111V51.2411H107.63V50.5611H109.14V49.2111H108.12V48.5411H111.05V49.2111H109.85V50.5611H111.29V51.2411H109.85V53.4411ZM116.49 50.7811H114.39C114.76 52.2811 115.48 53.5311 116.61 54.1211C116.45 54.2611 116.22 54.5311 116.1 54.7311C115.07 54.1311 114.41 53.0311 113.97 51.6711C113.62 52.7911 112.94 53.8911 111.61 54.7611C111.5 54.6011 111.26 54.3511 111.08 54.2211C112.62 53.2911 113.23 52.0111 113.46 50.7811H111.47V50.0811H113.56C113.6 49.6111 113.61 49.1511 113.61 48.7411V48.1111H112.41C112.25 48.6411 112.07 49.1211 111.84 49.5111C111.71 49.4111 111.41 49.2311 111.24 49.1411C111.71 48.3711 111.99 47.2011 112.14 46.0311L112.83 46.1411C112.77 46.5811 112.68 47.0111 112.59 47.4211H113.61V45.6911H114.33V47.4211H116.25V48.1111H114.33V48.7411C114.33 49.1611 114.32 49.6111 114.28 50.0811H116.49V50.7811Z" fill="white"/>
<path d="M125.89 46.6711L125.46 47.1311C125.15 46.8611 124.52 46.4711 124.03 46.2311L124.45 45.8211C124.94 46.0311 125.58 46.4111 125.89 46.6711ZM118.87 51.1811L120.85 50.8211C120.83 51.0111 120.83 51.3011 120.85 51.4411C118.36 51.9511 118.03 52.0411 117.82 52.1611C117.78 52.0111 117.68 51.6811 117.59 51.4811C117.8 51.4411 118.03 51.2011 118.33 50.8311C118.52 50.6311 118.91 50.1311 119.34 49.4811C118.14 49.6411 117.9 49.7011 117.75 49.7811C117.72 49.6211 117.6 49.2711 117.52 49.0711C117.7 49.0311 117.87 48.8011 118.09 48.4611C118.3 48.1311 119.02 46.8611 119.42 45.6711L120.12 45.9911C119.68 47.0211 119.11 48.1011 118.52 48.9511L119.77 48.8311C120 48.4611 120.21 48.0911 120.4 47.7211L121.02 48.1011C120.38 49.2011 119.64 50.2911 118.87 51.1811ZM120.89 52.5511L121 53.1811L117.73 54.1511L117.58 53.4311C118.4 53.2411 119.66 52.8811 120.89 52.5511ZM125.84 50.5111L126.46 50.8011C125.96 51.5811 125.29 52.2911 124.5 52.8811C124.81 53.6111 125.19 54.0211 125.62 54.0211C125.89 54.0211 126 53.7811 126.04 52.9011C126.2 53.0711 126.42 53.2311 126.59 53.2911C126.46 54.4111 126.23 54.7411 125.55 54.7411C124.84 54.7411 124.31 54.2111 123.9 53.3111C123.11 53.8311 122.22 54.2711 121.29 54.5911C121.19 54.4011 121 54.1511 120.83 53.9811C121.85 53.6711 122.81 53.2211 123.65 52.6611C123.44 52.0311 123.29 51.2911 123.16 50.4611L121.26 50.8311L121.13 50.1611L123.07 49.8011C123.02 49.3711 122.98 48.9211 122.95 48.4611L121.47 48.6911L121.34 48.0211L122.91 47.7911C122.87 47.0911 122.85 46.3711 122.84 45.6211H123.57C123.57 46.3411 123.58 47.0211 123.61 47.6811L126 47.3311L126.12 47.9811L123.65 48.3611C123.69 48.8211 123.73 49.2511 123.78 49.6711L126.27 49.2011L126.4 49.8511L123.86 50.3311C123.97 51.0411 124.11 51.6811 124.27 52.2211C124.9 51.7111 125.44 51.1411 125.84 50.5111Z" fill="white"/>
<path d="M132.46 51.1611H135.44C134.88 50.8311 134.39 50.4111 133.96 49.9811C133.5 50.4411 132.99 50.8411 132.46 51.1611ZM132.7 53.7311H135.2V51.8111H132.7V53.7311ZM131.24 50.5411V51.0211C132.04 50.6811 132.83 50.1511 133.5 49.4611C133.13 49.0111 132.83 48.5411 132.58 48.0911C132.3 48.5311 131.99 48.9111 131.67 49.2411C131.56 49.1311 131.33 48.9211 131.15 48.8011V49.1011H130V50.5411H131.24ZM128.58 46.7011V48.4511H130.46V46.7011H128.58ZM134.95 47.3011H133.04L132.94 47.4911C133.19 47.9811 133.52 48.5011 133.93 48.9911C134.35 48.4811 134.7 47.9211 134.95 47.3011ZM135.41 46.6211L135.87 46.8311C135.55 47.8711 135.03 48.7511 134.41 49.4911C135.03 50.0911 135.79 50.6211 136.69 50.9611C136.54 51.1011 136.33 51.3911 136.23 51.5711C136.13 51.5211 136.02 51.4811 135.91 51.4311V54.7211H135.2V54.3911H132.7V54.7511H132.01V51.4211C131.81 51.5211 131.61 51.6111 131.41 51.7011C131.34 51.5511 131.19 51.3511 131.05 51.2011H130V52.9911C130.43 52.8911 130.87 52.7911 131.31 52.6811L131.38 53.3511C130.02 53.6811 128.6 54.0211 127.55 54.2811L127.41 53.5611L127.92 53.4511V50.0411H128.55V53.3211L129.32 53.1411V49.1011H127.92V46.0511H131.15V48.7011C131.94 47.9511 132.59 46.8311 132.96 45.6311L133.67 45.8011C133.57 46.0911 133.46 46.3811 133.35 46.6511H135.28L135.41 46.6211Z" fill="white"/>
<path d="M77.7804 66.0011V58.8611H78.7304V65.2011H82.5104V66.0011H77.7804Z" fill="white"/>
<path d="M83.247 66.0011V60.8311H84.097V66.0011H83.247ZM84.097 58.8611V59.9011H83.247V58.8611H84.097Z" fill="white"/>
<path d="M85.4138 66.0011V60.8311H86.2138V61.6511H86.2338C86.5938 61.0111 87.1738 60.7111 87.9138 60.7111C89.2738 60.7111 89.6938 61.4911 89.6938 62.6011V66.0011H88.8438V62.5011C88.8438 61.8711 88.4438 61.4611 87.7938 61.4611C86.7638 61.4611 86.2638 62.1511 86.2638 63.0811V66.0011H85.4138Z" fill="white"/>
<path d="M94.5405 64.3611H95.3805C95.1505 65.5011 94.3305 66.1211 93.1705 66.1211C91.5205 66.1211 90.7405 64.9811 90.6905 63.4011C90.6905 61.8511 91.7105 60.7111 93.1205 60.7111C94.9505 60.7111 95.5105 62.4211 95.4605 63.6711H91.5905C91.5605 64.5711 92.0705 65.3711 93.2005 65.3711C93.9005 65.3711 94.3905 65.0311 94.5405 64.3611ZM91.5905 62.9211H94.5605C94.5205 62.1111 93.9105 61.4611 93.0705 61.4611C92.1805 61.4611 91.6505 62.1311 91.5905 62.9211Z" fill="white"/>
<path d="M99.5416 64.2011V63.3311C99.2116 63.5711 98.5716 63.5811 98.0016 63.6811C97.4416 63.7811 96.9616 63.9811 96.9616 64.6111C96.9616 65.1711 97.4416 65.3711 97.9616 65.3711C99.0816 65.3711 99.5416 64.6711 99.5416 64.2011ZM100.922 65.3211V65.9811C100.772 66.0711 100.582 66.1211 100.312 66.1211C99.8716 66.1211 99.5916 65.8811 99.5916 65.3211C99.1216 65.8711 98.4916 66.1211 97.7716 66.1211C96.8316 66.1211 96.0616 65.7011 96.0616 64.6711C96.0616 63.5011 96.9316 63.2511 97.8116 63.0811C98.7516 62.9011 99.5516 62.9611 99.5516 62.3211C99.5516 61.5811 98.9416 61.4611 98.4016 61.4611C97.6816 61.4611 97.1516 61.6811 97.1116 62.4411H96.2616C96.3116 61.1611 97.3016 60.7111 98.4516 60.7111C99.3816 60.7111 100.392 60.9211 100.392 62.1311V64.7911C100.392 65.1911 100.392 65.3711 100.662 65.3711C100.732 65.3711 100.812 65.3611 100.922 65.3211Z" fill="white"/>
<path d="M101.683 66.0011V60.8311H102.483V61.9211H102.503C102.913 61.0911 103.483 60.6811 104.403 60.7111V61.6111C103.033 61.6111 102.533 62.3911 102.533 63.7011V66.0011H101.683Z" fill="white"/>
<path d="M112.996 60.9511H112.096C111.986 59.9311 111.306 59.4911 110.326 59.4911C109.526 59.4911 108.726 59.7811 108.726 60.7111C108.726 61.5911 109.866 61.7211 111.016 61.9811C112.156 62.2411 113.296 62.6411 113.296 64.0411C113.296 65.5611 111.806 66.1711 110.506 66.1711C108.906 66.1711 107.556 65.3911 107.556 63.6511H108.456C108.456 64.8511 109.456 65.3711 110.536 65.3711C111.396 65.3711 112.346 65.1011 112.346 64.0711C112.346 63.0911 111.206 62.9211 110.066 62.6711C108.926 62.4211 107.776 62.0911 107.776 60.7811C107.776 59.3311 109.066 58.6911 110.366 58.6911C111.826 58.6911 112.936 59.3811 112.996 60.9511Z" fill="white"/>
<path d="M118.59 60.8311V66.0011H117.79V65.1811H117.77C117.41 65.8211 116.83 66.1211 116.09 66.1211C114.73 66.1211 114.31 65.3411 114.31 64.2311V60.8311H115.16V64.3311C115.16 64.9611 115.56 65.3711 116.21 65.3711C117.24 65.3711 117.74 64.6811 117.74 63.7511V60.8311H118.59Z" fill="white"/>
<path d="M123.897 63.3711C123.897 62.4011 123.397 61.4611 122.297 61.4611C121.157 61.4611 120.717 62.4411 120.717 63.4111C120.717 64.4311 121.177 65.3711 122.347 65.3711C123.507 65.3711 123.897 64.3811 123.897 63.3711ZM119.897 66.0011V58.8611H120.747V61.5311H120.767C121.047 60.9611 121.707 60.7111 122.417 60.7111C124.007 60.7111 124.797 61.9711 124.797 63.4311C124.797 64.8911 124.017 66.1211 122.437 66.1211C121.907 66.1211 121.147 65.9211 120.767 65.3111H120.747V66.0011H119.897Z" fill="white"/>
<path d="M132.565 60.8311L130.915 66.0011H130.015L128.965 61.8911H128.945L127.905 66.0011H126.985L125.325 60.8311H126.265L127.435 65.0611H127.455L128.495 60.8311H129.425L130.505 65.0611H130.525L131.685 60.8311H132.565Z" fill="white"/>
<path d="M136.573 64.2011V63.3311C136.243 63.5711 135.603 63.5811 135.033 63.6811C134.473 63.7811 133.993 63.9811 133.993 64.6111C133.993 65.1711 134.473 65.3711 134.993 65.3711C136.113 65.3711 136.573 64.6711 136.573 64.2011ZM137.953 65.3211V65.9811C137.803 66.0711 137.613 66.1211 137.343 66.1211C136.903 66.1211 136.623 65.8811 136.623 65.3211C136.153 65.8711 135.523 66.1211 134.803 66.1211C133.863 66.1211 133.093 65.7011 133.093 64.6711C133.093 63.5011 133.963 63.2511 134.843 63.0811C135.783 62.9011 136.583 62.9611 136.583 62.3211C136.583 61.5811 135.973 61.4611 135.433 61.4611C134.713 61.4611 134.183 61.6811 134.143 62.4411H133.293C133.343 61.1611 134.333 60.7111 135.483 60.7111C136.413 60.7111 137.423 60.9211 137.423 62.1311V64.7911C137.423 65.1911 137.423 65.3711 137.693 65.3711C137.763 65.3711 137.843 65.3611 137.953 65.3211Z" fill="white"/>
<path d="M143.024 60.8311L140.774 66.6911C140.384 67.7011 140.034 68.0711 139.274 68.0711C139.074 68.0711 138.874 68.0511 138.684 67.9811V67.2011C138.844 67.2511 139.014 67.3211 139.184 67.3211C139.534 67.3211 139.724 67.1511 139.884 66.8511L140.234 65.9711L138.184 60.8311H139.144L140.654 65.0611H140.674L142.124 60.8311H143.024Z" fill="white"/>
<path d="M146.667 66.0011V58.8611H147.617V65.2011H151.397V66.0011H146.667Z" fill="white"/>
<path d="M152.134 66.0011V60.8311H152.984V66.0011H152.134ZM152.984 58.8611V59.9011H152.134V58.8611H152.984Z" fill="white"/>
<path d="M154.301 66.0011V60.8311H155.101V61.6511H155.121C155.481 61.0111 156.061 60.7111 156.801 60.7111C158.161 60.7111 158.581 61.4911 158.581 62.6011V66.0011H157.731V62.5011C157.731 61.8711 157.331 61.4611 156.681 61.4611C155.651 61.4611 155.151 62.1511 155.151 63.0811V66.0011H154.301Z" fill="white"/>
<path d="M163.427 64.3611H164.267C164.037 65.5011 163.217 66.1211 162.057 66.1211C160.407 66.1211 159.627 64.9811 159.577 63.4011C159.577 61.8511 160.597 60.7111 162.007 60.7111C163.837 60.7111 164.397 62.4211 164.347 63.6711H160.477C160.447 64.5711 160.957 65.3711 162.087 65.3711C162.787 65.3711 163.277 65.0311 163.427 64.3611ZM160.477 62.9211H163.447C163.407 62.1111 162.797 61.4611 161.957 61.4611C161.067 61.4611 160.537 62.1311 160.477 62.9211Z" fill="white"/>
<path d="M79.3204 78.3211L80.3204 77.9711L80.4404 78.6311C79.4604 79.0011 78.4004 79.3811 77.5904 79.6611L77.4004 78.9711C77.7404 78.8611 78.1704 78.7211 78.6304 78.5611V75.8711H77.6004V75.1811H78.6304V73.0011H77.4504V72.3211H80.4104V73.0011H79.3204V75.1811H80.2004V75.8711H79.3204V78.3211ZM83.7504 75.0611L84.3104 74.6811C85.0504 75.4911 85.9604 76.6011 86.3904 77.2911L85.7804 77.7511C85.3804 77.0511 84.4904 75.9011 83.7504 75.0611ZM80.9204 72.2811H86.4104V72.9911H84.2604C84.1104 73.4211 83.9404 73.8511 83.7404 74.2511V80.7411H83.0104V75.6111C82.4604 76.5011 81.8304 77.2711 81.1404 77.8711C81.0204 77.7111 80.7304 77.4311 80.5604 77.2911C81.8004 76.3011 82.8204 74.7411 83.4604 72.9911H80.9204V72.2811Z" fill="white"/>
<path d="M95.4404 71.8011L96.1304 72.0911C95.4104 73.0111 94.2804 73.8911 93.2804 74.4411C93.1404 74.2811 92.9304 74.0511 92.7404 73.9211C93.6904 73.4511 94.8304 72.6011 95.4404 71.8011ZM95.7304 74.5311L96.4104 74.8211C95.6304 75.7911 94.4404 76.7411 93.3704 77.3411C93.2404 77.1811 93.0304 76.9511 92.8504 76.8111C93.8604 76.3011 95.0604 75.3911 95.7304 74.5311ZM89.4504 75.5211H91.0604V72.9511H89.4504V75.5211ZM92.8704 76.2111H91.7804V80.7611H91.0604V76.2111H89.4404C89.4004 77.8811 89.1504 79.5211 87.9604 80.8311C87.8404 80.6711 87.5704 80.4311 87.4004 80.3311C88.4804 79.1511 88.7004 77.6911 88.7404 76.2111H87.4504V75.5211H88.7504V72.9511H87.6004V72.2511H92.7204V72.9511H91.7804V75.5211H92.8704V76.2111ZM95.9504 77.2211L96.6504 77.4911C95.8104 78.8711 94.3904 80.0511 92.8504 80.7611C92.7304 80.5811 92.5104 80.3211 92.3304 80.1711C93.8004 79.5611 95.2104 78.4511 95.9504 77.2211Z" fill="white"/>
<path d="M99.4304 74.7311V77.6211C99.8004 77.4611 100.18 77.2911 100.57 77.1411L100.72 77.8011C99.6604 78.3011 98.5304 78.7911 97.6504 79.1811L97.3604 78.4411C97.7304 78.3111 98.2104 78.1211 98.7304 77.9011V74.7311H97.4504V74.0211H98.7304V71.7511H99.4304V74.0211H100.6V74.7311H99.4304ZM102.78 79.8711H105.19C105.77 79.8711 105.87 79.6011 105.94 78.4511C106.12 78.5811 106.4 78.7011 106.61 78.7411C106.49 80.1011 106.26 80.5411 105.21 80.5411H102.76C101.63 80.5411 101.29 80.2711 101.29 79.2011V76.0511L100.5 76.3811L100.21 75.7411L101.29 75.2811V72.5611H102V74.9811L103.34 74.4111V71.6311H104.05V74.1211L105.37 73.5611L105.53 73.4211L105.67 73.3111L106.19 73.5111L106.15 73.6511C106.15 75.5211 106.13 77.0111 106.05 77.3911C106 77.8011 105.8 77.9811 105.52 78.0511C105.24 78.1211 104.86 78.1211 104.58 78.1211C104.55 77.9211 104.49 77.6411 104.4 77.4811C104.64 77.4911 104.96 77.4911 105.07 77.4911C105.22 77.4911 105.32 77.4511 105.37 77.2311C105.42 76.9911 105.44 75.8811 105.44 74.2911L104.05 74.8811V78.5511H103.34V75.1811L102 75.7511V79.2111C102 79.7411 102.13 79.8711 102.78 79.8711Z" fill="white"/>
<path d="M111.31 73.4611H108.77C108.45 73.9611 108.11 74.4011 107.74 74.7611C107.68 74.6011 107.48 74.2211 107.36 74.0611C107.98 73.4811 108.54 72.5811 108.87 71.6611L109.53 71.8611C109.43 72.1611 109.3 72.4711 109.15 72.7611H111.31V73.4611ZM109.85 79.4411L111.18 78.7611C111.21 78.9611 111.28 79.2511 111.32 79.4011C109.49 80.3911 109.2 80.5511 109.03 80.7111C108.97 80.5311 108.81 80.2211 108.68 80.0611C108.86 79.9511 109.14 79.7211 109.14 79.3111V77.2411H107.63V76.5611H109.14V75.2111H108.12V74.5411H111.05V75.2111H109.85V76.5611H111.29V77.2411H109.85V79.4411ZM116.49 76.7811H114.39C114.76 78.2811 115.48 79.5311 116.61 80.1211C116.45 80.2611 116.22 80.5311 116.1 80.7311C115.07 80.1311 114.41 79.0311 113.97 77.6711C113.62 78.7911 112.94 79.8911 111.61 80.7611C111.5 80.6011 111.26 80.3511 111.08 80.2211C112.62 79.2911 113.23 78.0111 113.46 76.7811H111.47V76.0811H113.56C113.6 75.6111 113.61 75.1511 113.61 74.7411V74.1111H112.41C112.25 74.6411 112.07 75.1211 111.84 75.5111C111.71 75.4111 111.41 75.2311 111.24 75.1411C111.71 74.3711 111.99 73.2011 112.14 72.0311L112.83 72.1411C112.77 72.5811 112.68 73.0111 112.59 73.4211H113.61V71.6911H114.33V73.4211H116.25V74.1111H114.33V74.7411C114.33 75.1611 114.32 75.6111 114.28 76.0811H116.49V76.7811Z" fill="white"/>
<path d="M125.89 72.6711L125.46 73.1311C125.15 72.8611 124.52 72.4711 124.03 72.2311L124.45 71.8211C124.94 72.0311 125.58 72.4111 125.89 72.6711ZM118.87 77.1811L120.85 76.8211C120.83 77.0111 120.83 77.3011 120.85 77.4411C118.36 77.9511 118.03 78.0411 117.82 78.1611C117.78 78.0111 117.68 77.6811 117.59 77.4811C117.8 77.4411 118.03 77.2011 118.33 76.8311C118.52 76.6311 118.91 76.1311 119.34 75.4811C118.14 75.6411 117.9 75.7011 117.75 75.7811C117.72 75.6211 117.6 75.2711 117.52 75.0711C117.7 75.0311 117.87 74.8011 118.09 74.4611C118.3 74.1311 119.02 72.8611 119.42 71.6711L120.12 71.9911C119.68 73.0211 119.11 74.1011 118.52 74.9511L119.77 74.8311C120 74.4611 120.21 74.0911 120.4 73.7211L121.02 74.1011C120.38 75.2011 119.64 76.2911 118.87 77.1811ZM120.89 78.5511L121 79.1811L117.73 80.1511L117.58 79.4311C118.4 79.2411 119.66 78.8811 120.89 78.5511ZM125.84 76.5111L126.46 76.8011C125.96 77.5811 125.29 78.2911 124.5 78.8811C124.81 79.6111 125.19 80.0211 125.62 80.0211C125.89 80.0211 126 79.7811 126.04 78.9011C126.2 79.0711 126.42 79.2311 126.59 79.2911C126.46 80.4111 126.23 80.7411 125.55 80.7411C124.84 80.7411 124.31 80.2111 123.9 79.3111C123.11 79.8311 122.22 80.2711 121.29 80.5911C121.19 80.4011 121 80.1511 120.83 79.9811C121.85 79.6711 122.81 79.2211 123.65 78.6611C123.44 78.0311 123.29 77.2911 123.16 76.4611L121.26 76.8311L121.13 76.1611L123.07 75.8011C123.02 75.3711 122.98 74.9211 122.95 74.4611L121.47 74.6911L121.34 74.0211L122.91 73.7911C122.87 73.0911 122.85 72.3711 122.84 71.6211H123.57C123.57 72.3411 123.58 73.0211 123.61 73.6811L126 73.3311L126.12 73.9811L123.65 74.3611C123.69 74.8211 123.73 75.2511 123.78 75.6711L126.27 75.2011L126.4 75.8511L123.86 76.3311C123.97 77.0411 124.11 77.6811 124.27 78.2211C124.9 77.7111 125.44 77.1411 125.84 76.5111Z" fill="white"/>
<path d="M132.46 77.1611H135.44C134.88 76.8311 134.39 76.4111 133.96 75.9811C133.5 76.4411 132.99 76.8411 132.46 77.1611ZM132.7 79.7311H135.2V77.8111H132.7V79.7311ZM131.24 76.5411V77.0211C132.04 76.6811 132.83 76.1511 133.5 75.4611C133.13 75.0111 132.83 74.5411 132.58 74.0911C132.3 74.5311 131.99 74.9111 131.67 75.2411C131.56 75.1311 131.33 74.9211 131.15 74.8011V75.1011H130V76.5411H131.24ZM128.58 72.7011V74.4511H130.46V72.7011H128.58ZM134.95 73.3011H133.04L132.94 73.4911C133.19 73.9811 133.52 74.5011 133.93 74.9911C134.35 74.4811 134.7 73.9211 134.95 73.3011ZM135.41 72.6211L135.87 72.8311C135.55 73.8711 135.03 74.7511 134.41 75.4911C135.03 76.0911 135.79 76.6211 136.69 76.9611C136.54 77.1011 136.33 77.3911 136.23 77.5711C136.13 77.5211 136.02 77.4811 135.91 77.4311V80.7211H135.2V80.3911H132.7V80.7511H132.01V77.4211C131.81 77.5211 131.61 77.6111 131.41 77.7011C131.34 77.5511 131.19 77.3511 131.05 77.2011H130V78.9911C130.43 78.8911 130.87 78.7911 131.31 78.6811L131.38 79.3511C130.02 79.6811 128.6 80.0211 127.55 80.2811L127.41 79.5611L127.92 79.4511V76.0411H128.55V79.3211L129.32 79.1411V75.1011H127.92V72.0511H131.15V74.7011C131.94 73.9511 132.59 72.8311 132.96 71.6311L133.67 71.8011C133.57 72.0911 133.46 72.3811 133.35 72.6511H135.28L135.41 72.6211Z" fill="white"/>
<path d="M83.7504 87.0111H82.8004C82.6004 86.0011 81.7904 85.4911 80.8004 85.4911C79.1004 85.4911 78.3804 86.8911 78.3804 88.3811C78.3804 90.0111 79.1004 91.3711 80.8104 91.3711C82.0604 91.3711 82.7804 90.4911 82.8704 89.3111H83.8204C83.6404 91.0911 82.5304 92.1711 80.7304 92.1711C78.5104 92.1711 77.4304 90.5311 77.4304 88.4511C77.4304 86.3811 78.6104 84.6911 80.8104 84.6911C82.3004 84.6911 83.5304 85.4911 83.7504 87.0111Z" fill="white"/>
<path d="M84.9072 92.0011V86.8311H85.7572V92.0011H84.9072ZM85.7572 84.8611V85.9011H84.9072V84.8611H85.7572Z" fill="white"/>
<path d="M87.044 92.0011V86.8311H87.844V87.9211H87.864C88.274 87.0911 88.844 86.6811 89.764 86.7111V87.6111C88.394 87.6111 87.894 88.3911 87.894 89.7011V92.0011H87.044Z" fill="white"/>
<path d="M94.6183 88.4911H93.7383C93.6083 87.8411 93.1583 87.4611 92.4583 87.4611C91.2283 87.4611 90.8483 88.4311 90.8483 89.4811C90.8483 90.4311 91.2783 91.3711 92.3583 91.3711C93.1783 91.3711 93.6683 90.8911 93.7783 90.1111H94.6483C94.4583 91.3711 93.6683 92.1211 92.3683 92.1211C90.7883 92.1211 89.9483 91.0211 89.9483 89.4811C89.9483 87.9311 90.7483 86.7111 92.3883 86.7111C93.5583 86.7111 94.4983 87.2611 94.6183 88.4911Z" fill="white"/>
<path d="M99.8794 86.8311V92.0011H99.0794V91.1811H99.0594C98.6994 91.8211 98.1194 92.1211 97.3794 92.1211C96.0194 92.1211 95.5994 91.3411 95.5994 90.2311V86.8311H96.4494V90.3311C96.4494 90.9611 96.8494 91.3711 97.4994 91.3711C98.5294 91.3711 99.0294 90.6811 99.0294 89.7511V86.8311H99.8794Z" fill="white"/>
<path d="M101.206 92.0011V84.8611H102.056V92.0011H101.206Z" fill="white"/>
<path d="M106.573 90.2011V89.3311C106.243 89.5711 105.603 89.5811 105.033 89.6811C104.473 89.7811 103.993 89.9811 103.993 90.6111C103.993 91.1711 104.473 91.3711 104.993 91.3711C106.113 91.3711 106.573 90.6711 106.573 90.2011ZM107.953 91.3211V91.9811C107.803 92.0711 107.613 92.1211 107.343 92.1211C106.903 92.1211 106.623 91.8811 106.623 91.3211C106.153 91.8711 105.523 92.1211 104.803 92.1211C103.863 92.1211 103.093 91.7011 103.093 90.6711C103.093 89.5011 103.963 89.2511 104.843 89.0811C105.783 88.9011 106.583 88.9611 106.583 88.3211C106.583 87.5811 105.973 87.4611 105.433 87.4611C104.713 87.4611 104.183 87.6811 104.143 88.4411H103.293C103.343 87.1611 104.333 86.7111 105.483 86.7111C106.413 86.7111 107.423 86.9211 107.423 88.1311V90.7911C107.423 91.1911 107.423 91.3711 107.693 91.3711C107.763 91.3711 107.843 91.3611 107.953 91.3211Z" fill="white"/>
<path d="M108.714 92.0011V86.8311H109.514V87.9211H109.534C109.944 87.0911 110.514 86.6811 111.434 86.7111V87.6111C110.064 87.6111 109.564 88.3911 109.564 89.7011V92.0011H108.714Z" fill="white"/>
<path d="M120.027 86.9511H119.127C119.017 85.9311 118.337 85.4911 117.357 85.4911C116.557 85.4911 115.757 85.7811 115.757 86.7111C115.757 87.5911 116.897 87.7211 118.047 87.9811C119.187 88.2411 120.327 88.6411 120.327 90.0411C120.327 91.5611 118.837 92.1711 117.537 92.1711C115.937 92.1711 114.587 91.3911 114.587 89.6511H115.487C115.487 90.8511 116.487 91.3711 117.567 91.3711C118.427 91.3711 119.377 91.1011 119.377 90.0711C119.377 89.0911 118.237 88.9211 117.097 88.6711C115.957 88.4211 114.807 88.0911 114.807 86.7811C114.807 85.3311 116.097 84.6911 117.397 84.6911C118.857 84.6911 119.967 85.3811 120.027 86.9511Z" fill="white"/>
<path d="M125.622 86.8311V92.0011H124.822V91.1811H124.802C124.442 91.8211 123.862 92.1211 123.122 92.1211C121.762 92.1211 121.342 91.3411 121.342 90.2311V86.8311H122.192V90.3311C122.192 90.9611 122.592 91.3711 123.242 91.3711C124.272 91.3711 124.772 90.6811 124.772 89.7511V86.8311H125.622Z" fill="white"/>
<path d="M130.928 89.3711C130.928 88.4011 130.428 87.4611 129.328 87.4611C128.188 87.4611 127.748 88.4411 127.748 89.4111C127.748 90.4311 128.208 91.3711 129.378 91.3711C130.538 91.3711 130.928 90.3811 130.928 89.3711ZM126.928 92.0011V84.8611H127.778V87.5311H127.798C128.078 86.9611 128.738 86.7111 129.448 86.7111C131.038 86.7111 131.828 87.9711 131.828 89.4311C131.828 90.8911 131.048 92.1211 129.468 92.1211C128.938 92.1211 128.178 91.9211 127.798 91.3111H127.778V92.0011H126.928Z" fill="white"/>
<path d="M139.596 86.8311L137.946 92.0011H137.046L135.996 87.8911H135.976L134.936 92.0011H134.016L132.356 86.8311H133.296L134.466 91.0611H134.486L135.526 86.8311H136.456L137.536 91.0611H137.556L138.716 86.8311H139.596Z" fill="white"/>
<path d="M143.604 90.2011V89.3311C143.274 89.5711 142.634 89.5811 142.064 89.6811C141.504 89.7811 141.024 89.9811 141.024 90.6111C141.024 91.1711 141.504 91.3711 142.024 91.3711C143.144 91.3711 143.604 90.6711 143.604 90.2011ZM144.984 91.3211V91.9811C144.834 92.0711 144.644 92.1211 144.374 92.1211C143.934 92.1211 143.654 91.8811 143.654 91.3211C143.184 91.8711 142.554 92.1211 141.834 92.1211C140.894 92.1211 140.124 91.7011 140.124 90.6711C140.124 89.5011 140.994 89.2511 141.874 89.0811C142.814 88.9011 143.614 88.9611 143.614 88.3211C143.614 87.5811 143.004 87.4611 142.464 87.4611C141.744 87.4611 141.214 87.6811 141.174 88.4411H140.324C140.374 87.1611 141.364 86.7111 142.514 86.7111C143.444 86.7111 144.454 86.9211 144.454 88.1311V90.7911C144.454 91.1911 144.454 91.3711 144.724 91.3711C144.794 91.3711 144.874 91.3611 144.984 91.3211Z" fill="white"/>
<path d="M150.055 86.8311L147.805 92.6911C147.415 93.7011 147.065 94.0711 146.305 94.0711C146.105 94.0711 145.905 94.0511 145.715 93.9811V93.2011C145.875 93.2511 146.045 93.3211 146.215 93.3211C146.565 93.3211 146.755 93.1511 146.915 92.8511L147.265 91.9711L145.215 86.8311H146.175L147.685 91.0611H147.705L149.155 86.8311H150.055Z" fill="white"/>
<path d="M153.698 92.0011V84.8611H154.648V91.2011H158.428V92.0011H153.698Z" fill="white"/>
<path d="M159.165 92.0011V86.8311H160.015V92.0011H159.165ZM160.015 84.8611V85.9011H159.165V84.8611H160.015Z" fill="white"/>
<path d="M161.332 92.0011V86.8311H162.132V87.6511H162.152C162.512 87.0111 163.092 86.7111 163.832 86.7111C165.192 86.7111 165.612 87.4911 165.612 88.6011V92.0011H164.762V88.5011C164.762 87.8711 164.362 87.4611 163.712 87.4611C162.682 87.4611 162.182 88.1511 162.182 89.0811V92.0011H161.332Z" fill="white"/>
<path d="M170.458 90.3611H171.298C171.068 91.5011 170.248 92.1211 169.088 92.1211C167.438 92.1211 166.658 90.9811 166.608 89.4011C166.608 87.8511 167.628 86.7111 169.038 86.7111C170.868 86.7111 171.428 88.4211 171.378 89.6711H167.508C167.478 90.5711 167.988 91.3711 169.118 91.3711C169.818 91.3711 170.308 91.0311 170.458 90.3611ZM167.508 88.9211H170.478C170.438 88.1111 169.828 87.4611 168.988 87.4611C168.098 87.4611 167.568 88.1311 167.508 88.9211Z" fill="white"/>
<path d="M57 103H0V46H57V103ZM0.564356 102.436H56.4356V46.5644H0.564356V102.436Z" fill="white"/>
<circle cx="29.3463" cy="74.6803" r="17.6881" stroke="white" stroke-width="3"/>
<path d="M25.9609 46.4648V102.336" stroke="white" stroke-width="3"/>
<path d="M25.9609 65.6523H78.4461" stroke="white" stroke-width="0.5"/>
<path d="M45.7129 69L54.1782 77.4653H80.1386" stroke="white" stroke-width="0.5"/>
</svg>
