<svg width="111" height="103" viewBox="0 0 111 103" fill="none" xmlns="http://www.w3.org/2000/svg">
<path d="M66.5697 50.9994H50.2197V51.4994H66.5697V50.9994Z" fill="white"/>
<path d="M6.48 6.23541H5.532V6.47541C5.532 7.21941 5.496 8.08341 5.352 8.93541C5.652 8.97141 5.88 8.97141 6.012 8.97141C6.144 8.97141 6.228 8.93541 6.312 8.82741C6.42 8.64741 6.456 8.01141 6.48 6.23541ZM10.164 4.97541L11.448 5.21541C11.064 6.78741 10.536 8.17941 9.804 9.33141C9.996 10.1234 10.212 10.5794 10.44 10.5794C10.62 10.5794 10.716 10.0154 10.752 8.79141C11.016 9.09141 11.424 9.40341 11.748 9.53541C11.568 11.3834 11.196 11.8994 10.272 11.8994C9.684 11.8994 9.228 11.3954 8.88 10.5674C8.388 11.1434 7.824 11.6354 7.2 12.0554C7.008 11.8154 6.504 11.3114 6.204 11.1074C7.092 10.5794 7.824 9.90741 8.436 9.07941C8.124 7.62741 7.956 5.75541 7.872 3.78741H5.532V5.08341H7.668C7.668 5.08341 7.668 5.40741 7.656 5.56341C7.62 8.23941 7.572 9.30741 7.332 9.63141C7.14 9.89541 6.96 10.0034 6.672 10.0514C6.432 10.0994 6.048 10.1114 5.64 10.0994C5.604 9.73941 5.508 9.27141 5.34 8.97141C5.148 10.1234 4.764 11.2514 3.996 12.0794C3.804 11.8394 3.264 11.3834 2.964 11.2034C3.444 10.6634 3.756 10.0034 3.924 9.33141C2.868 9.76341 1.74 10.2314 0.828 10.6034L0.372 9.17541C0.732 9.07941 1.152 8.93541 1.62 8.77941V4.99941H0.576V3.67941H1.62V0.991406H2.94V3.67941H3.876V4.99941H2.94V8.31141L3.864 7.98741L4.032 8.86341C4.2 8.05941 4.224 7.20741 4.224 6.47541V2.49141H7.836C7.824 1.92741 7.812 1.37541 7.812 0.823406H9.156C9.144 1.38741 9.144 1.93941 9.156 2.49141H10.092C9.852 2.11941 9.504 1.68741 9.18 1.35141L10.152 0.775406C10.596 1.19541 11.1 1.78341 11.316 2.17941L10.812 2.49141H11.472V3.78741H9.18C9.24 5.04741 9.324 6.23541 9.456 7.25541C9.756 6.55941 9.984 5.79141 10.164 4.97541Z" fill="white"/>
<path d="M23.496 3.84741H18.708V5.19141H22.572V9.23541C22.572 9.94341 22.428 10.3394 21.924 10.5554C21.432 10.7834 20.736 10.7954 19.812 10.7954C19.752 10.3754 19.536 9.77541 19.332 9.39141C19.932 9.42741 20.64 9.42741 20.82 9.41541C21.024 9.41541 21.084 9.36741 21.084 9.21141V6.58341H18.708V11.9834H17.22V6.58341H15V10.7954H13.56V5.19141H17.22V3.84741H12.552V2.45541H17.364C17.184 2.02341 16.956 1.53141 16.752 1.13541L18.168 0.691406C18.468 1.24341 18.864 1.96341 19.068 2.45541H23.496V3.84741Z" fill="white"/>
<path d="M27.168 4.95141V7.78341C27.54 7.62741 27.912 7.47141 28.272 7.31541L28.596 8.57541C27.324 9.21141 25.956 9.84741 24.852 10.3634L24.276 8.92341C24.708 8.76741 25.236 8.56341 25.836 8.32341V4.95141H24.432V3.59541H25.836V0.991406H27.168V3.59541H28.38V4.95141H27.168ZM31.26 10.5434H33.576C34.236 10.5434 34.356 10.2674 34.464 9.04341C34.764 9.25941 35.316 9.48741 35.712 9.55941C35.52 11.2394 35.1 11.8154 33.696 11.8154H31.14C29.52 11.8154 29.052 11.3714 29.052 9.71541V6.63141L28.404 6.90741L27.876 5.63541L29.052 5.14341V1.98741H30.42V4.55541L31.416 4.13541V0.823406H32.748V3.55941L33.696 3.15141L34.2 2.81541L35.196 3.16341L35.148 3.40341C35.148 5.68341 35.124 7.12341 35.064 7.61541C35.028 8.16741 34.812 8.45541 34.452 8.61141C34.104 8.76741 33.588 8.77941 33.204 8.77941C33.168 8.41941 33.06 7.87941 32.904 7.57941C33.108 7.60341 33.372 7.60341 33.48 7.60341C33.624 7.60341 33.696 7.55541 33.744 7.33941C33.768 7.14741 33.78 6.27141 33.78 4.56741L32.748 5.02341V9.25941H31.416V5.59941L30.42 6.03141V9.72741C30.42 10.4354 30.528 10.5434 31.26 10.5434Z" fill="white"/>
<path d="M44.136 10.3634H45.696V6.71541C45.456 6.99141 45.192 7.37541 45.06 7.62741C44.016 7.41141 42.996 7.05141 42.072 6.57141C41.76 6.73941 41.436 6.88341 41.112 7.02741C42.06 7.23141 43.188 7.57941 43.86 7.87941L43.284 8.75541C42.576 8.43141 41.304 7.99941 40.296 7.78341L40.74 7.17141C40.092 7.42341 39.42 7.62741 38.772 7.78341C38.676 7.50741 38.46 7.09941 38.256 6.81141V10.3634H43.932C42.732 9.93141 40.788 9.49941 39.204 9.31941L39.852 8.39541C41.472 8.56341 43.5 8.99541 44.724 9.41541L44.136 10.3634ZM40.848 2.57541H38.256V6.59541C39.12 6.42741 40.02 6.17541 40.836 5.85141C40.524 5.62341 40.236 5.39541 39.984 5.15541C39.744 5.35941 39.492 5.53941 39.252 5.69541C39.036 5.46741 38.58 5.04741 38.316 4.85541C39.288 4.30341 40.26 3.46341 40.848 2.57541ZM43.2 4.54341H40.896C41.208 4.81941 41.58 5.08341 42.012 5.29941C42.468 5.08341 42.852 4.81941 43.2 4.54341ZM45.696 6.53541V2.57541H41.028L42.048 2.93541C41.928 3.11541 41.796 3.30741 41.652 3.48741H44.268L44.472 3.43941L45.276 3.91941C44.796 4.66341 44.088 5.31141 43.272 5.87541C44.028 6.16341 44.868 6.37941 45.696 6.53541ZM36.888 1.29141H47.136V12.0554H45.696V11.6234H38.256V12.0554H36.888V1.29141Z" fill="white"/>
<path d="M6.696 19.1554C6.632 18.9074 6.544 18.6794 6.432 18.4714C6.32 18.2634 6.176 18.0834 6 17.9314C5.824 17.7794 5.616 17.6634 5.376 17.5834C5.144 17.4954 4.872 17.4514 4.56 17.4514C4.104 17.4514 3.708 17.5434 3.372 17.7274C3.044 17.9114 2.776 18.1594 2.568 18.4714C2.36 18.7754 2.204 19.1234 2.1 19.5154C2.004 19.9074 1.956 20.3074 1.956 20.7154C1.956 21.1234 2.004 21.5234 2.1 21.9154C2.204 22.3074 2.36 22.6594 2.568 22.9714C2.776 23.2754 3.044 23.5194 3.372 23.7034C3.708 23.8874 4.104 23.9794 4.56 23.9794C4.896 23.9794 5.192 23.9234 5.448 23.8114C5.704 23.6914 5.924 23.5314 6.108 23.3314C6.292 23.1234 6.436 22.8834 6.54 22.6114C6.644 22.3394 6.712 22.0474 6.744 21.7354H8.208C8.176 22.2474 8.064 22.7154 7.872 23.1394C7.688 23.5634 7.436 23.9314 7.116 24.2434C6.796 24.5474 6.42 24.7834 5.988 24.9514C5.556 25.1194 5.08 25.2034 4.56 25.2034C3.92 25.2034 3.344 25.0874 2.832 24.8554C2.328 24.6154 1.9 24.2914 1.548 23.8834C1.196 23.4754 0.924 22.9994 0.732 22.4554C0.548 21.9114 0.456 21.3314 0.456 20.7154C0.456 20.1074 0.548 19.5314 0.732 18.9874C0.924 18.4434 1.196 17.9674 1.548 17.5594C1.9 17.1514 2.328 16.8274 2.832 16.5874C3.344 16.3474 3.92 16.2274 4.56 16.2274C5.04 16.2274 5.492 16.2954 5.916 16.4314C6.34 16.5594 6.712 16.7514 7.032 17.0074C7.36 17.2554 7.624 17.5594 7.824 17.9194C8.024 18.2794 8.148 18.6914 8.196 19.1554H6.696Z" fill="white"/>
<path d="M9.41616 16.4314H10.7842V17.7274H9.41616V16.4314ZM9.41616 18.7954H10.7842V24.9994H9.41616V18.7954Z" fill="white"/>
<path d="M11.6507 18.7954H12.6827V16.9354H14.0507V18.7954H15.2867V19.8154H14.0507V23.1274C14.0507 23.2714 14.0547 23.3954 14.0627 23.4994C14.0787 23.6034 14.1067 23.6914 14.1467 23.7634C14.1947 23.8354 14.2627 23.8914 14.3507 23.9314C14.4387 23.9634 14.5587 23.9794 14.7107 23.9794C14.8067 23.9794 14.9027 23.9794 14.9987 23.9794C15.0947 23.9714 15.1907 23.9554 15.2867 23.9314V24.9874C15.1347 25.0034 14.9867 25.0194 14.8427 25.0354C14.6987 25.0514 14.5507 25.0594 14.3987 25.0594C14.0387 25.0594 13.7467 25.0274 13.5227 24.9634C13.3067 24.8914 13.1347 24.7914 13.0067 24.6634C12.8867 24.5274 12.8027 24.3594 12.7547 24.1594C12.7147 23.9594 12.6907 23.7314 12.6827 23.4754V19.8154H11.6507V18.7954Z" fill="white"/>
<path d="M15.5868 18.7954H17.0868L18.7068 23.4274H18.7308L20.3028 18.7954H21.7308L19.3188 25.3354C19.2068 25.6154 19.0948 25.8834 18.9828 26.1394C18.8788 26.3954 18.7468 26.6194 18.5868 26.8114C18.4348 27.0114 18.2428 27.1674 18.0108 27.2794C17.7788 27.3994 17.4828 27.4594 17.1228 27.4594C16.8028 27.4594 16.4868 27.4354 16.1748 27.3874V26.2354C16.2868 26.2514 16.3948 26.2674 16.4988 26.2834C16.6028 26.3074 16.7108 26.3194 16.8228 26.3194C16.9828 26.3194 17.1148 26.2994 17.2188 26.2594C17.3228 26.2194 17.4068 26.1594 17.4708 26.0794C17.5428 26.0074 17.6028 25.9194 17.6508 25.8154C17.6988 25.7114 17.7428 25.5914 17.7828 25.4554L17.9388 24.9754L15.5868 18.7954Z" fill="white"/>
<path d="M26.0013 16.4314H28.1133L30.4773 23.1394H30.5013L32.8053 16.4314H34.8933V24.9994H33.4653V18.3874H33.4413L31.0653 24.9994H29.8293L27.4533 18.3874H27.4293V24.9994H26.0013V16.4314Z" fill="white"/>
<path d="M41.6933 23.6194C41.6933 23.7874 41.7133 23.9074 41.7533 23.9794C41.8013 24.0514 41.8893 24.0874 42.0173 24.0874C42.0573 24.0874 42.1053 24.0874 42.1613 24.0874C42.2173 24.0874 42.2813 24.0794 42.3533 24.0634V25.0114C42.3053 25.0274 42.2413 25.0434 42.1613 25.0594C42.0893 25.0834 42.0133 25.1034 41.9333 25.1194C41.8533 25.1354 41.7733 25.1474 41.6933 25.1554C41.6133 25.1634 41.5453 25.1674 41.4893 25.1674C41.2093 25.1674 40.9773 25.1114 40.7933 24.9994C40.6093 24.8874 40.4893 24.6914 40.4333 24.4114C40.1613 24.6754 39.8253 24.8674 39.4253 24.9874C39.0333 25.1074 38.6533 25.1674 38.2853 25.1674C38.0053 25.1674 37.7373 25.1274 37.4813 25.0474C37.2253 24.9754 36.9973 24.8674 36.7973 24.7234C36.6053 24.5714 36.4493 24.3834 36.3293 24.1594C36.2173 23.9274 36.1613 23.6594 36.1613 23.3554C36.1613 22.9714 36.2293 22.6594 36.3653 22.4194C36.5093 22.1794 36.6933 21.9914 36.9173 21.8554C37.1493 21.7194 37.4053 21.6234 37.6853 21.5674C37.9733 21.5034 38.2613 21.4554 38.5493 21.4234C38.7973 21.3754 39.0333 21.3434 39.2573 21.3274C39.4813 21.3034 39.6773 21.2674 39.8453 21.2194C40.0213 21.1714 40.1573 21.0994 40.2533 21.0034C40.3573 20.8994 40.4093 20.7474 40.4093 20.5474C40.4093 20.3714 40.3653 20.2274 40.2773 20.1154C40.1973 20.0034 40.0933 19.9194 39.9653 19.8634C39.8453 19.7994 39.7093 19.7594 39.5573 19.7434C39.4053 19.7194 39.2613 19.7074 39.1253 19.7074C38.7413 19.7074 38.4253 19.7874 38.1773 19.9474C37.9293 20.1074 37.7893 20.3554 37.7573 20.6914H36.3893C36.4133 20.2914 36.5093 19.9594 36.6773 19.6954C36.8453 19.4314 37.0573 19.2194 37.3133 19.0594C37.5773 18.8994 37.8733 18.7874 38.2013 18.7234C38.5293 18.6594 38.8653 18.6274 39.2093 18.6274C39.5133 18.6274 39.8133 18.6594 40.1093 18.7234C40.4053 18.7874 40.6693 18.8914 40.9013 19.0354C41.1413 19.1794 41.3333 19.3674 41.4773 19.5994C41.6213 19.8234 41.6933 20.0994 41.6933 20.4274V23.6194ZM40.3253 21.8914C40.1173 22.0274 39.8613 22.1114 39.5573 22.1434C39.2533 22.1674 38.9493 22.2074 38.6453 22.2634C38.5013 22.2874 38.3613 22.3234 38.2253 22.3714C38.0893 22.4114 37.9693 22.4714 37.8653 22.5514C37.7613 22.6234 37.6773 22.7234 37.6133 22.8514C37.5573 22.9714 37.5293 23.1194 37.5293 23.2954C37.5293 23.4474 37.5733 23.5754 37.6613 23.6794C37.7493 23.7834 37.8533 23.8674 37.9733 23.9314C38.1013 23.9874 38.2373 24.0274 38.3813 24.0514C38.5333 24.0754 38.6693 24.0874 38.7893 24.0874C38.9413 24.0874 39.1053 24.0674 39.2813 24.0274C39.4573 23.9874 39.6213 23.9194 39.7733 23.8234C39.9333 23.7274 40.0653 23.6074 40.1693 23.4634C40.2733 23.3114 40.3253 23.1274 40.3253 22.9114V21.8914Z" fill="white"/>
<path d="M43.2013 18.7954H44.4973V19.6354H44.5213C44.7133 19.2754 44.9813 19.0194 45.3253 18.8674C45.6693 18.7074 46.0413 18.6274 46.4413 18.6274C46.9293 18.6274 47.3533 18.7154 47.7133 18.8914C48.0813 19.0594 48.3853 19.2954 48.6253 19.5994C48.8653 19.8954 49.0453 20.2434 49.1653 20.6434C49.2853 21.0434 49.3453 21.4714 49.3453 21.9274C49.3453 22.3434 49.2893 22.7474 49.1773 23.1394C49.0733 23.5314 48.9093 23.8794 48.6853 24.1834C48.4693 24.4794 48.1933 24.7194 47.8573 24.9034C47.5213 25.0794 47.1253 25.1674 46.6693 25.1674C46.4693 25.1674 46.2693 25.1474 46.0693 25.1074C45.8693 25.0754 45.6773 25.0194 45.4933 24.9394C45.3093 24.8594 45.1373 24.7594 44.9773 24.6394C44.8253 24.5114 44.6973 24.3634 44.5933 24.1954H44.5693V27.2914H43.2013V18.7954ZM47.9773 21.9034C47.9773 21.6234 47.9413 21.3514 47.8693 21.0874C47.7973 20.8234 47.6893 20.5914 47.5453 20.3914C47.4013 20.1834 47.2213 20.0194 47.0053 19.8994C46.7893 19.7714 46.5413 19.7074 46.2613 19.7074C45.6853 19.7074 45.2493 19.9074 44.9533 20.3074C44.6653 20.7074 44.5213 21.2394 44.5213 21.9034C44.5213 22.2154 44.5573 22.5074 44.6293 22.7794C44.7093 23.0434 44.8253 23.2714 44.9773 23.4634C45.1293 23.6554 45.3093 23.8074 45.5173 23.9194C45.7333 24.0314 45.9813 24.0874 46.2613 24.0874C46.5733 24.0874 46.8373 24.0234 47.0533 23.8954C47.2693 23.7674 47.4453 23.6034 47.5813 23.4034C47.7253 23.1954 47.8253 22.9634 47.8813 22.7074C47.9453 22.4434 47.9773 22.1754 47.9773 21.9034Z" fill="white"/>
<path d="M73.0896 51.6694L73.2296 52.3294C72.2796 52.7294 71.2796 53.1094 70.4996 53.4194L70.2596 52.6894C70.5896 52.5794 70.9896 52.4394 71.4296 52.2794V48.7494H70.3796V48.0594H71.4296V45.7494H72.1196V48.0594H73.0696V48.7494H72.1196V52.0294L73.0896 51.6694ZM78.4396 48.9594L79.1296 49.0694C78.7996 50.3694 78.3396 51.4894 77.7296 52.4394C77.9696 53.3994 78.2596 53.9594 78.5996 53.9594C78.7896 53.9594 78.8896 53.4694 78.9296 52.3194C79.0696 52.4794 79.2996 52.6294 79.4796 52.6994C79.3696 54.1994 79.1596 54.6594 78.5096 54.6594C77.9496 54.6594 77.5296 54.0994 77.2196 53.1594C76.7396 53.7694 76.1896 54.2994 75.5496 54.7294C75.4496 54.5894 75.1796 54.3194 75.0296 54.2194C75.8096 53.7394 76.4596 53.0994 76.9996 52.3294C76.7396 51.1394 76.5896 49.5794 76.5196 47.8494H74.1796V49.1894H76.0896C76.0896 49.1894 76.0896 49.3994 76.0796 49.4894C76.0496 51.7694 76.0096 52.5694 75.8196 52.8194C75.6996 52.9994 75.5496 53.0694 75.3096 53.0994C75.1196 53.1194 74.7696 53.1194 74.4096 53.0994C74.3896 52.8994 74.3396 52.6394 74.2396 52.4694C74.5796 52.4994 74.8896 52.4994 75.0196 52.4994C75.1396 52.4994 75.2196 52.4894 75.2596 52.3994C75.3696 52.2494 75.4096 51.6094 75.4396 49.8194H74.1796V50.2594C74.1796 51.6594 74.0096 53.5594 72.9396 54.7994C72.8296 54.6594 72.5496 54.4194 72.3896 54.3294C73.3896 53.1794 73.4896 51.5394 73.4896 50.2494V47.1594H76.4996C76.4796 46.6594 76.4696 46.1494 76.4696 45.6294H77.1796C77.1796 46.1494 77.1796 46.6694 77.1896 47.1594H78.5296C78.2896 46.8394 77.7996 46.3494 77.3796 46.0194L77.8796 45.6994C78.3196 46.0194 78.8296 46.4794 79.0696 46.8194L78.5696 47.1594H79.2996V47.8494H77.2096C77.2596 49.2294 77.3796 50.4694 77.5296 51.4494C77.9296 50.7094 78.2196 49.8794 78.4396 48.9594Z" fill="white"/>
<path d="M89.2796 47.8194H85.1496V49.1694H88.3896V52.6694C88.3896 53.0994 88.2896 53.3194 87.9696 53.4494C87.6296 53.5694 87.0696 53.5794 86.2196 53.5794C86.1896 53.3494 86.0596 53.0494 85.9596 52.8394C86.6396 52.8594 87.2396 52.8594 87.4096 52.8594C87.5896 52.8394 87.6396 52.7994 87.6396 52.6594V49.8994H85.1496V54.7494H84.3996V49.8994H82.0596V53.6094H81.3196V49.1694H84.3996V47.8194H80.3496V47.0894H84.6096C84.4496 46.6994 84.1796 46.1794 83.9496 45.7794L84.6596 45.5594C84.9596 46.0194 85.2996 46.6494 85.4396 47.0394L85.3096 47.0894H89.2796V47.8194Z" fill="white"/>
<path d="M91.5396 53.7594H99.2896V54.4694H90.8096V46.1794H99.0396V46.8894H91.5396V53.7594ZM98.0996 52.5294L97.5096 53.0594C97.0096 52.4394 96.2396 51.6294 95.3696 50.8094C94.5296 51.6794 93.6096 52.4594 92.6796 53.0594C92.5496 52.9194 92.2696 52.6294 92.0896 52.5094C93.0596 51.9294 94.0096 51.1694 94.8496 50.3094C94.0396 49.5594 93.1896 48.8094 92.4096 48.1694L92.9296 47.7294C93.6896 48.3394 94.5396 49.0694 95.3396 49.7894C96.0196 49.0394 96.6196 48.2094 97.0996 47.3694L97.7896 47.6494C97.2396 48.5794 96.5896 49.4594 95.8696 50.2694C96.7596 51.0894 97.5696 51.8894 98.0996 52.5294Z" fill="white"/>
<path d="M102.95 51.4194L103.15 52.0794C102.24 52.5494 101.26 53.0394 100.49 53.4194L100.2 52.6894C100.52 52.5594 100.9 52.3894 101.32 52.1994V48.7594H100.27V48.0594H101.32V45.7494H102.02V48.0594H102.93V48.7594H102.02V51.8694C102.32 51.7294 102.64 51.5694 102.95 51.4194ZM106.28 52.0494L106.35 52.6794C105.16 53.0294 103.91 53.3894 102.96 53.6594L102.76 52.9594C103.66 52.7594 104.99 52.3894 106.28 52.0494ZM105.26 51.0094V49.3294H103.97V51.0094H105.26ZM103.39 48.7294H105.87V51.6094H103.39V48.7294ZM108.4 48.7294L109.08 48.8594C108.72 50.1694 108.24 51.3194 107.62 52.3094C107.86 53.3994 108.16 54.0494 108.53 54.0494C108.72 54.0494 108.81 53.6594 108.85 52.6194C109 52.7894 109.22 52.9294 109.38 53.0094C109.27 54.3394 109.07 54.7594 108.44 54.7594C107.83 54.7594 107.4 54.1194 107.09 53.0494C106.6 53.6894 106.03 54.2294 105.4 54.6794C105.29 54.5494 105.01 54.3094 104.85 54.1894C105.66 53.6794 106.33 52.9994 106.88 52.2094C106.65 51.0094 106.52 49.4794 106.46 47.7894H103.1V47.0994H106.44C106.42 46.6194 106.41 46.1294 106.41 45.6394H107.13C107.13 46.1394 107.13 46.6294 107.14 47.0994H108.71C108.46 46.7994 107.95 46.3494 107.52 46.0294L107.95 45.6594C108.39 45.9494 108.92 46.3794 109.17 46.6894L108.73 47.0994H109.26V47.7894H107.16C107.2 49.1194 107.3 50.3194 107.44 51.2994C107.85 50.5194 108.16 49.6694 108.4 48.7294Z" fill="white"/>
<path d="M76.5596 61.0094H75.6096C75.4096 59.9994 74.5996 59.4894 73.6096 59.4894C71.9096 59.4894 71.1896 60.8894 71.1896 62.3794C71.1896 64.0094 71.9096 65.3694 73.6196 65.3694C74.8696 65.3694 75.5896 64.4894 75.6796 63.3094H76.6296C76.4496 65.0894 75.3396 66.1694 73.5396 66.1694C71.3196 66.1694 70.2396 64.5294 70.2396 62.4494C70.2396 60.3794 71.4196 58.6894 73.6196 58.6894C75.1096 58.6894 76.3396 59.4894 76.5596 61.0094Z" fill="white"/>
<path d="M77.7164 65.9994V60.8294H78.5664V65.9994H77.7164ZM78.5664 58.8594V59.8994H77.7164V58.8594H78.5664Z" fill="white"/>
<path d="M81.0632 59.2794V60.8294H82.0932V61.5794H81.0632V64.7894C81.0632 65.1794 81.1732 65.2494 81.7032 65.2494H82.0932V65.9994H81.4432C80.5632 65.9994 80.2132 65.8194 80.2132 64.8694V61.5794H79.3332V60.8294H80.2132V59.2794H81.0632Z" fill="white"/>
<path d="M87.3175 60.8294L85.0675 66.6894C84.6775 67.6994 84.3275 68.0694 83.5675 68.0694C83.3675 68.0694 83.1675 68.0494 82.9775 67.9794V67.1994C83.1375 67.2494 83.3075 67.3194 83.4775 67.3194C83.8275 67.3194 84.0175 67.1494 84.1775 66.8494L84.5275 65.9694L82.4775 60.8294H83.4375L84.9475 65.0594H84.9675L86.4175 60.8294H87.3175Z" fill="white"/>
<path d="M90.1107 65.9994L92.9007 58.8594H93.9507L96.7407 65.9994H95.6907L94.9107 63.8494H91.8907L91.0907 65.9994H90.1107ZM93.4007 59.7194L92.1907 63.0494H94.6107L93.4207 59.7194H93.4007Z" fill="white"/>
<path d="M97.275 65.9994V60.8294H98.075V61.9194H98.095C98.505 61.0894 99.075 60.6794 99.995 60.7094V61.6094C98.625 61.6094 98.125 62.3894 98.125 63.6994V65.9994H97.275Z" fill="white"/>
<path d="M104.029 64.3594H104.869C104.639 65.4994 103.819 66.1194 102.659 66.1194C101.009 66.1194 100.229 64.9794 100.179 63.3994C100.179 61.8494 101.199 60.7094 102.609 60.7094C104.439 60.7094 104.999 62.4194 104.949 63.6694H101.079C101.049 64.5694 101.559 65.3694 102.689 65.3694C103.389 65.3694 103.879 65.0294 104.029 64.3594ZM101.079 62.9194H104.049C104.009 62.1094 103.399 61.4594 102.559 61.4594C101.669 61.4594 101.139 62.1294 101.079 62.9194Z" fill="white"/>
<path d="M109.03 64.1994V63.3294C108.7 63.5694 108.06 63.5794 107.49 63.6794C106.93 63.7794 106.45 63.9794 106.45 64.6094C106.45 65.1694 106.93 65.3694 107.45 65.3694C108.57 65.3694 109.03 64.6694 109.03 64.1994ZM110.41 65.3194V65.9794C110.26 66.0694 110.07 66.1194 109.8 66.1194C109.36 66.1194 109.08 65.8794 109.08 65.3194C108.61 65.8694 107.98 66.1194 107.26 66.1194C106.32 66.1194 105.55 65.6994 105.55 64.6694C105.55 63.4994 106.42 63.2494 107.3 63.0794C108.24 62.8994 109.04 62.9594 109.04 62.3194C109.04 61.5794 108.43 61.4594 107.89 61.4594C107.17 61.4594 106.64 61.6794 106.6 62.4394H105.75C105.8 61.1594 106.79 60.7094 107.94 60.7094C108.87 60.7094 109.88 60.9194 109.88 62.1294V64.7894C109.88 65.1894 109.88 65.3694 110.15 65.3694C110.22 65.3694 110.3 65.3594 110.41 65.3194Z" fill="white"/>
<path d="M57 102.999H0V45.9994H57V102.999ZM0.564356 102.435H56.4356V46.5638H0.564356V102.435Z" fill="white"/>
<path d="M11.9839 52.5287L5 66.4965L11.9839 63.322L18.9678 66.4965L11.9839 52.5287Z" fill="#D9D9D9"/>
<path d="M17.9612 51.7152H18.6762L19.9755 53.9929V51.7152H20.6108V54.9779H19.929L18.5965 52.6603V54.9779H17.9612V51.7152Z" fill="white"/>
</svg>
