<svg xmlns="http://www.w3.org/2000/svg" xmlns:xlink="http://www.w3.org/1999/xlink" viewBox="0 0 169.22 95.21"><defs><style>.cls-1{fill:#d9d9d9;}.cls-2{mask:url(#mask);}.cls-3{fill:#1ae5b9;}.cls-10,.cls-11,.cls-3,.cls-4,.cls-5,.cls-6,.cls-7,.cls-8,.cls-9{opacity:0.9;isolation:isolate;}.cls-4{fill:#1cbcf6;}.cls-5{fill:#e5accc;}.cls-6{fill:#e5625b;}.cls-7{fill:#0e8e9e;}.cls-8{fill:#8fe348;}.cls-9{fill:#0f6eda;}.cls-10{fill:#d2282e;}.cls-11{fill:#e5a807;}.cls-12{fill:#fff;}.cls-13{fill:none;stroke:#d9d9d9;}</style><mask id="mask" x="0" y="11.3" width="70.78" height="83.9" maskUnits="userSpaceOnUse"><g id="mask0_2961_284" data-name="mask0 2961 284"><rect class="cls-1" x="9.12" y="25.77" width="57" height="57"/></g></mask></defs><g id="图层_2" data-name="图层 2"><g id="图层_1-2" data-name="图层 1"><g class="cls-2"><rect class="cls-3" x="4.78" y="43.1" width="63.84" height="11.43" transform="translate(-2.06 1.62) rotate(-2.46)"/><rect class="cls-4" x="28.5" y="23.49" width="6.84" height="63.84"/><rect class="cls-5" x="6.84" y="51.98" width="63.84" height="6.84" transform="translate(-1.87 1.36) rotate(-1.96)"/><rect class="cls-6" x="36.42" y="40.49" width="4.66" height="63.84" transform="translate(-37.17 103.75) rotate(-84.28)"/><rect class="cls-7" x="44.34" y="15.86" width="6.84" height="77.64" transform="translate(-20.31 29.43) rotate(-28.51)"/><rect class="cls-8" x="49.02" y="23.49" width="6.84" height="63.84"/><rect class="cls-9" x="-10.02" y="49.39" width="97.34" height="6.84" transform="translate(-26.79 53.34) rotate(-54.26)"/><rect class="cls-10" x="-11.04" y="53.64" width="75.11" height="9.12" transform="translate(-37.14 64.41) rotate(-71.08)"/><rect class="cls-11" x="24.15" y="14.44" width="3.42" height="85.01" transform="translate(-28.06 25.25) rotate(-35.13)"/></g><path class="cls-12" d="M9,.2h1.88v7H15V8.77H9Zm8.68,1.41h-1.7V.2h1.7Zm-1.7,1h1.7v6.2h-1.7Zm3.05,0H20.6v.86h0a2,2,0,0,1,.84-.78,2.39,2.39,0,0,1,1.06-.25,2.7,2.7,0,0,1,1.11.19,1.56,1.56,0,0,1,.7.52,1.89,1.89,0,0,1,.35.8,4.77,4.77,0,0,1,.11,1V8.77H23.09V5.27a2.15,2.15,0,0,0-.24-1.14A.91.91,0,0,0,22,3.74a1.18,1.18,0,0,0-1,.42,2.29,2.29,0,0,0-.31,1.36V8.77H19ZM30.27,5a1.9,1.9,0,0,0-.44-1,1.19,1.19,0,0,0-.92-.34,1.4,1.4,0,0,0-.68.15,1.49,1.49,0,0,0-.44.33,1.3,1.3,0,0,0-.22.44,2.35,2.35,0,0,0-.08.4ZM27.49,6.08a1.75,1.75,0,0,0,.42,1.2,1.74,1.74,0,0,0,2,.12,1.07,1.07,0,0,0,.45-.55h1.5a2.86,2.86,0,0,1-1.1,1.6,3.27,3.27,0,0,1-1.8.48,3.65,3.65,0,0,1-1.32-.23,2.71,2.71,0,0,1-1-.67A3.07,3.07,0,0,1,26,7a3.73,3.73,0,0,1-.22-1.32A3.66,3.66,0,0,1,26,4.38a3,3,0,0,1,.65-1,3,3,0,0,1,1-.7A3.24,3.24,0,0,1,29,2.4a2.87,2.87,0,0,1,1.38.31,2.63,2.63,0,0,1,1,.82,3.32,3.32,0,0,1,.55,1.17A4.5,4.5,0,0,1,32,6.08Zm14.72-3A1.44,1.44,0,0,0,42,2.5,2,2,0,0,0,41.58,2,1.92,1.92,0,0,0,41,1.7a1.84,1.84,0,0,0-.66-.12,2.16,2.16,0,0,0-1.08.26,1.91,1.91,0,0,0-.72.66,3,3,0,0,0-.41.93A4.92,4.92,0,0,0,38,4.52a4.66,4.66,0,0,0,.12,1.06,3,3,0,0,0,.41.91,2.08,2.08,0,0,0,.72.66,2.27,2.27,0,0,0,1.08.24,1.68,1.68,0,0,0,1.34-.53,2.37,2.37,0,0,0,.6-1.39h1.83a4.35,4.35,0,0,1-.37,1.45A3.47,3.47,0,0,1,42.94,8a3.33,3.33,0,0,1-1.15.69A4.2,4.2,0,0,1,40.34,9a4.59,4.59,0,0,1-1.78-.33,3.85,3.85,0,0,1-1.32-1,4.17,4.17,0,0,1-.82-1.4,5.08,5.08,0,0,1-.29-1.76,5.06,5.06,0,0,1,.29-1.77,4.26,4.26,0,0,1,.82-1.44,3.75,3.75,0,0,1,1.32-1A4.62,4.62,0,0,1,41.67.2,3.6,3.6,0,0,1,42.8.8a3.2,3.2,0,0,1,.83,1A3.71,3.71,0,0,1,44,3.08Zm4.52,2.6a3.61,3.61,0,0,0,.07.73A2.17,2.17,0,0,0,47,7a1.27,1.27,0,0,0,.47.45,1.42,1.42,0,0,0,.72.17A1.47,1.47,0,0,0,49,7.49,1.17,1.17,0,0,0,49.41,7a2,2,0,0,0,.26-.63,4.51,4.51,0,0,0,.07-.73,4.53,4.53,0,0,0-.07-.74,1.78,1.78,0,0,0-.26-.63A1.24,1.24,0,0,0,49,3.86a1.37,1.37,0,0,0-.72-.18,1.33,1.33,0,0,0-.72.18,1.35,1.35,0,0,0-.47.45,2,2,0,0,0-.24.63A3.64,3.64,0,0,0,46.73,5.68ZM45,5.68a3.82,3.82,0,0,1,.23-1.35,2.79,2.79,0,0,1,.65-1,2.69,2.69,0,0,1,1-.66,3.45,3.45,0,0,1,1.32-.24,3.52,3.52,0,0,1,1.32.24,2.73,2.73,0,0,1,1,.66,2.77,2.77,0,0,1,.64,1,3.61,3.61,0,0,1,.23,1.35A3.59,3.59,0,0,1,51.21,7a2.94,2.94,0,0,1-.64,1,2.83,2.83,0,0,1-1,.65,3.73,3.73,0,0,1-1.32.23,3.65,3.65,0,0,1-1.32-.23,2.79,2.79,0,0,1-1-.65,3,3,0,0,1-.65-1A3.8,3.8,0,0,1,45,5.68ZM52.6.2h1.7V8.77H52.6Zm4.56,5.48a3.61,3.61,0,0,0,.07.73,2.17,2.17,0,0,0,.24.63,1.27,1.27,0,0,0,.47.45,1.42,1.42,0,0,0,.72.17,1.47,1.47,0,0,0,.72-.17A1.17,1.17,0,0,0,59.84,7a2,2,0,0,0,.26-.63,4.51,4.51,0,0,0,.07-.73,4.53,4.53,0,0,0-.07-.74,1.78,1.78,0,0,0-.26-.63,1.24,1.24,0,0,0-.46-.45,1.37,1.37,0,0,0-.72-.18,1.33,1.33,0,0,0-.72.18,1.35,1.35,0,0,0-.47.45,2,2,0,0,0-.24.63A3.64,3.64,0,0,0,57.16,5.68Zm-1.71,0a3.82,3.82,0,0,1,.23-1.35,2.79,2.79,0,0,1,.65-1,2.69,2.69,0,0,1,1-.66,3.45,3.45,0,0,1,1.32-.24A3.52,3.52,0,0,1,60,2.64a2.73,2.73,0,0,1,1,.66,2.77,2.77,0,0,1,.64,1,3.61,3.61,0,0,1,.23,1.35A3.59,3.59,0,0,1,61.64,7a2.94,2.94,0,0,1-.64,1,2.83,2.83,0,0,1-1,.65,3.73,3.73,0,0,1-1.32.23,3.65,3.65,0,0,1-1.32-.23,2.79,2.79,0,0,1-1-.65,3,3,0,0,1-.65-1A3.8,3.8,0,0,1,55.45,5.68ZM63,2.57H64.6V3.72h0A2,2,0,0,1,65,3.19a1.71,1.71,0,0,1,.47-.42A1.93,1.93,0,0,1,66,2.5a1.87,1.87,0,0,1,.62-.1,1.36,1.36,0,0,1,.38.06V4l-.29,0-.33,0a1.88,1.88,0,0,0-.79.16,1.48,1.48,0,0,0-.53.43,1.79,1.79,0,0,0-.27.63,3.21,3.21,0,0,0-.09.78V8.77H63Z"/><path class="cls-12" d="M77.08,30.63h5.65v.58H80.24v6.56h-.68V31.21H77.08Zm6.19,0h.63V33.5h0a1.5,1.5,0,0,1,.64-.75,1.86,1.86,0,0,1,1-.29,2.58,2.58,0,0,1,.9.14,1.39,1.39,0,0,1,.9,1,3.58,3.58,0,0,1,.09.83v3.32h-.63V34.55a2.93,2.93,0,0,0-.06-.61,1.33,1.33,0,0,0-.21-.5,1,1,0,0,0-.41-.33,1.48,1.48,0,0,0-.63-.12,1.62,1.62,0,0,0-.68.14,1.42,1.42,0,0,0-.5.37,1.71,1.71,0,0,0-.32.56,2,2,0,0,0-.12.7v3h-.63Zm9.09,4.2a2.28,2.28,0,0,0-.13-.69,1.73,1.73,0,0,0-.32-.58,1.57,1.57,0,0,0-.51-.41,1.55,1.55,0,0,0-1.37,0,1.57,1.57,0,0,0-.51.41,2.28,2.28,0,0,0-.34.59,3.2,3.2,0,0,0-.16.68ZM89,35.36a2.94,2.94,0,0,0,.09.71,1.86,1.86,0,0,0,.31.65,1.62,1.62,0,0,0,.53.48,1.44,1.44,0,0,0,.77.19A1.53,1.53,0,0,0,91.8,37a1.89,1.89,0,0,0,.54-1H93a2.53,2.53,0,0,1-.74,1.36,2.17,2.17,0,0,1-1.51.48,2.47,2.47,0,0,1-1.06-.21,1.89,1.89,0,0,1-.72-.59,2.51,2.51,0,0,1-.42-.87,4,4,0,0,1-.13-1.05,3.76,3.76,0,0,1,.13-1,2.7,2.7,0,0,1,.42-.87,2.07,2.07,0,0,1,.72-.62,2.21,2.21,0,0,1,1.06-.24,2.19,2.19,0,0,1,1.06.25,2.14,2.14,0,0,1,.71.66,2.79,2.79,0,0,1,.4.93,4.19,4.19,0,0,1,.1,1.06Zm7.61-4.73h.63v7.14h-.63Zm1.84,0h.63v1h-.63Zm0,2h.63v5.16h-.63Zm1.83,0h.63v.89h0a1.5,1.5,0,0,1,.64-.75,1.89,1.89,0,0,1,1-.29,2.58,2.58,0,0,1,.9.14,1.5,1.5,0,0,1,.59.4,1.45,1.45,0,0,1,.31.62,3.58,3.58,0,0,1,.09.83v3.32h-.63V34.55a2.93,2.93,0,0,0-.06-.61,1.33,1.33,0,0,0-.21-.5,1,1,0,0,0-.41-.33,1.48,1.48,0,0,0-.63-.12,1.65,1.65,0,0,0-.68.14,1.52,1.52,0,0,0-.5.37,1.91,1.91,0,0,0-.32.56,2.63,2.63,0,0,0-.12.7v3h-.63Zm9.09,2.22a2.28,2.28,0,0,0-.13-.69,1.73,1.73,0,0,0-.32-.58,1.57,1.57,0,0,0-.51-.41,1.55,1.55,0,0,0-1.37,0,1.57,1.57,0,0,0-.51.41,2.28,2.28,0,0,0-.34.59,3.2,3.2,0,0,0-.16.68Zm-3.34.53a2.94,2.94,0,0,0,.09.71,2.06,2.06,0,0,0,.31.65,1.62,1.62,0,0,0,.53.48,1.44,1.44,0,0,0,.77.19,1.53,1.53,0,0,0,1.08-.36,1.89,1.89,0,0,0,.54-1H110a2.47,2.47,0,0,1-.74,1.36,2.17,2.17,0,0,1-1.51.48,2.47,2.47,0,0,1-1.06-.21,2,2,0,0,1-.72-.59,2.51,2.51,0,0,1-.42-.87,4,4,0,0,1-.13-1.05,3.76,3.76,0,0,1,.13-1,2.7,2.7,0,0,1,.42-.87,2.16,2.16,0,0,1,.72-.62,2.21,2.21,0,0,1,1.06-.24,2.19,2.19,0,0,1,1.06.25,2.14,2.14,0,0,1,.71.66,2.6,2.6,0,0,1,.4.93,4.19,4.19,0,0,1,.1,1.06Zm11.24-1.13a1.81,1.81,0,0,0-.48-.91,1.37,1.37,0,0,0-1-.33,1.68,1.68,0,0,0-.79.19,1.84,1.84,0,0,0-.57.5,2.45,2.45,0,0,0-.34.71,3,3,0,0,0,0,1.61,2.28,2.28,0,0,0,.34.7,1.61,1.61,0,0,0,.57.5,1.57,1.57,0,0,0,.79.19,1.29,1.29,0,0,0,.55-.11,1.41,1.41,0,0,0,.46-.3,1.8,1.8,0,0,0,.33-.47,1.61,1.61,0,0,0,.16-.59H118a2.42,2.42,0,0,1-.69,1.47,2,2,0,0,1-1.44.52,2.49,2.49,0,0,1-1-.21,2.2,2.2,0,0,1-.76-.59,2.47,2.47,0,0,1-.47-.86,3.56,3.56,0,0,1,0-2.11,2.61,2.61,0,0,1,.47-.87,2.47,2.47,0,0,1,.76-.59,2.49,2.49,0,0,1,1-.22,2.25,2.25,0,0,1,1.4.44,1.9,1.9,0,0,1,.69,1.33ZM121,33a1.68,1.68,0,0,0-.79.19,2.1,2.1,0,0,0-.57.5,2.74,2.74,0,0,0-.34.71,3,3,0,0,0,0,1.61,2.53,2.53,0,0,0,.34.7,1.81,1.81,0,0,0,.57.5,1.57,1.57,0,0,0,.79.19,1.54,1.54,0,0,0,.79-.19,1.5,1.5,0,0,0,.56-.5,1.9,1.9,0,0,0,.34-.7,2.76,2.76,0,0,0,0-1.61,2,2,0,0,0-.34-.71,1.7,1.7,0,0,0-.56-.5A1.65,1.65,0,0,0,121,33Zm0-.53a2.41,2.41,0,0,1,1,.22,2.29,2.29,0,0,1,.77.59,2.44,2.44,0,0,1,.47.87,3.56,3.56,0,0,1,0,2.11,2.32,2.32,0,0,1-.47.86,2.06,2.06,0,0,1-.77.59,2.41,2.41,0,0,1-1,.21A2.52,2.52,0,0,1,120,37.7a2.2,2.2,0,0,1-.76-.59,2.64,2.64,0,0,1-.47-.86,3.56,3.56,0,0,1,0-2.11,2.8,2.8,0,0,1,.47-.87,2.47,2.47,0,0,1,.76-.59A2.53,2.53,0,0,1,121,32.46Zm3.39-1.83H125v7.14h-.63Zm4,2.36a1.65,1.65,0,0,0-.79.19,1.84,1.84,0,0,0-.57.5,2.45,2.45,0,0,0-.34.71,3,3,0,0,0,0,1.61,2.28,2.28,0,0,0,.34.7,1.61,1.61,0,0,0,.57.5,1.54,1.54,0,0,0,.79.19,1.57,1.57,0,0,0,.79-.19,1.67,1.67,0,0,0,.56-.5,2.28,2.28,0,0,0,.34-.7,2.76,2.76,0,0,0,0-1.61,2.45,2.45,0,0,0-.34-.71,1.92,1.92,0,0,0-.56-.5A1.68,1.68,0,0,0,128.42,33Zm0-.53a2.45,2.45,0,0,1,1,.22,2.51,2.51,0,0,1,.77.59,2.8,2.8,0,0,1,.47.87,3.56,3.56,0,0,1,0,2.11,2.64,2.64,0,0,1-.47.86,2.23,2.23,0,0,1-.77.59,2.71,2.71,0,0,1-2.09,0,2.11,2.11,0,0,1-.76-.59,2.32,2.32,0,0,1-.47-.86,3.56,3.56,0,0,1,0-2.11,2.44,2.44,0,0,1,.47-.87,2.35,2.35,0,0,1,.76-.59A2.46,2.46,0,0,1,128.42,32.46Zm3.37.15h.58v1.21h0a1.88,1.88,0,0,1,2-1.28v.63a2,2,0,0,0-.78.12,2,2,0,0,0-.61.38,2.07,2.07,0,0,0-.39.6,2,2,0,0,0-.14.75v2.75h-.63ZM138,34.12a1.27,1.27,0,0,0-.12-.5,1.31,1.31,0,0,0-.3-.36,1.17,1.17,0,0,0-.42-.2,1.88,1.88,0,0,0-.94,0,1.32,1.32,0,0,0-.39.15.84.84,0,0,0-.29.27.73.73,0,0,0-.11.42.61.61,0,0,0,.1.36.78.78,0,0,0,.27.24,1.27,1.27,0,0,0,.35.17,2.68,2.68,0,0,0,.35.1l.84.19a2.63,2.63,0,0,1,.53.15,1.8,1.8,0,0,1,.47.27,1.53,1.53,0,0,1,.34.42,1.43,1.43,0,0,1-.06,1.31,1.5,1.5,0,0,1-.49.48,2.12,2.12,0,0,1-.66.26,3.08,3.08,0,0,1-.73.08,2.36,2.36,0,0,1-1.48-.43,1.78,1.78,0,0,1-.64-1.38h.63a1.24,1.24,0,0,0,.46,1,1.67,1.67,0,0,0,1.06.32,1.93,1.93,0,0,0,.47,0,1.5,1.5,0,0,0,.46-.17,1.1,1.1,0,0,0,.34-.3.76.76,0,0,0,.14-.46.74.74,0,0,0-.1-.38.88.88,0,0,0-.25-.26,1.82,1.82,0,0,0-.37-.18l-.41-.12-.81-.18a3.83,3.83,0,0,1-.57-.18,1.84,1.84,0,0,1-.46-.26,1,1,0,0,1-.3-.38,1.19,1.19,0,0,1-.11-.56,1.22,1.22,0,0,1,.17-.67,1.52,1.52,0,0,1,.46-.45,2.3,2.3,0,0,1,.62-.25,3.25,3.25,0,0,1,.69-.08,2.72,2.72,0,0,1,.72.1,1.75,1.75,0,0,1,.59.31,1.6,1.6,0,0,1,.41.52,2,2,0,0,1,.17.73Zm4.45.07a2.24,2.24,0,0,1,.18-.78,1.46,1.46,0,0,1,.44-.54,1.87,1.87,0,0,1,.65-.31,3.35,3.35,0,0,1,.82-.1,4,4,0,0,1,.68.07,1.52,1.52,0,0,1,.6.24,1.22,1.22,0,0,1,.44.51,1.74,1.74,0,0,1,.18.84v2.74c0,.26.12.38.37.38a.45.45,0,0,0,.2,0v.53l-.2,0h-.21a1.16,1.16,0,0,1-.4-.06.57.57,0,0,1-.22-.19.77.77,0,0,1-.1-.28,2.05,2.05,0,0,1,0-.37h0a4.43,4.43,0,0,1-.36.45,1.44,1.44,0,0,1-.38.32,1.59,1.59,0,0,1-.5.2,2.44,2.44,0,0,1-.65.07,2.46,2.46,0,0,1-.67-.09,1.4,1.4,0,0,1-.55-.26,1.36,1.36,0,0,1-.38-.47,1.76,1.76,0,0,1-.12-.68,1.31,1.31,0,0,1,.24-.84,1.58,1.58,0,0,1,.63-.47,3.78,3.78,0,0,1,.88-.22l1-.13.35,0a.63.63,0,0,0,.25-.1.57.57,0,0,0,.15-.21.8.8,0,0,0,.06-.34,1.14,1.14,0,0,0-.11-.52.85.85,0,0,0-.29-.33A1.16,1.16,0,0,0,145,33a2.89,2.89,0,0,0-.53,0,1.57,1.57,0,0,0-1,.29,1.11,1.11,0,0,0-.41.91Zm3.36.76h0a.34.34,0,0,1-.23.16,1.56,1.56,0,0,1-.3.07l-.84.13a5.35,5.35,0,0,0-.76.16,1.67,1.67,0,0,0-.59.32.78.78,0,0,0-.22.58.85.85,0,0,0,.1.43,1,1,0,0,0,.62.52,1.35,1.35,0,0,0,.44.07,2,2,0,0,0,.69-.11,1.68,1.68,0,0,0,1-.83,1.48,1.48,0,0,0,.15-.68Zm1.88-2.34h.58v1.21h0a1.88,1.88,0,0,1,1.95-1.28v.63a1.94,1.94,0,0,0-.78.12,1.91,1.91,0,0,0-.61.38,1.73,1.73,0,0,0-.39.6,2,2,0,0,0-.14.75v2.75h-.63Zm6.69,2.22a2.28,2.28,0,0,0-.13-.69,1.73,1.73,0,0,0-.32-.58,1.57,1.57,0,0,0-.51-.41,1.55,1.55,0,0,0-1.37,0,1.57,1.57,0,0,0-.51.41,2.28,2.28,0,0,0-.34.59,3.2,3.2,0,0,0-.16.68Zm-3.34.53a2.94,2.94,0,0,0,.09.71,2.06,2.06,0,0,0,.31.65,1.62,1.62,0,0,0,.53.48,1.44,1.44,0,0,0,.77.19,1.53,1.53,0,0,0,1.08-.36,1.89,1.89,0,0,0,.54-1H155a2.47,2.47,0,0,1-.74,1.36,2.17,2.17,0,0,1-1.51.48,2.47,2.47,0,0,1-1.06-.21,2,2,0,0,1-.72-.59,2.51,2.51,0,0,1-.42-.87,4,4,0,0,1-.13-1.05,3.76,3.76,0,0,1,.13-1,2.7,2.7,0,0,1,.42-.87,2.16,2.16,0,0,1,.72-.62,2.21,2.21,0,0,1,1.06-.24,2.19,2.19,0,0,1,1.06.25,2.14,2.14,0,0,1,.71.66,2.6,2.6,0,0,1,.4.93,4.19,4.19,0,0,1,.1,1.06ZM80.81,45.12a1.27,1.27,0,0,0-.12-.5,1,1,0,0,0-.3-.36,1.17,1.17,0,0,0-.42-.2,2.09,2.09,0,0,0-.51-.07A2.18,2.18,0,0,0,79,44a1.32,1.32,0,0,0-.39.15.84.84,0,0,0-.29.27.82.82,0,0,0-.11.42.61.61,0,0,0,.1.36.78.78,0,0,0,.27.24,1.42,1.42,0,0,0,.35.17,3.21,3.21,0,0,0,.35.1l.84.19a2.46,2.46,0,0,1,.53.15,1.65,1.65,0,0,1,.47.27,1.53,1.53,0,0,1,.34.42,1.25,1.25,0,0,1,.13.59,1.29,1.29,0,0,1-.19.72,1.5,1.5,0,0,1-.49.48,1.94,1.94,0,0,1-.66.26,3.08,3.08,0,0,1-.73.08,2.36,2.36,0,0,1-1.48-.43,1.81,1.81,0,0,1-.64-1.38h.63a1.27,1.27,0,0,0,.46,1,1.69,1.69,0,0,0,1.06.32,1.93,1.93,0,0,0,.47,0,1.41,1.41,0,0,0,.46-.17,1.1,1.1,0,0,0,.34-.3.76.76,0,0,0,.14-.46.65.65,0,0,0-.1-.38.77.77,0,0,0-.25-.26,1.82,1.82,0,0,0-.37-.18l-.41-.12-.81-.18a3.83,3.83,0,0,1-.57-.18,2,2,0,0,1-.46-.26,1,1,0,0,1-.3-.38,1.33,1.33,0,0,1-.11-.56,1.31,1.31,0,0,1,.17-.67,1.52,1.52,0,0,1,.46-.45,2.44,2.44,0,0,1,.62-.25,3.25,3.25,0,0,1,.69-.08,2.72,2.72,0,0,1,.72.1,1.66,1.66,0,0,1,.59.31,1.6,1.6,0,0,1,.41.52,1.82,1.82,0,0,1,.17.73Zm5.43.71a1.8,1.8,0,0,0-.13-.69,1.71,1.71,0,0,0-.31-.58,1.57,1.57,0,0,0-.51-.41,1.55,1.55,0,0,0-.68-.16,1.49,1.49,0,0,0-.69.16,1.47,1.47,0,0,0-.51.41,2,2,0,0,0-.34.59,2.69,2.69,0,0,0-.16.68Zm-3.33.53a3.51,3.51,0,0,0,.08.71,2.3,2.3,0,0,0,.31.65,1.73,1.73,0,0,0,.53.48,1.48,1.48,0,0,0,.78.19A1.55,1.55,0,0,0,85.69,48a1.89,1.89,0,0,0,.54-1h.63a2.48,2.48,0,0,1-.75,1.36,2.15,2.15,0,0,1-1.5.48,2.47,2.47,0,0,1-1.06-.21,1.82,1.82,0,0,1-.72-.59,2.51,2.51,0,0,1-.42-.87,4,4,0,0,1-.14-1.05,3.77,3.77,0,0,1,.14-1,2.7,2.7,0,0,1,.42-.87,2,2,0,0,1,.72-.62,2.42,2.42,0,0,1,2.12,0,2.14,2.14,0,0,1,.71.66,2.58,2.58,0,0,1,.39.93,3.79,3.79,0,0,1,.11,1.06Zm4.82-4.73h.63v7.14h-.63Zm5.55,4.2a2.28,2.28,0,0,0-.13-.69,1.92,1.92,0,0,0-.32-.58,1.57,1.57,0,0,0-.51-.41,1.55,1.55,0,0,0-1.37,0,1.57,1.57,0,0,0-.51.41,2,2,0,0,0-.34.59,2.69,2.69,0,0,0-.16.68Zm-3.34.53a2.94,2.94,0,0,0,.09.71,1.86,1.86,0,0,0,.31.65,1.53,1.53,0,0,0,.53.48,1.44,1.44,0,0,0,.77.19A1.53,1.53,0,0,0,92.72,48a1.89,1.89,0,0,0,.54-1h.63a2.53,2.53,0,0,1-.74,1.36,2.19,2.19,0,0,1-1.51.48,2.47,2.47,0,0,1-1.06-.21,1.82,1.82,0,0,1-.72-.59,2.51,2.51,0,0,1-.42-.87,4,4,0,0,1-.13-1.05,3.76,3.76,0,0,1,.13-1,2.7,2.7,0,0,1,.42-.87,2,2,0,0,1,.72-.62,2.42,2.42,0,0,1,2.12,0,2.14,2.14,0,0,1,.71.66,2.79,2.79,0,0,1,.4.93,4.19,4.19,0,0,1,.1,1.06Zm8.45-1.13a1.67,1.67,0,0,0-.48-.91,1.37,1.37,0,0,0-1-.33,1.68,1.68,0,0,0-.79.19,2.1,2.1,0,0,0-.57.5,2.74,2.74,0,0,0-.34.71,3,3,0,0,0,0,1.61,2.53,2.53,0,0,0,.34.7,1.81,1.81,0,0,0,.57.5,1.57,1.57,0,0,0,.79.19,1.26,1.26,0,0,0,.55-.11,1.31,1.31,0,0,0,.46-.3,1.43,1.43,0,0,0,.33-.47,1.61,1.61,0,0,0,.16-.59h.63a2.32,2.32,0,0,1-.69,1.47,2,2,0,0,1-1.44.52,2.52,2.52,0,0,1-1.05-.21,2.2,2.2,0,0,1-.76-.59,2.64,2.64,0,0,1-.47-.86,3.56,3.56,0,0,1,0-2.11,2.8,2.8,0,0,1,.47-.87,2.47,2.47,0,0,1,.76-.59,2.53,2.53,0,0,1,1.05-.22,2.23,2.23,0,0,1,1.4.44A1.87,1.87,0,0,1,99,45.23Zm2.55-1.62h1v.53h-1v3.48a1.11,1.11,0,0,0,.08.49c.06.12.2.18.43.19l.54,0v.53h-.56a1.25,1.25,0,0,1-.88-.24,1.21,1.21,0,0,1-.24-.91V44.14h-.9v-.53h.9V42.06h.63Zm5,1.51a1.27,1.27,0,0,0-.12-.5,1.31,1.31,0,0,0-.3-.36,1.17,1.17,0,0,0-.42-.2,1.88,1.88,0,0,0-.94,0,1.32,1.32,0,0,0-.39.15.84.84,0,0,0-.29.27.73.73,0,0,0-.11.42.61.61,0,0,0,.1.36.78.78,0,0,0,.27.24,1.27,1.27,0,0,0,.35.17,2.68,2.68,0,0,0,.35.1l.84.19a2.63,2.63,0,0,1,.53.15,1.8,1.8,0,0,1,.47.27,1.53,1.53,0,0,1,.34.42,1.43,1.43,0,0,1-.06,1.31,1.5,1.5,0,0,1-.49.48,2.12,2.12,0,0,1-.66.26,3.08,3.08,0,0,1-.73.08,2.36,2.36,0,0,1-1.48-.43,1.78,1.78,0,0,1-.64-1.38h.63a1.24,1.24,0,0,0,.46,1,1.67,1.67,0,0,0,1.06.32,1.93,1.93,0,0,0,.47,0,1.5,1.5,0,0,0,.46-.17,1.1,1.1,0,0,0,.34-.3.76.76,0,0,0,.14-.46.74.74,0,0,0-.1-.38.88.88,0,0,0-.25-.26,1.82,1.82,0,0,0-.37-.18l-.41-.12-.81-.18a3.83,3.83,0,0,1-.57-.18,1.84,1.84,0,0,1-.46-.26,1,1,0,0,1-.3-.38,1.19,1.19,0,0,1-.11-.56,1.22,1.22,0,0,1,.17-.67,1.52,1.52,0,0,1,.46-.45,2.3,2.3,0,0,1,.62-.25,3.25,3.25,0,0,1,.69-.08,2.72,2.72,0,0,1,.72.1,1.75,1.75,0,0,1,.59.31,1.6,1.6,0,0,1,.41.52,2,2,0,0,1,.17.73Zm6.49-1h-1v4.63h-.63V44.14H110v-.53h.88v-.47a3.86,3.86,0,0,1,0-.61,1.46,1.46,0,0,1,.19-.48,1.06,1.06,0,0,1,.38-.31,1.65,1.65,0,0,1,.63-.11h.26l.27,0v.54l-.24,0-.22,0a.89.89,0,0,0-.4.08.63.63,0,0,0-.21.22.94.94,0,0,0-.07.31c0,.12,0,.25,0,.39v.45h1Zm.6-.53h.58v1.21h0a1.88,1.88,0,0,1,1.95-1.28v.63a2,2,0,0,0-.78.12,2,2,0,0,0-.61.38,2.07,2.07,0,0,0-.39.6,2,2,0,0,0-.14.75v2.75h-.63Zm5.16.38a1.68,1.68,0,0,0-.79.19,1.84,1.84,0,0,0-.57.5,2.45,2.45,0,0,0-.34.71,3,3,0,0,0,0,1.61,2.28,2.28,0,0,0,.34.7,1.61,1.61,0,0,0,.57.5,1.74,1.74,0,0,0,1.58,0,1.58,1.58,0,0,0,.56-.5,2.07,2.07,0,0,0,.34-.7,2.76,2.76,0,0,0,0-1.61,2.22,2.22,0,0,0-.34-.71,1.8,1.8,0,0,0-.56-.5A1.68,1.68,0,0,0,118.24,44Zm0-.53a2.45,2.45,0,0,1,1,.22,2.4,2.4,0,0,1,.77.59,2.61,2.61,0,0,1,.47.87,3.56,3.56,0,0,1,0,2.11,2.47,2.47,0,0,1-.47.86,2.15,2.15,0,0,1-.77.59,2.44,2.44,0,0,1-1,.21,2.52,2.52,0,0,1-1-.21,2.2,2.2,0,0,1-.76-.59,2.47,2.47,0,0,1-.47-.86,3.56,3.56,0,0,1,0-2.11,2.61,2.61,0,0,1,.47-.87,2.47,2.47,0,0,1,.76-.59A2.53,2.53,0,0,1,118.24,43.46Zm3.38.15h.58v.87h0a1.91,1.91,0,0,1,.65-.75,1.85,1.85,0,0,1,1-.27,1.81,1.81,0,0,1,.92.25,1.25,1.25,0,0,1,.56.76,1.58,1.58,0,0,1,.68-.76,2,2,0,0,1,1-.25c1.14,0,1.71.61,1.71,1.81v3.5h-.63V45.3a1.51,1.51,0,0,0-.27-1,1.18,1.18,0,0,0-.95-.34,1.37,1.37,0,0,0-.68.16,1.13,1.13,0,0,0-.43.41,1.74,1.74,0,0,0-.23.6,3.85,3.85,0,0,0-.06.69v2.92h-.63v-3.5a2,2,0,0,0-.06-.49,1.28,1.28,0,0,0-.18-.41.83.83,0,0,0-.33-.28,1.29,1.29,0,0,0-.51-.1,1.54,1.54,0,0,0-.7.15,1.26,1.26,0,0,0-.48.4,1.83,1.83,0,0,0-.27.6,3,3,0,0,0-.09.75v2.88h-.63Zm12.11,0h1.05v.53h-1.05v3.48a1.28,1.28,0,0,0,.08.49c.06.12.2.18.43.19l.54,0v.53h-.56a1.27,1.27,0,0,1-.88-.24,1.21,1.21,0,0,1-.24-.91V44.14h-.9v-.53h.9V42.06h.63Zm2-2h.63V44.5h0a1.5,1.5,0,0,1,.64-.75,1.89,1.89,0,0,1,1-.29,2.58,2.58,0,0,1,.9.14,1.5,1.5,0,0,1,.59.4,1.45,1.45,0,0,1,.31.62,3.58,3.58,0,0,1,.09.83v3.32h-.63V45.55a2.93,2.93,0,0,0-.06-.61,1.33,1.33,0,0,0-.21-.5,1,1,0,0,0-.41-.33,1.48,1.48,0,0,0-.63-.12,1.65,1.65,0,0,0-.68.14,1.52,1.52,0,0,0-.5.37,1.91,1.91,0,0,0-.32.56,2.63,2.63,0,0,0-.12.7v3h-.63Zm9.09,4.2a2.28,2.28,0,0,0-.13-.69,1.73,1.73,0,0,0-.32-.58,1.57,1.57,0,0,0-.51-.41,1.55,1.55,0,0,0-1.37,0,1.57,1.57,0,0,0-.51.41,2.28,2.28,0,0,0-.34.59,3.2,3.2,0,0,0-.16.68Zm-3.34.53a2.94,2.94,0,0,0,.09.71,2.06,2.06,0,0,0,.31.65,1.62,1.62,0,0,0,.53.48,1.44,1.44,0,0,0,.77.19,1.53,1.53,0,0,0,1.08-.36,1.89,1.89,0,0,0,.54-1h.63a2.47,2.47,0,0,1-.74,1.36,2.17,2.17,0,0,1-1.51.48,2.47,2.47,0,0,1-1.06-.21,2,2,0,0,1-.72-.59,2.51,2.51,0,0,1-.42-.87,4,4,0,0,1-.13-1.05,3.76,3.76,0,0,1,.13-1,2.7,2.7,0,0,1,.42-.87,2.16,2.16,0,0,1,.72-.62,2.21,2.21,0,0,1,1.06-.24,2.19,2.19,0,0,1,1.06.25,2.14,2.14,0,0,1,.71.66,2.6,2.6,0,0,1,.4.93,4.19,4.19,0,0,1,.1,1.06Zm11.24-1.13a1.81,1.81,0,0,0-.48-.91,1.37,1.37,0,0,0-1-.33,1.68,1.68,0,0,0-.79.19,1.84,1.84,0,0,0-.57.5,2.45,2.45,0,0,0-.34.71,3,3,0,0,0,0,1.61,2.28,2.28,0,0,0,.34.7,1.61,1.61,0,0,0,.57.5,1.57,1.57,0,0,0,.79.19,1.29,1.29,0,0,0,.55-.11,1.41,1.41,0,0,0,.46-.3,1.8,1.8,0,0,0,.33-.47,1.61,1.61,0,0,0,.16-.59h.63a2.42,2.42,0,0,1-.69,1.47,2,2,0,0,1-1.44.52,2.52,2.52,0,0,1-1.05-.21,2.2,2.2,0,0,1-.76-.59,2.47,2.47,0,0,1-.47-.86,3.56,3.56,0,0,1,0-2.11,2.61,2.61,0,0,1,.47-.87,2.47,2.47,0,0,1,.76-.59,2.53,2.53,0,0,1,1.05-.22,2.25,2.25,0,0,1,1.4.44,1.87,1.87,0,0,1,.69,1.33Zm1.56-3.6h.63v1h-.63Zm0,2h.63v5.16h-.63Zm2.83,0h1.05v.53h-1.05v3.48a1.28,1.28,0,0,0,.08.49c.06.12.2.18.43.19l.54,0v.53h-.56a1.27,1.27,0,0,1-.88-.24,1.21,1.21,0,0,1-.24-.91V44.14h-.9v-.53h.9V42.06h.63Zm1.38,0h.67l1.7,4.4,1.59-4.4H163l-2.24,5.94a4.62,4.62,0,0,1-.26.54,1.07,1.07,0,0,1-.27.34.7.7,0,0,1-.34.18,1.68,1.68,0,0,1-.49.06l-.3,0a.48.48,0,0,1-.18,0v-.53l.21,0a1.07,1.07,0,0,0,.56,0,.66.66,0,0,0,.24-.17.79.79,0,0,0,.17-.25q.08-.15.15-.33l.22-.58Zm6.44-2V42.7a1.61,1.61,0,0,1-.06.44,1.4,1.4,0,0,1-.16.4,1.43,1.43,0,0,1-.28.32.91.91,0,0,1-.39.2v-.43a.4.4,0,0,0,.22-.14.87.87,0,0,0,.15-.25,1.29,1.29,0,0,0,.08-.28,1.32,1.32,0,0,0,0-.27H164V41.63Zm3.53,3.49a1.27,1.27,0,0,0-.12-.5,1.31,1.31,0,0,0-.3-.36,1.17,1.17,0,0,0-.42-.2,1.88,1.88,0,0,0-.94,0,1.32,1.32,0,0,0-.39.15.84.84,0,0,0-.29.27.82.82,0,0,0-.11.42.61.61,0,0,0,.1.36.78.78,0,0,0,.27.24,1.42,1.42,0,0,0,.35.17,3.21,3.21,0,0,0,.35.1l.84.19a2.46,2.46,0,0,1,.53.15,1.8,1.8,0,0,1,.47.27,1.53,1.53,0,0,1,.34.42,1.38,1.38,0,0,1,.13.59,1.29,1.29,0,0,1-.19.72,1.5,1.5,0,0,1-.49.48,1.94,1.94,0,0,1-.66.26,3.08,3.08,0,0,1-.73.08,2.36,2.36,0,0,1-1.48-.43A1.81,1.81,0,0,1,165,47.1h.63a1.27,1.27,0,0,0,.46,1,1.69,1.69,0,0,0,1.06.32,1.93,1.93,0,0,0,.47,0,1.41,1.41,0,0,0,.46-.17,1.1,1.1,0,0,0,.34-.3.76.76,0,0,0,.14-.46.74.74,0,0,0-.1-.38.77.77,0,0,0-.25-.26,1.82,1.82,0,0,0-.37-.18l-.41-.12-.81-.18a3.83,3.83,0,0,1-.57-.18,2,2,0,0,1-.46-.26,1,1,0,0,1-.3-.38,1.19,1.19,0,0,1-.11-.56,1.31,1.31,0,0,1,.17-.67,1.52,1.52,0,0,1,.46-.45,2.3,2.3,0,0,1,.62-.25,3.25,3.25,0,0,1,.69-.08,2.72,2.72,0,0,1,.72.1,1.66,1.66,0,0,1,.59.31,1.6,1.6,0,0,1,.41.52,2,2,0,0,1,.17.73ZM79.9,55a1.68,1.68,0,0,0-.79.19,1.84,1.84,0,0,0-.57.5,2.45,2.45,0,0,0-.34.71,3,3,0,0,0,0,1.61,2.28,2.28,0,0,0,.34.7,1.61,1.61,0,0,0,.57.5,1.74,1.74,0,0,0,1.58,0,1.58,1.58,0,0,0,.56-.5,2.07,2.07,0,0,0,.34-.7,2.76,2.76,0,0,0,0-1.61,2.22,2.22,0,0,0-.34-.71,1.8,1.8,0,0,0-.56-.5A1.68,1.68,0,0,0,79.9,55Zm0-.53a2.45,2.45,0,0,1,1,.22,2.4,2.4,0,0,1,.77.59,2.61,2.61,0,0,1,.47.87,3.56,3.56,0,0,1,0,2.11,2.47,2.47,0,0,1-.47.86,2.15,2.15,0,0,1-.77.59,2.44,2.44,0,0,1-1,.21,2.52,2.52,0,0,1-1.05-.21,2.2,2.2,0,0,1-.76-.59,2.47,2.47,0,0,1-.47-.86,3.56,3.56,0,0,1,0-2.11,2.61,2.61,0,0,1,.47-.87,2.47,2.47,0,0,1,.76-.59A2.53,2.53,0,0,1,79.9,54.46Zm2.86.15h.67L84.75,59h0L86,54.61h.71L88,59h0l1.32-4.42H90l-1.66,5.16h-.69l-1.27-4.34h0l-1.26,4.34h-.69Zm7.92,0h.63v.89h0a1.5,1.5,0,0,1,.64-.75,1.89,1.89,0,0,1,1-.29,2.58,2.58,0,0,1,.9.14,1.5,1.5,0,0,1,.59.4,1.45,1.45,0,0,1,.31.62,3.58,3.58,0,0,1,.09.83v3.32h-.63V56.55a2.93,2.93,0,0,0-.06-.61,1.33,1.33,0,0,0-.21-.5,1,1,0,0,0-.41-.33,1.48,1.48,0,0,0-.63-.12,1.65,1.65,0,0,0-.68.14,1.52,1.52,0,0,0-.5.37,1.91,1.91,0,0,0-.32.56,2.63,2.63,0,0,0-.12.7v3h-.63Zm8.16,0h.58v.87h0a2.08,2.08,0,0,1,.65-.75,1.87,1.87,0,0,1,1-.27,1.79,1.79,0,0,1,.92.25,1.22,1.22,0,0,1,.56.76,1.63,1.63,0,0,1,.68-.76,2,2,0,0,1,1-.25c1.14,0,1.71.61,1.71,1.81v3.5h-.63V56.3a1.51,1.51,0,0,0-.27-1,1.16,1.16,0,0,0-.95-.34,1.39,1.39,0,0,0-.68.16,1.21,1.21,0,0,0-.43.41,2.27,2.27,0,0,0-.23.6,3.85,3.85,0,0,0-.06.69v2.92h-.63v-3.5a2,2,0,0,0-.06-.49,1,1,0,0,0-.18-.41.83.83,0,0,0-.33-.28A1.29,1.29,0,0,0,101,55a1.57,1.57,0,0,0-.7.15,1.43,1.43,0,0,0-.48.4,1.83,1.83,0,0,0-.27.6,3,3,0,0,0-.09.75v2.88h-.63Zm12,2.22a2,2,0,0,0-.13-.69,1.73,1.73,0,0,0-.32-.58,1.57,1.57,0,0,0-.51-.41,1.48,1.48,0,0,0-.68-.16,1.53,1.53,0,0,0-.69.16,1.57,1.57,0,0,0-.51.41,2.28,2.28,0,0,0-.34.59,3.2,3.2,0,0,0-.16.68Zm-3.34.53a2.94,2.94,0,0,0,.09.71,2.06,2.06,0,0,0,.31.65,1.62,1.62,0,0,0,.53.48,1.47,1.47,0,0,0,.77.19,1.53,1.53,0,0,0,1.08-.36,1.89,1.89,0,0,0,.54-1h.63a2.47,2.47,0,0,1-.74,1.36,2.16,2.16,0,0,1-1.51.48,2.51,2.51,0,0,1-1.06-.21,2,2,0,0,1-.72-.59,2.93,2.93,0,0,1-.42-.87,4.44,4.44,0,0,1-.13-1.05,4.22,4.22,0,0,1,.13-1,3.19,3.19,0,0,1,.42-.87,2.16,2.16,0,0,1,.72-.62,2.24,2.24,0,0,1,1.06-.24,2.16,2.16,0,0,1,1.06.25,2.05,2.05,0,0,1,.71.66,2.6,2.6,0,0,1,.4.93,3.78,3.78,0,0,1,.1,1.06Zm5.82-2.75h1v.53h-1v3.48a1.28,1.28,0,0,0,.08.49c.06.12.2.18.43.19l.54,0v.53h-.56a1.27,1.27,0,0,1-.88-.24,1.21,1.21,0,0,1-.24-.91V55.14h-.9v-.53h.9V53.06h.63Zm2,0h.58v1.21h0a1.88,1.88,0,0,1,2-1.28v.63a1.94,1.94,0,0,0-.78.12,1.91,1.91,0,0,0-.61.38,1.73,1.73,0,0,0-.39.6A1.86,1.86,0,0,0,116,57v2.75h-.63Zm5.16.38a1.65,1.65,0,0,0-.79.19,1.84,1.84,0,0,0-.57.5,2.45,2.45,0,0,0-.34.71,3,3,0,0,0,0,1.61,2.28,2.28,0,0,0,.34.7,1.61,1.61,0,0,0,.57.5,1.54,1.54,0,0,0,.79.19,1.57,1.57,0,0,0,.79-.19,1.67,1.67,0,0,0,.56-.5,2.28,2.28,0,0,0,.34-.7,2.76,2.76,0,0,0,0-1.61,2.45,2.45,0,0,0-.34-.71,1.92,1.92,0,0,0-.56-.5A1.68,1.68,0,0,0,120.48,55Zm0-.53a2.45,2.45,0,0,1,1,.22,2.51,2.51,0,0,1,.77.59,2.8,2.8,0,0,1,.47.87,3.56,3.56,0,0,1,0,2.11,2.64,2.64,0,0,1-.47.86,2.23,2.23,0,0,1-.77.59,2.71,2.71,0,0,1-2.09,0,2.11,2.11,0,0,1-.76-.59,2.32,2.32,0,0,1-.47-.86,3.56,3.56,0,0,1,0-2.11,2.44,2.44,0,0,1,.47-.87,2.35,2.35,0,0,1,.76-.59A2.46,2.46,0,0,1,120.48,54.46Zm6.16.15h.58v.87h0a1.91,1.91,0,0,1,.65-.75,1.85,1.85,0,0,1,1-.27,1.81,1.81,0,0,1,.92.25,1.25,1.25,0,0,1,.56.76,1.58,1.58,0,0,1,.68-.76,2,2,0,0,1,1-.25c1.14,0,1.71.61,1.71,1.81v3.5h-.63V56.3a1.51,1.51,0,0,0-.27-1,1.18,1.18,0,0,0-1-.34,1.37,1.37,0,0,0-.68.16,1.13,1.13,0,0,0-.43.41,1.74,1.74,0,0,0-.23.6,3.85,3.85,0,0,0-.06.69v2.92h-.63v-3.5a2,2,0,0,0-.06-.49,1.28,1.28,0,0,0-.18-.41.83.83,0,0,0-.33-.28,1.29,1.29,0,0,0-.51-.1,1.54,1.54,0,0,0-.7.15,1.26,1.26,0,0,0-.48.4,1.83,1.83,0,0,0-.27.6,3,3,0,0,0-.09.75v2.88h-.63Zm8.27,1.58a2,2,0,0,1,.19-.78,1.43,1.43,0,0,1,.43-.54,1.87,1.87,0,0,1,.65-.31,3.41,3.41,0,0,1,.82-.1,4,4,0,0,1,.68.07,1.62,1.62,0,0,1,.61.24,1.38,1.38,0,0,1,.44.51,1.87,1.87,0,0,1,.17.84v2.74c0,.26.12.38.37.38a.45.45,0,0,0,.2,0v.53l-.2,0h-.21a1.07,1.07,0,0,1-.39-.06.46.46,0,0,1-.22-.19.63.63,0,0,1-.11-.28,2.12,2.12,0,0,1,0-.37h0a4.41,4.41,0,0,1-.35.45,1.66,1.66,0,0,1-.39.32,1.53,1.53,0,0,1-.49.2,2.81,2.81,0,0,1-1.33,0,1.47,1.47,0,0,1-.55-.26,1.23,1.23,0,0,1-.37-.47,1.59,1.59,0,0,1-.13-.68,1.31,1.31,0,0,1,.24-.84,1.58,1.58,0,0,1,.63-.47,3.74,3.74,0,0,1,.89-.22l1-.13.35,0a.63.63,0,0,0,.25-.1.57.57,0,0,0,.15-.21.8.8,0,0,0,.06-.34,1.14,1.14,0,0,0-.11-.52.85.85,0,0,0-.29-.33,1.16,1.16,0,0,0-.43-.16,2.87,2.87,0,0,0-.52,0,1.58,1.58,0,0,0-1,.29,1.08,1.08,0,0,0-.4.91Zm3.36.76h0a.34.34,0,0,1-.23.16,1.56,1.56,0,0,1-.3.07l-.83.13a5.21,5.21,0,0,0-.77.16,1.54,1.54,0,0,0-.58.32.75.75,0,0,0-.22.58,1,1,0,0,0,.09.43,1,1,0,0,0,.26.32,1,1,0,0,0,.37.2,1.25,1.25,0,0,0,.43.07,2,2,0,0,0,.69-.11,1.59,1.59,0,0,0,.57-.32,1.65,1.65,0,0,0,.39-.51,1.48,1.48,0,0,0,.15-.68Zm1.88-2.34h.58v1h0a1.75,1.75,0,0,1,.71-.83,2.17,2.17,0,0,1,1.13-.3,2.26,2.26,0,0,1,1,.22,2.05,2.05,0,0,1,.73.6,2.37,2.37,0,0,1,.43.87,4,4,0,0,1,0,2.09,2.37,2.37,0,0,1-.43.87,1.93,1.93,0,0,1-.73.59,2.26,2.26,0,0,1-1,.21,2.2,2.2,0,0,1-.56-.07,1.67,1.67,0,0,1-.52-.21,1.79,1.79,0,0,1-.43-.35,1.57,1.57,0,0,1-.28-.49h0v2.88h-.63Zm4.13,2.58a3.06,3.06,0,0,0-.1-.79,2.14,2.14,0,0,0-.3-.71,1.56,1.56,0,0,0-.52-.5,1.45,1.45,0,0,0-.77-.2,1.93,1.93,0,0,0-.87.18,1.54,1.54,0,0,0-.56.48,2,2,0,0,0-.3.7,4.6,4.6,0,0,0-.08.84,3.57,3.57,0,0,0,.09.8,2.23,2.23,0,0,0,.31.7,1.82,1.82,0,0,0,.56.51,1.75,1.75,0,0,0,.85.19,1.44,1.44,0,0,0,.77-.19,1.49,1.49,0,0,0,.52-.51,2,2,0,0,0,.3-.7A3.08,3.08,0,0,0,144.28,57.19Z"/><path class="cls-13" d="M9.62,26.27h56v56h-56Z"/></g></g></svg>