<svg xmlns="http://www.w3.org/2000/svg" xmlns:xlink="http://www.w3.org/1999/xlink" viewBox="0 0 188.52 106.27"><defs><style>.cls-1{fill:#d9d9d9;}.cls-2{mask:url(#mask);}.cls-3,.cls-4,.cls-5,.cls-7,.cls-8{fill:none;stroke:#fff;}.cls-3,.cls-4,.cls-5,.cls-8{stroke-opacity:0.9;}.cls-3{stroke-width:2px;}.cls-3,.cls-4,.cls-5{opacity:0.9;isolation:isolate;}.cls-4{stroke-width:4px;}.cls-5{stroke-width:7px;}.cls-6{fill:#fff;}.cls-7,.cls-8{stroke-width:0.5px;}</style><mask id="mask" x="0" y="17.57" width="83.32" height="88.69" maskUnits="userSpaceOnUse"><g id="mask1_2961_284" data-name="mask1 2961 284"><rect class="cls-1" x="13.92" y="27.57" width="56" height="56"/></g></mask></defs><g id="图层_2" data-name="图层 2"><g id="图层_1-2" data-name="图层 1"><g class="cls-2"><path class="cls-3" d="M44.23,106.26l.39-88.68"/><circle class="cls-4" cx="42.92" cy="56.57" r="14"/><path class="cls-5" d="M1.92,83.57l33.5-22,46.5,20.21"/></g><path class="cls-6" d="M14.75,0h1.88V7h4.18V8.57H14.75Zm8.68,1.4h-1.7V0h1.7Zm-1.7,1h1.7V8.57h-1.7Zm3.05,0H26.4v.87h0a2,2,0,0,1,.84-.78,2.39,2.39,0,0,1,1.06-.25,2.7,2.7,0,0,1,1.11.19,1.62,1.62,0,0,1,.7.51,2,2,0,0,1,.35.81,4.74,4.74,0,0,1,.11,1V8.57H28.89V5.06a2.15,2.15,0,0,0-.24-1.14.93.93,0,0,0-.85-.38,1.18,1.18,0,0,0-1,.42,2.25,2.25,0,0,0-.31,1.36V8.57h-1.7ZM36.07,4.8a1.9,1.9,0,0,0-.44-1,1.14,1.14,0,0,0-.92-.34,1.52,1.52,0,0,0-.68.14,1.37,1.37,0,0,0-.44.34,1.35,1.35,0,0,0-.22.43,2.45,2.45,0,0,0-.08.41ZM33.29,5.88a1.79,1.79,0,0,0,.42,1.2,1.79,1.79,0,0,0,2,.12,1.11,1.11,0,0,0,.45-.55h1.5a2.87,2.87,0,0,1-1.1,1.59,3.27,3.27,0,0,1-1.8.48,3.66,3.66,0,0,1-1.32-.22,2.82,2.82,0,0,1-1-.68,3,3,0,0,1-.63-1,3.73,3.73,0,0,1-.22-1.32,3.65,3.65,0,0,1,.23-1.29,3,3,0,0,1,.65-1,3.15,3.15,0,0,1,1-.69,3.24,3.24,0,0,1,1.3-.25,2.87,2.87,0,0,1,1.38.31,2.7,2.7,0,0,1,1,.81,3.46,3.46,0,0,1,.55,1.18,4.5,4.5,0,0,1,.12,1.38ZM42.3,0h1.88V7h4.18V8.57H42.3Zm6.86,4.27a2.07,2.07,0,0,1,.3-1,2,2,0,0,1,.67-.64,3.07,3.07,0,0,1,.92-.34,5.07,5.07,0,0,1,1-.1,6.16,6.16,0,0,1,1,.07,2.67,2.67,0,0,1,.87.25,1.72,1.72,0,0,1,.65.54,1.44,1.44,0,0,1,.25.9V7.19a6.73,6.73,0,0,0,.05.8,1.43,1.43,0,0,0,.17.58H53.29c0-.1-.06-.19-.08-.29s0-.21,0-.31a2.28,2.28,0,0,1-1,.59,3.91,3.91,0,0,1-1.13.16,3.2,3.2,0,0,1-.83-.1,2.12,2.12,0,0,1-.67-.34,1.54,1.54,0,0,1-.45-.58A1.88,1.88,0,0,1,49,6.88,1.84,1.84,0,0,1,49.15,6a1.72,1.72,0,0,1,.48-.55,1.94,1.94,0,0,1,.67-.3A7.08,7.08,0,0,1,51.07,5l.76-.09a5.67,5.67,0,0,0,.66-.11,1.18,1.18,0,0,0,.45-.21.46.46,0,0,0,.16-.4.8.8,0,0,0-.1-.44.53.53,0,0,0-.24-.25.85.85,0,0,0-.35-.12,2.58,2.58,0,0,0-.42,0,1.32,1.32,0,0,0-.79.21,1,1,0,0,0-.33.72ZM53.1,5.53a.76.76,0,0,1-.28.16l-.35.08a2.16,2.16,0,0,1-.38.06l-.41.06L51.3,6a1,1,0,0,0-.33.17.65.65,0,0,0-.21.25.75.75,0,0,0-.09.39.78.78,0,0,0,.09.39.61.61,0,0,0,.23.25.81.81,0,0,0,.33.12,2.58,2.58,0,0,0,.4,0,1.56,1.56,0,0,0,.78-.17,1.21,1.21,0,0,0,.41-.4,1.27,1.27,0,0,0,.15-.48,2.12,2.12,0,0,0,0-.38Zm6.08,3.81a2.15,2.15,0,0,1-.76,1.08,2.55,2.55,0,0,1-1.37.32l-.53,0-.52,0V9.28l.5,0a4.1,4.1,0,0,0,.5,0,.67.67,0,0,0,.49-.27.84.84,0,0,0,.17-.5,1,1,0,0,0-.07-.39L55.42,2.36h1.81l1.4,4.25h0L60,2.36h1.77Zm4.68-3.87a3.54,3.54,0,0,0,.07.73,2.12,2.12,0,0,0,.24.64,1.41,1.41,0,0,0,.47.44,1.43,1.43,0,0,0,1.91-.44,1.9,1.9,0,0,0,.25-.64,3.54,3.54,0,0,0,.07-.73,3.54,3.54,0,0,0-.07-.73,1.9,1.9,0,0,0-.25-.64,1.48,1.48,0,0,0-1.91-.44,1.41,1.41,0,0,0-.47.44,2.12,2.12,0,0,0-.24.64A3.54,3.54,0,0,0,63.86,5.47Zm-1.71,0a3.8,3.8,0,0,1,.23-1.34A2.85,2.85,0,0,1,64,2.44a3.75,3.75,0,0,1,2.64,0,2.73,2.73,0,0,1,1,.66,2.92,2.92,0,0,1,.65,1,3.81,3.81,0,0,1,.22,1.34,3.82,3.82,0,0,1-.22,1.35,3.12,3.12,0,0,1-.65,1,3,3,0,0,1-1,.65A4.07,4.07,0,0,1,64,8.5a3,3,0,0,1-1-.65,3,3,0,0,1-.65-1A3.82,3.82,0,0,1,62.15,5.47ZM75.5,8.57H73.88V7.7h0a2,2,0,0,1-.84.78A2.52,2.52,0,0,1,72,8.72a3,3,0,0,1-1.13-.18,1.59,1.59,0,0,1-.68-.5,2,2,0,0,1-.36-.8,5,5,0,0,1-.1-1.06V2.36h1.71V5.87A2.21,2.21,0,0,0,71.63,7a.92.92,0,0,0,.85.37,1.18,1.18,0,0,0,1-.41,2.37,2.37,0,0,0,.31-1.36V2.36h1.7ZM79,2.36H80.2V3.5H79V6.58a.8.8,0,0,0,.14.57.82.82,0,0,0,.58.15l.27,0a1.9,1.9,0,0,0,.25,0V8.57l-.48,0h-.51a4.59,4.59,0,0,1-.76-.06,1.57,1.57,0,0,1-.62-.21,1.05,1.05,0,0,1-.42-.44,1.51,1.51,0,0,1-.16-.76V3.5h-1V2.36h1V.5H79Z"/><path class="cls-6" d="M108.64,29.43h.68V36h4v.58h-4.68Zm5.26,0h.63v1h-.63Zm0,2h.63v5.16h-.63Zm1.83,0h.63v.89h0a1.42,1.42,0,0,1,.64-.75,1.78,1.78,0,0,1,1-.29,2.36,2.36,0,0,1,.9.14,1.38,1.38,0,0,1,.59.4,1.45,1.45,0,0,1,.31.62,3.46,3.46,0,0,1,.09.83v3.32h-.63V33.35a2.87,2.87,0,0,0-.06-.61,1.26,1.26,0,0,0-.21-.5,1,1,0,0,0-.41-.33,1.72,1.72,0,0,0-1.31,0,1.31,1.31,0,0,0-.5.37,1.61,1.61,0,0,0-.32.56,1.94,1.94,0,0,0-.12.7v3h-.63Zm9.09,2.22a2.28,2.28,0,0,0-.13-.69,1.64,1.64,0,0,0-.32-.58,1.45,1.45,0,0,0-.51-.41,1.55,1.55,0,0,0-1.37,0,1.45,1.45,0,0,0-.51.41,2,2,0,0,0-.34.59,3.06,3.06,0,0,0-.16.68Zm-3.34.53a3.07,3.07,0,0,0,.09.71,2.17,2.17,0,0,0,.31.65,1.88,1.88,0,0,0,.53.48,1.74,1.74,0,0,0,1.85-.17,1.89,1.89,0,0,0,.54-1h.63a2.5,2.5,0,0,1-.74,1.36,2.17,2.17,0,0,1-1.51.48,2.47,2.47,0,0,1-1.06-.21,2.2,2.2,0,0,1-.72-.59A2.7,2.7,0,0,1,121,35a4.08,4.08,0,0,1-.13-1,3.71,3.71,0,0,1,.13-1,2.51,2.51,0,0,1,.42-.87,2.05,2.05,0,0,1,.72-.62,2.21,2.21,0,0,1,1.06-.24,2.08,2.08,0,0,1,1.06.25,2,2,0,0,1,.71.66,2.45,2.45,0,0,1,.4.93,4.15,4.15,0,0,1,.1,1.06ZM126.23,33a2.23,2.23,0,0,1,.19-.78,1.54,1.54,0,0,1,.43-.54,1.86,1.86,0,0,1,.65-.31,3,3,0,0,1,.82-.1,3.08,3.08,0,0,1,.68.07,1.56,1.56,0,0,1,.61.24,1.3,1.3,0,0,1,.44.51,1.7,1.7,0,0,1,.17.84v2.74a.34.34,0,0,0,.37.38.59.59,0,0,0,.2,0v.53l-.2,0h-.21a1.07,1.07,0,0,1-.39-.06.67.67,0,0,1-.22-.19.86.86,0,0,1-.11-.28c0-.12,0-.24,0-.37h0a5.37,5.37,0,0,1-.35.45,1.76,1.76,0,0,1-.39.32,2,2,0,0,1-.49.2,2.93,2.93,0,0,1-.65.07,2.54,2.54,0,0,1-.68-.09,1.74,1.74,0,0,1-.55-.26,1.71,1.71,0,0,1-.37-.47,1.79,1.79,0,0,1-.13-.68,1.31,1.31,0,0,1,.24-.84,1.42,1.42,0,0,1,.63-.47,3.52,3.52,0,0,1,.89-.22l1-.13.35,0a.72.72,0,0,0,.25-.1.51.51,0,0,0,.15-.21.83.83,0,0,0,.06-.34,1,1,0,0,0-.11-.52.72.72,0,0,0-.29-.33,1,1,0,0,0-.43-.16,2.14,2.14,0,0,0-.52-.05,1.54,1.54,0,0,0-1,.29,1.12,1.12,0,0,0-.4.91Zm3.36.76h0a.38.38,0,0,1-.23.16L129,34l-.83.13a3.62,3.62,0,0,0-.77.16,1.55,1.55,0,0,0-.58.32.75.75,0,0,0-.22.58,1,1,0,0,0,.09.43,1.59,1.59,0,0,0,.26.32,1.46,1.46,0,0,0,.37.2,1.61,1.61,0,0,0,.43.07,2.26,2.26,0,0,0,.69-.11,1.76,1.76,0,0,0,.57-.32,1.39,1.39,0,0,0,.39-.51,1.51,1.51,0,0,0,.15-.68Zm1.89-2.34h.58v1.21h0a2,2,0,0,1,.74-1,1.94,1.94,0,0,1,1.21-.31V32a1.65,1.65,0,0,0-.78.12,1.61,1.61,0,0,0-.61.38,1.56,1.56,0,0,0-.39.6,2,2,0,0,0-.14.75v2.75h-.63Zm7-2,2.37,6.26,2.46-6.26h1v7.14h-.68V30.4h0l-2.44,6.17h-.64l-2.35-6.17h0v6.17h-.68V29.43Zm10.82,4.2a2.28,2.28,0,0,0-.13-.69,1.64,1.64,0,0,0-.32-.58,1.45,1.45,0,0,0-.51-.41A1.55,1.55,0,0,0,147,32a1.45,1.45,0,0,0-.51.41,2,2,0,0,0-.34.59,3.06,3.06,0,0,0-.16.68Zm-3.34.53a3.07,3.07,0,0,0,.09.71,2.17,2.17,0,0,0,.31.65,1.88,1.88,0,0,0,.53.48,1.74,1.74,0,0,0,1.85-.17,1.89,1.89,0,0,0,.54-1H150a2.5,2.5,0,0,1-.74,1.36,2.17,2.17,0,0,1-1.51.48,2.47,2.47,0,0,1-1.06-.21,2.2,2.2,0,0,1-.72-.59,2.7,2.7,0,0,1-.42-.87,4.08,4.08,0,0,1-.13-1,3.71,3.71,0,0,1,.13-1,2.51,2.51,0,0,1,.42-.87,2.05,2.05,0,0,1,.72-.62,2.21,2.21,0,0,1,1.06-.24,2.08,2.08,0,0,1,1.06.25,2,2,0,0,1,.71.66,2.45,2.45,0,0,1,.4.93,4.15,4.15,0,0,1,.1,1.06Zm5.82-2.75h1.05v.53h-1.05v3.48a1.14,1.14,0,0,0,.08.49c.06.11.2.17.43.19a4.89,4.89,0,0,0,.54,0v.53h-.56a1.25,1.25,0,0,1-.88-.24,1.23,1.23,0,0,1-.24-.91V31.94h-.9v-.53h.9V29.86h.63Zm2,0h.58v1.21h0a1.92,1.92,0,0,1,.74-1,1.94,1.94,0,0,1,1.21-.31V32a1.65,1.65,0,0,0-.78.12,1.54,1.54,0,0,0-.61.38,1.56,1.56,0,0,0-.39.6,1.79,1.79,0,0,0-.14.75v2.75h-.63Zm5.15.38a1.57,1.57,0,0,0-.79.19,1.81,1.81,0,0,0-.57.5,2.46,2.46,0,0,0-.34.71,3,3,0,0,0-.11.8,3.22,3.22,0,0,0,.11.81,2.68,2.68,0,0,0,.34.7,2.1,2.1,0,0,0,.57.5,1.68,1.68,0,0,0,.79.19,1.65,1.65,0,0,0,.79-.19,1.7,1.7,0,0,0,.56-.5,2,2,0,0,0,.34-.7,2.84,2.84,0,0,0,.12-.81,2.67,2.67,0,0,0-.12-.8,1.87,1.87,0,0,0-.34-.71,1.5,1.5,0,0,0-.56-.5A1.54,1.54,0,0,0,158.93,31.79Zm0-.53a2.28,2.28,0,0,1,1,.22,2.06,2.06,0,0,1,.77.59,2.28,2.28,0,0,1,.47.87,3.21,3.21,0,0,1,.16,1.05,3.4,3.4,0,0,1-.16,1.06,2.49,2.49,0,0,1-.47.86,2.29,2.29,0,0,1-.77.59,2.41,2.41,0,0,1-1,.21,2.52,2.52,0,0,1-1.05-.21,2.47,2.47,0,0,1-.76-.59,2.87,2.87,0,0,1-.47-.86,3.73,3.73,0,0,1-.16-1.06,3.5,3.5,0,0,1,.16-1.05,2.59,2.59,0,0,1,.47-.87,2.2,2.2,0,0,1,.76-.59A2.38,2.38,0,0,1,158.93,31.26Zm6.28-1.83h.68V36h4v.58h-4.68Zm5.26,0h.63v1h-.63Zm0,2h.63v5.16h-.63Zm1.83,0h.63v.89h0a1.42,1.42,0,0,1,.64-.75,1.8,1.8,0,0,1,1-.29,2.36,2.36,0,0,1,.9.14,1.32,1.32,0,0,1,.59.4,1.35,1.35,0,0,1,.31.62,3.46,3.46,0,0,1,.09.83v3.32h-.63V33.35a2.87,2.87,0,0,0-.06-.61,1.26,1.26,0,0,0-.21-.5,1,1,0,0,0-.41-.33,1.48,1.48,0,0,0-.63-.12,1.51,1.51,0,0,0-.68.14,1.39,1.39,0,0,0-.5.37,1.79,1.79,0,0,0-.32.56,2.5,2.5,0,0,0-.12.7v3h-.63Zm9.09,2.22a2.28,2.28,0,0,0-.13-.69,1.64,1.64,0,0,0-.32-.58,1.45,1.45,0,0,0-.51-.41,1.55,1.55,0,0,0-1.37,0,1.45,1.45,0,0,0-.51.41,2,2,0,0,0-.34.59,3.06,3.06,0,0,0-.16.68Zm-3.34.53a3.07,3.07,0,0,0,.09.71,2.17,2.17,0,0,0,.31.65A1.88,1.88,0,0,0,179,36a1.74,1.74,0,0,0,1.85-.17,1.89,1.89,0,0,0,.54-1H182a2.5,2.5,0,0,1-.74,1.36,2.17,2.17,0,0,1-1.51.48,2.47,2.47,0,0,1-1.06-.21,2.2,2.2,0,0,1-.72-.59,2.7,2.7,0,0,1-.42-.87,4.08,4.08,0,0,1-.13-1,3.71,3.71,0,0,1,.13-1,2.51,2.51,0,0,1,.42-.87,2.05,2.05,0,0,1,.72-.62,2.21,2.21,0,0,1,1.06-.24,2.08,2.08,0,0,1,1.06.25,2,2,0,0,1,.71.66,2.45,2.45,0,0,1,.4.93,4.15,4.15,0,0,1,.1,1.06Z"/><path class="cls-6" d="M113.86,45.59a2.08,2.08,0,0,0-.3-.73,1.76,1.76,0,0,0-.5-.55,1.9,1.9,0,0,0-.65-.33,2.25,2.25,0,0,0-.74-.12,2.58,2.58,0,0,0-1.22.27,2.44,2.44,0,0,0-.84.72,3.2,3.2,0,0,0-.48,1A4.37,4.37,0,0,0,109,47a4.54,4.54,0,0,0,.15,1.15,3.48,3.48,0,0,0,.48,1,2.53,2.53,0,0,0,.84.71,2.58,2.58,0,0,0,1.22.27,2.19,2.19,0,0,0,.9-.18,2.16,2.16,0,0,0,.69-.49,2.71,2.71,0,0,0,.47-.72,3,3,0,0,0,.23-.9h.68a4,4,0,0,1-.31,1.19,3.07,3.07,0,0,1-.62.9,2.77,2.77,0,0,1-.9.57,3.17,3.17,0,0,1-1.14.2,3.46,3.46,0,0,1-1.48-.3,3.17,3.17,0,0,1-1-.82,3.53,3.53,0,0,1-.63-1.18A4.72,4.72,0,0,1,108.3,47a4.62,4.62,0,0,1,.21-1.41,3.43,3.43,0,0,1,.63-1.18,2.93,2.93,0,0,1,1-.82,3.54,3.54,0,0,1,2.47-.16,2.72,2.72,0,0,1,.88.45,2.28,2.28,0,0,1,.66.72,2.38,2.38,0,0,1,.34,1Zm1.71-2.16h.63v1h-.63Zm0,2h.63v5.16h-.63Zm1.84,0H118v1.21h0a1.92,1.92,0,0,1,.74-1,1.94,1.94,0,0,1,1.21-.31V46a1.65,1.65,0,0,0-.78.12,1.54,1.54,0,0,0-.61.38,1.56,1.56,0,0,0-.39.6,1.79,1.79,0,0,0-.14.75v2.75h-.63ZM124,47a1.77,1.77,0,0,0-.48-.91,1.38,1.38,0,0,0-1-.33,1.54,1.54,0,0,0-.79.19,1.61,1.61,0,0,0-.57.5,2.23,2.23,0,0,0-.34.71,2.67,2.67,0,0,0-.11.8,2.82,2.82,0,0,0,.11.81,2.4,2.4,0,0,0,.34.7,1.84,1.84,0,0,0,.57.5,1.65,1.65,0,0,0,.79.19,1.5,1.5,0,0,0,.55-.11,2,2,0,0,0,.46-.3,2,2,0,0,0,.33-.47,1.91,1.91,0,0,0,.16-.59h.63a2.48,2.48,0,0,1-.69,1.47,2.09,2.09,0,0,1-1.44.52,2.46,2.46,0,0,1-1-.21,2.35,2.35,0,0,1-.76-.59,2.49,2.49,0,0,1-.47-.86,3.4,3.4,0,0,1-.16-1.06,3.21,3.21,0,0,1,.16-1.05,2.28,2.28,0,0,1,.47-.87,2.11,2.11,0,0,1,.76-.59,2.32,2.32,0,0,1,1-.22,2.19,2.19,0,0,1,1.4.44,1.9,1.9,0,0,1,.69,1.33Zm5.72,3.54h-.58v-.93h0a1.82,1.82,0,0,1-.73.8,2.05,2.05,0,0,1-1,.27,2.38,2.38,0,0,1-.84-.14,1.59,1.59,0,0,1-.56-.38,1.67,1.67,0,0,1-.31-.61,3.41,3.41,0,0,1-.1-.82V45.41h.63v3.36a1.76,1.76,0,0,0,.32,1.06,1.34,1.34,0,0,0,1.06.36,1.37,1.37,0,0,0,.7-.17,1.44,1.44,0,0,0,.48-.47,2.15,2.15,0,0,0,.28-.66,3.37,3.37,0,0,0,.09-.77V45.41h.63Zm1.2-7.14h.63v7.14H131ZM132.73,47a2,2,0,0,1,.19-.78,1.54,1.54,0,0,1,.43-.54,1.78,1.78,0,0,1,.65-.31,3,3,0,0,1,.82-.1,3.14,3.14,0,0,1,.68.07,1.56,1.56,0,0,1,.61.24,1.3,1.3,0,0,1,.44.51,1.81,1.81,0,0,1,.17.84v2.74a.33.33,0,0,0,.37.38.65.65,0,0,0,.2,0v.53l-.2,0h-.21a1.07,1.07,0,0,1-.39-.06.59.59,0,0,1-.22-.19.86.86,0,0,1-.11-.28c0-.12,0-.24,0-.37h0a5.37,5.37,0,0,1-.35.45,1.76,1.76,0,0,1-.39.32,2,2,0,0,1-.49.2,3,3,0,0,1-.65.07,2.48,2.48,0,0,1-.68-.09,1.64,1.64,0,0,1-.55-.26,1.54,1.54,0,0,1-.37-.47,1.62,1.62,0,0,1-.13-.68,1.31,1.31,0,0,1,.24-.84,1.42,1.42,0,0,1,.63-.47,3.41,3.41,0,0,1,.89-.22l1-.13.35,0a.82.82,0,0,0,.25-.1.51.51,0,0,0,.15-.21.83.83,0,0,0,.06-.34,1.09,1.09,0,0,0-.11-.52.78.78,0,0,0-.29-.33,1,1,0,0,0-.43-.16,2.14,2.14,0,0,0-.52-.05,1.52,1.52,0,0,0-1,.29,1.09,1.09,0,0,0-.4.91Zm3.36.76h0a.41.41,0,0,1-.23.16l-.3.07-.83.13a3.49,3.49,0,0,0-.77.16,1.48,1.48,0,0,0-.58.32.72.72,0,0,0-.22.58,1,1,0,0,0,.09.43,1.31,1.31,0,0,0,.26.32,1.46,1.46,0,0,0,.37.2,1.55,1.55,0,0,0,.43.07,2.26,2.26,0,0,0,.69-.11,1.76,1.76,0,0,0,.57-.32,1.39,1.39,0,0,0,.39-.51,1.51,1.51,0,0,0,.15-.68ZM138,45.41h.58v1.21h0a1.88,1.88,0,0,1,2-1.28V46a1.88,1.88,0,0,0-1.39.5,1.83,1.83,0,0,0-.39.6,2,2,0,0,0-.14.75v2.75H138Zm7-2,2.37,6.26,2.46-6.26h1v7.14h-.68V44.4h0l-2.44,6.17h-.64l-2.35-6.17h0v6.17H144V43.43Zm10.83,4.2a2.28,2.28,0,0,0-.13-.69,1.81,1.81,0,0,0-.32-.58,1.45,1.45,0,0,0-.51-.41,1.55,1.55,0,0,0-1.37,0,1.45,1.45,0,0,0-.51.41,1.79,1.79,0,0,0-.34.59,2.59,2.59,0,0,0-.16.68Zm-3.34.53a3.07,3.07,0,0,0,.09.71,2,2,0,0,0,.31.65,1.75,1.75,0,0,0,.53.48,1.74,1.74,0,0,0,1.85-.17,1.89,1.89,0,0,0,.54-1h.63a2.57,2.57,0,0,1-.74,1.36,2.19,2.19,0,0,1-1.51.48,2.47,2.47,0,0,1-1.06-.21,2,2,0,0,1-.72-.59A2.7,2.7,0,0,1,152,49a4.08,4.08,0,0,1-.13-1,3.71,3.71,0,0,1,.13-1,2.51,2.51,0,0,1,.42-.87,1.89,1.89,0,0,1,.72-.62,2.21,2.21,0,0,1,1.06-.24,2.1,2.1,0,0,1,1.06.25,2,2,0,0,1,.71.66,2.62,2.62,0,0,1,.4.93,4.15,4.15,0,0,1,.1,1.06Zm5.81-2.75h1.05v.53h-1.05v3.48a1.32,1.32,0,0,0,.08.49c.06.11.2.17.43.19a4.89,4.89,0,0,0,.54,0v.53h-.56a1.27,1.27,0,0,1-.88-.24,1.23,1.23,0,0,1-.24-.91V45.94h-.9v-.53h.9V43.86h.63Zm2,0h.58v1.21h0a2,2,0,0,1,.74-1,1.94,1.94,0,0,1,1.21-.31V46a1.65,1.65,0,0,0-.78.12,1.61,1.61,0,0,0-.61.38,1.56,1.56,0,0,0-.39.6,2,2,0,0,0-.14.75v2.75h-.63Zm5.16.38a1.54,1.54,0,0,0-.79.19,1.61,1.61,0,0,0-.57.5,2.23,2.23,0,0,0-.34.71,2.67,2.67,0,0,0-.11.8,2.82,2.82,0,0,0,.11.81,2.4,2.4,0,0,0,.34.7,1.84,1.84,0,0,0,.57.5,1.65,1.65,0,0,0,.79.19,1.68,1.68,0,0,0,.79-.19,1.92,1.92,0,0,0,.56-.5,2.4,2.4,0,0,0,.34-.7,2.84,2.84,0,0,0,.12-.81,2.67,2.67,0,0,0-.12-.8,2.23,2.23,0,0,0-.34-.71,1.67,1.67,0,0,0-.56-.5A1.57,1.57,0,0,0,165.43,45.79Zm0-.53a2.31,2.31,0,0,1,1,.22,2.23,2.23,0,0,1,.77.59,2.59,2.59,0,0,1,.47.87,3.5,3.5,0,0,1,.16,1.05,3.73,3.73,0,0,1-.16,1.06,2.87,2.87,0,0,1-.47.86,2.51,2.51,0,0,1-.77.59,2.71,2.71,0,0,1-2.09,0,2.35,2.35,0,0,1-.76-.59,2.49,2.49,0,0,1-.47-.86A3.4,3.4,0,0,1,163,48a3.21,3.21,0,0,1,.16-1.05,2.28,2.28,0,0,1,.47-.87,2.11,2.11,0,0,1,.76-.59A2.32,2.32,0,0,1,165.43,45.26Zm6.28-1.83h.68V50h4v.58h-4.68Zm5.26,0h.63v1H177Zm0,2h.63v5.16H177Zm1.82,0h.63v.89h0a1.47,1.47,0,0,1,.64-.75,1.83,1.83,0,0,1,1-.29,2.36,2.36,0,0,1,.9.14,1.27,1.27,0,0,1,.59.4,1.35,1.35,0,0,1,.31.62,3.46,3.46,0,0,1,.09.83v3.32h-.63V47.35a2.87,2.87,0,0,0-.06-.61,1.26,1.26,0,0,0-.21-.5,1,1,0,0,0-.41-.33,1.41,1.41,0,0,0-.63-.12,1.51,1.51,0,0,0-.68.14,1.39,1.39,0,0,0-.5.37,1.79,1.79,0,0,0-.32.56,2.5,2.5,0,0,0-.12.7v3h-.63Zm9.1,2.22a2.28,2.28,0,0,0-.13-.69,1.81,1.81,0,0,0-.32-.58,1.45,1.45,0,0,0-.51-.41,1.55,1.55,0,0,0-1.37,0,1.45,1.45,0,0,0-.51.41,1.79,1.79,0,0,0-.34.59,2.59,2.59,0,0,0-.16.68Zm-3.34.53a3.07,3.07,0,0,0,.09.71,2,2,0,0,0,.31.65,1.75,1.75,0,0,0,.53.48,1.74,1.74,0,0,0,1.85-.17,1.89,1.89,0,0,0,.54-1h.63a2.57,2.57,0,0,1-.74,1.36,2.19,2.19,0,0,1-1.51.48,2.47,2.47,0,0,1-1.06-.21,2,2,0,0,1-.72-.59,2.7,2.7,0,0,1-.42-.87,4.08,4.08,0,0,1-.13-1,3.71,3.71,0,0,1,.13-1,2.51,2.51,0,0,1,.42-.87,1.89,1.89,0,0,1,.72-.62,2.21,2.21,0,0,1,1.06-.24,2.1,2.1,0,0,1,1.06.25,2,2,0,0,1,.71.66,2.62,2.62,0,0,1,.4.93,4.15,4.15,0,0,1,.1,1.06Z"/><path class="cls-6" d="M109.32,62.93h2.34a1.76,1.76,0,0,0,1.15-.36,1.59,1.59,0,0,0,0-2.2,1.76,1.76,0,0,0-1.15-.36h-2.34Zm-.68-3.5h3.17a2.41,2.41,0,0,1,.87.14,1.69,1.69,0,0,1,.67.4,1.61,1.61,0,0,1,.43.64,2.31,2.31,0,0,1,.15.86,2.35,2.35,0,0,1-.15.86,1.8,1.8,0,0,1-.43.65,2.13,2.13,0,0,1-.67.4,2.94,2.94,0,0,1-.87.13h-2.49v3.06h-.68ZM117,61.79a1.57,1.57,0,0,0-.79.19,1.61,1.61,0,0,0-.57.5,2.23,2.23,0,0,0-.34.71,3,3,0,0,0-.11.8,3.22,3.22,0,0,0,.11.81,2.4,2.4,0,0,0,.34.7,1.84,1.84,0,0,0,.57.5,1.74,1.74,0,0,0,1.58,0,1.8,1.8,0,0,0,.56-.5,2.17,2.17,0,0,0,.34-.7,2.84,2.84,0,0,0,.12-.81,2.67,2.67,0,0,0-.12-.8,2,2,0,0,0-.34-.71,1.58,1.58,0,0,0-.56-.5A1.57,1.57,0,0,0,117,61.79Zm0-.53a2.31,2.31,0,0,1,1,.22,2.15,2.15,0,0,1,.77.59,2.43,2.43,0,0,1,.47.87,3.21,3.21,0,0,1,.16,1.05,3.4,3.4,0,0,1-.16,1.06,2.66,2.66,0,0,1-.47.86,2.4,2.4,0,0,1-.77.59,2.44,2.44,0,0,1-1,.21,2.52,2.52,0,0,1-1-.21,2.47,2.47,0,0,1-.76-.59,2.66,2.66,0,0,1-.47-.86,3.4,3.4,0,0,1-.16-1.06,3.21,3.21,0,0,1,.16-1.05,2.43,2.43,0,0,1,.47-.87,2.2,2.2,0,0,1,.76-.59A2.38,2.38,0,0,1,117,61.26Zm3.39-1.83H121v7.14h-.63Zm1.25,2h.67l1.7,4.4,1.59-4.4h.63L124,67.35a4.62,4.62,0,0,1-.26.54,1.19,1.19,0,0,1-.27.34.85.85,0,0,1-.34.18,1.63,1.63,0,0,1-.49.06l-.3,0a.57.57,0,0,1-.18,0v-.53l.21,0,.22,0a.8.8,0,0,0,.34-.06.61.61,0,0,0,.24-.17.74.74,0,0,0,.17-.25q.08-.15.15-.33l.22-.58Zm9.09-2,2.37,6.26,2.46-6.26h1v7.14h-.68V60.4h0l-2.44,6.17h-.64l-2.35-6.17h0v6.17h-.68V59.43Zm10.83,4.2a2.28,2.28,0,0,0-.13-.69,1.81,1.81,0,0,0-.32-.58,1.45,1.45,0,0,0-.51-.41,1.55,1.55,0,0,0-1.37,0,1.45,1.45,0,0,0-.51.41,1.79,1.79,0,0,0-.34.59,2.59,2.59,0,0,0-.16.68Zm-3.34.53a3.07,3.07,0,0,0,.09.71,2,2,0,0,0,.31.65,1.75,1.75,0,0,0,.53.48,1.74,1.74,0,0,0,1.85-.17,1.89,1.89,0,0,0,.54-1h.63a2.57,2.57,0,0,1-.74,1.36,2.19,2.19,0,0,1-1.51.48,2.47,2.47,0,0,1-1.06-.21,2,2,0,0,1-.72-.59,2.7,2.7,0,0,1-.42-.87,4.08,4.08,0,0,1-.13-1.05,3.71,3.71,0,0,1,.13-1,2.51,2.51,0,0,1,.42-.87,1.89,1.89,0,0,1,.72-.62,2.21,2.21,0,0,1,1.06-.24,2.1,2.1,0,0,1,1.06.25,2,2,0,0,1,.71.66,2.62,2.62,0,0,1,.4.93,4.15,4.15,0,0,1,.1,1.06ZM144,61.41h1.05v.53H144v3.48a1.32,1.32,0,0,0,.08.49c.06.11.21.17.43.19a4.89,4.89,0,0,0,.54,0v.53h-.56a1.27,1.27,0,0,1-.88-.24,1.32,1.32,0,0,1-.24-.91V61.94h-.9v-.53h.9V59.86H144Zm2,0h.58v1.21h0a1.88,1.88,0,0,1,1.95-1.28V62a1.88,1.88,0,0,0-1.39.5,1.83,1.83,0,0,0-.39.6,2,2,0,0,0-.14.75v2.75H146Zm5.16.38a1.57,1.57,0,0,0-.79.19,1.61,1.61,0,0,0-.57.5,2.23,2.23,0,0,0-.34.71,3,3,0,0,0-.11.8,3.22,3.22,0,0,0,.11.81,2.4,2.4,0,0,0,.34.7,1.84,1.84,0,0,0,.57.5,1.74,1.74,0,0,0,1.58,0,1.8,1.8,0,0,0,.56-.5,2.17,2.17,0,0,0,.34-.7A2.84,2.84,0,0,0,153,64a2.67,2.67,0,0,0-.12-.8,2,2,0,0,0-.34-.71,1.58,1.58,0,0,0-.56-.5A1.57,1.57,0,0,0,151.15,61.79Zm0-.53a2.31,2.31,0,0,1,1,.22,2.15,2.15,0,0,1,.77.59,2.43,2.43,0,0,1,.47.87,3.21,3.21,0,0,1,.16,1.05,3.4,3.4,0,0,1-.16,1.06,2.66,2.66,0,0,1-.47.86,2.4,2.4,0,0,1-.77.59,2.44,2.44,0,0,1-1,.21,2.52,2.52,0,0,1-1.05-.21,2.47,2.47,0,0,1-.76-.59,2.66,2.66,0,0,1-.47-.86,3.4,3.4,0,0,1-.16-1.06,3.21,3.21,0,0,1,.16-1.05,2.43,2.43,0,0,1,.47-.87,2.2,2.2,0,0,1,.76-.59A2.38,2.38,0,0,1,151.15,61.26Zm6.28-1.83h.68V66h4v.58h-4.68Zm5.26,0h.63v1h-.63Zm0,2h.63v5.16h-.63Zm1.83,0h.63v.89h0a1.42,1.42,0,0,1,.64-.75,1.78,1.78,0,0,1,1-.29,2.36,2.36,0,0,1,.9.14,1.38,1.38,0,0,1,.59.4,1.45,1.45,0,0,1,.31.62,3.46,3.46,0,0,1,.09.83v3.32h-.63V63.35a2.87,2.87,0,0,0-.06-.61,1.26,1.26,0,0,0-.21-.5,1,1,0,0,0-.41-.33,1.72,1.72,0,0,0-1.31,0,1.31,1.31,0,0,0-.5.37,1.61,1.61,0,0,0-.32.56,1.94,1.94,0,0,0-.12.7v3h-.63Zm9.09,2.22a2.28,2.28,0,0,0-.13-.69,1.64,1.64,0,0,0-.32-.58,1.45,1.45,0,0,0-.51-.41,1.55,1.55,0,0,0-1.37,0,1.45,1.45,0,0,0-.51.41,2,2,0,0,0-.34.59,3.06,3.06,0,0,0-.16.68Zm-3.34.53a3.07,3.07,0,0,0,.09.71,2.17,2.17,0,0,0,.31.65,1.88,1.88,0,0,0,.53.48,1.74,1.74,0,0,0,1.85-.17,1.89,1.89,0,0,0,.54-1h.63a2.5,2.5,0,0,1-.74,1.36,2.17,2.17,0,0,1-1.51.48,2.47,2.47,0,0,1-1.06-.21,2.2,2.2,0,0,1-.72-.59,2.7,2.7,0,0,1-.42-.87,4.08,4.08,0,0,1-.13-1.05,3.71,3.71,0,0,1,.13-1,2.51,2.51,0,0,1,.42-.87,2.05,2.05,0,0,1,.72-.62,2.21,2.21,0,0,1,1.06-.24,2.08,2.08,0,0,1,1.06.25,2,2,0,0,1,.71.66,2.45,2.45,0,0,1,.4.93,4.15,4.15,0,0,1,.1,1.06Z"/><path class="cls-6" d="M107.88,74.43h5.65V75H111v6.56h-.68V75h-2.48Zm6.19,0h.63V77.3h0a1.42,1.42,0,0,1,.64-.75,1.78,1.78,0,0,1,1-.29,2.36,2.36,0,0,1,.9.14,1.38,1.38,0,0,1,.59.4,1.45,1.45,0,0,1,.31.62,3.46,3.46,0,0,1,.09.83v3.32h-.63V78.35a2.87,2.87,0,0,0-.06-.61,1.26,1.26,0,0,0-.21-.5,1,1,0,0,0-.41-.33,1.72,1.72,0,0,0-1.31,0,1.31,1.31,0,0,0-.5.37,1.61,1.61,0,0,0-.32.56,1.94,1.94,0,0,0-.12.7v3h-.63Zm9.09,4.2a2.28,2.28,0,0,0-.13-.69,1.64,1.64,0,0,0-.32-.58,1.45,1.45,0,0,0-.51-.41,1.55,1.55,0,0,0-1.37,0,1.45,1.45,0,0,0-.51.41A2,2,0,0,0,120,78a3.06,3.06,0,0,0-.16.68Zm-3.34.53a3.07,3.07,0,0,0,.09.71,2.17,2.17,0,0,0,.31.65,1.88,1.88,0,0,0,.53.48,1.74,1.74,0,0,0,1.85-.17,1.89,1.89,0,0,0,.54-1h.63a2.5,2.5,0,0,1-.74,1.36,2.17,2.17,0,0,1-1.51.48,2.47,2.47,0,0,1-1.06-.21,2.2,2.2,0,0,1-.72-.59,2.7,2.7,0,0,1-.42-.87,4.08,4.08,0,0,1-.13-1.05,3.71,3.71,0,0,1,.13-1,2.51,2.51,0,0,1,.42-.87,2.05,2.05,0,0,1,.72-.62,2.21,2.21,0,0,1,1.06-.24,2.08,2.08,0,0,1,1.06.25,2,2,0,0,1,.71.66,2.45,2.45,0,0,1,.4.93,4.15,4.15,0,0,1,.1,1.06Zm7.61-4.73h.63v7.14h-.63Zm1.84,0h.63v1h-.63Zm0,2h.63v5.16h-.63Zm1.83,0h.63v.89h0a1.42,1.42,0,0,1,.64-.75,1.8,1.8,0,0,1,1-.29,2.36,2.36,0,0,1,.9.14,1.32,1.32,0,0,1,.59.4,1.35,1.35,0,0,1,.31.62,3.46,3.46,0,0,1,.09.83v3.32h-.63V78.35a2.87,2.87,0,0,0-.06-.61,1.26,1.26,0,0,0-.21-.5,1,1,0,0,0-.41-.33,1.48,1.48,0,0,0-.63-.12,1.51,1.51,0,0,0-.68.14,1.39,1.39,0,0,0-.5.37,1.79,1.79,0,0,0-.32.56,2.5,2.5,0,0,0-.12.7v3h-.63Zm9.09,2.22a2.28,2.28,0,0,0-.13-.69,1.64,1.64,0,0,0-.32-.58,1.45,1.45,0,0,0-.51-.41,1.55,1.55,0,0,0-1.37,0,1.45,1.45,0,0,0-.51.41A2,2,0,0,0,137,78a3.06,3.06,0,0,0-.16.68Zm-3.34.53a3.07,3.07,0,0,0,.09.71,2.17,2.17,0,0,0,.31.65,1.88,1.88,0,0,0,.53.48,1.74,1.74,0,0,0,1.85-.17,1.89,1.89,0,0,0,.54-1h.63a2.5,2.5,0,0,1-.74,1.36,2.17,2.17,0,0,1-1.51.48,2.47,2.47,0,0,1-1.06-.21,2.2,2.2,0,0,1-.72-.59,2.7,2.7,0,0,1-.42-.87,4.08,4.08,0,0,1-.13-1.05,3.71,3.71,0,0,1,.13-1,2.51,2.51,0,0,1,.42-.87,2.05,2.05,0,0,1,.72-.62,2.21,2.21,0,0,1,1.06-.24,2.08,2.08,0,0,1,1.06.25,2,2,0,0,1,.71.66,2.45,2.45,0,0,1,.4.93,4.15,4.15,0,0,1,.1,1.06Zm8.6-2.75h1.05v.53h-1.05v3.48a1.32,1.32,0,0,0,.08.49c.06.11.2.17.43.19a4.89,4.89,0,0,0,.54,0v.53h-.56a1.27,1.27,0,0,1-.88-.24,1.23,1.23,0,0,1-.24-.91V76.94h-.9v-.53h.9V74.86h.63Zm2-2H148V77.3h0a1.42,1.42,0,0,1,.64-.75,1.78,1.78,0,0,1,1-.29,2.36,2.36,0,0,1,.9.14,1.38,1.38,0,0,1,.59.4,1.45,1.45,0,0,1,.31.62,3.46,3.46,0,0,1,.09.83v3.32H151V78.35a2.87,2.87,0,0,0-.06-.61,1.26,1.26,0,0,0-.21-.5,1,1,0,0,0-.41-.33,1.72,1.72,0,0,0-1.31,0,1.31,1.31,0,0,0-.5.37,1.61,1.61,0,0,0-.32.56,1.94,1.94,0,0,0-.12.7v3h-.63Zm5.39,0h.63v1h-.63Zm0,2h.63v5.16h-.63ZM158.27,78a1.77,1.77,0,0,0-.48-.91,1.38,1.38,0,0,0-1-.33A1.54,1.54,0,0,0,156,77a1.61,1.61,0,0,0-.57.5,2.23,2.23,0,0,0-.34.71,2.67,2.67,0,0,0-.11.8,2.82,2.82,0,0,0,.11.81,2.4,2.4,0,0,0,.34.7,1.84,1.84,0,0,0,.57.5,1.65,1.65,0,0,0,.79.19,1.5,1.5,0,0,0,.55-.11,2,2,0,0,0,.46-.3,2,2,0,0,0,.33-.47,1.91,1.91,0,0,0,.16-.59h.63a2.48,2.48,0,0,1-.69,1.47,2.09,2.09,0,0,1-1.44.52,2.46,2.46,0,0,1-1.05-.21,2.35,2.35,0,0,1-.76-.59,2.49,2.49,0,0,1-.47-.86,3.4,3.4,0,0,1-.16-1.06,3.21,3.21,0,0,1,.16-1,2.28,2.28,0,0,1,.47-.87,2.11,2.11,0,0,1,.76-.59,2.32,2.32,0,0,1,1.05-.22,2.19,2.19,0,0,1,1.4.44A1.9,1.9,0,0,1,158.9,78Zm1.54-3.6h.63v4.48l2.86-2.5h.84l-2.2,1.91,2.35,3.25h-.79l-2-2.81-1,.85v2h-.63Zm5,2h.63v.89h0a1.42,1.42,0,0,1,.64-.75,1.8,1.8,0,0,1,1-.29,2.36,2.36,0,0,1,.9.14,1.32,1.32,0,0,1,.59.4,1.35,1.35,0,0,1,.31.62,3.46,3.46,0,0,1,.09.83v3.32h-.63V78.35a2.87,2.87,0,0,0-.06-.61,1.26,1.26,0,0,0-.21-.5,1,1,0,0,0-.41-.33,1.48,1.48,0,0,0-.63-.12,1.51,1.51,0,0,0-.68.14,1.39,1.39,0,0,0-.5.37,1.79,1.79,0,0,0-.32.56,2.5,2.5,0,0,0-.12.7v3h-.63Zm9.09,2.22a2.28,2.28,0,0,0-.13-.69,1.64,1.64,0,0,0-.32-.58,1.45,1.45,0,0,0-.51-.41,1.55,1.55,0,0,0-1.37,0,1.45,1.45,0,0,0-.51.41,2,2,0,0,0-.34.59,3.06,3.06,0,0,0-.16.68Zm-3.34.53a3.07,3.07,0,0,0,.09.71,2.17,2.17,0,0,0,.31.65,1.88,1.88,0,0,0,.53.48,1.74,1.74,0,0,0,1.85-.17,1.89,1.89,0,0,0,.54-1h.63a2.5,2.5,0,0,1-.74,1.36,2.17,2.17,0,0,1-1.51.48,2.47,2.47,0,0,1-1.06-.21,2.2,2.2,0,0,1-.72-.59,2.7,2.7,0,0,1-.42-.87,4.08,4.08,0,0,1-.13-1.05,3.71,3.71,0,0,1,.13-1,2.51,2.51,0,0,1,.42-.87,2.05,2.05,0,0,1,.72-.62,2.21,2.21,0,0,1,1.06-.24,2.08,2.08,0,0,1,1.06.25,2,2,0,0,1,.71.66,2.45,2.45,0,0,1,.4.93,4.15,4.15,0,0,1,.1,1.06Zm7.91-1.24a1.23,1.23,0,0,0-.12-.5,1.07,1.07,0,0,0-.3-.36,1,1,0,0,0-.42-.2,1.7,1.7,0,0,0-.51-.07,1.58,1.58,0,0,0-.43,0,.93.93,0,0,0-.39.15.69.69,0,0,0-.29.27.69.69,0,0,0-.11.42.61.61,0,0,0,.1.36,1.05,1.05,0,0,0,.27.24,2.28,2.28,0,0,0,.35.17l.35.1.84.19a1.76,1.76,0,0,1,.53.15,1.37,1.37,0,0,1,.47.27,1.28,1.28,0,0,1,.34.42,1.32,1.32,0,0,1,.13.59,1.38,1.38,0,0,1-.19.72,1.72,1.72,0,0,1-.49.48,2.39,2.39,0,0,1-.66.26,3.71,3.71,0,0,1-.73.08,2.43,2.43,0,0,1-1.48-.43,1.82,1.82,0,0,1-.64-1.38h.63a1.26,1.26,0,0,0,.46,1,1.73,1.73,0,0,0,1.06.32,2.59,2.59,0,0,0,.47,0,1.81,1.81,0,0,0,.46-.17,1.1,1.1,0,0,0,.34-.3.78.78,0,0,0,.14-.46.71.71,0,0,0-.1-.38.69.69,0,0,0-.25-.26,1.16,1.16,0,0,0-.37-.18,3.17,3.17,0,0,0-.41-.12l-.81-.18-.57-.18a2.22,2.22,0,0,1-.46-.26,1.2,1.2,0,0,1-.3-.38,1.22,1.22,0,0,1-.11-.56,1.19,1.19,0,0,1,.17-.67,1.32,1.32,0,0,1,.46-.45,1.8,1.8,0,0,1,.62-.25,2.71,2.71,0,0,1,.69-.08,2.37,2.37,0,0,1,.72.1,1.59,1.59,0,0,1,.59.31,1.5,1.5,0,0,1,.41.52,2,2,0,0,1,.17.73Zm4.81,0a1.23,1.23,0,0,0-.12-.5.88.88,0,0,0-.3-.36,1,1,0,0,0-.42-.2,1.7,1.7,0,0,0-.51-.07,1.63,1.63,0,0,0-.43,0,.93.93,0,0,0-.39.15.69.69,0,0,0-.29.27.77.77,0,0,0-.11.42.61.61,0,0,0,.1.36,1.05,1.05,0,0,0,.27.24,2.85,2.85,0,0,0,.35.17l.35.1.84.19a1.68,1.68,0,0,1,.53.15,1.48,1.48,0,0,1,.81.69,1.2,1.2,0,0,1,.13.59,1.29,1.29,0,0,1-.19.72,1.72,1.72,0,0,1-.49.48,2.17,2.17,0,0,1-.66.26,3.71,3.71,0,0,1-.73.08,2.43,2.43,0,0,1-1.48-.43,1.85,1.85,0,0,1-.64-1.38h.63a1.29,1.29,0,0,0,.46,1,1.75,1.75,0,0,0,1.06.32,2.59,2.59,0,0,0,.47,0A1.68,1.68,0,0,0,183,81a1.1,1.1,0,0,0,.34-.3.78.78,0,0,0,.14-.46.75.75,0,0,0-.35-.64,1.16,1.16,0,0,0-.37-.18,2.77,2.77,0,0,0-.41-.12l-.81-.18-.57-.18a2.51,2.51,0,0,1-.46-.26,1.2,1.2,0,0,1-.3-.38,1.36,1.36,0,0,1-.11-.56,1.28,1.28,0,0,1,.17-.67,1.32,1.32,0,0,1,.46-.45,1.88,1.88,0,0,1,.62-.25,2.71,2.71,0,0,1,.69-.08,2.37,2.37,0,0,1,.72.1,1.6,1.6,0,0,1,1,.83,1.78,1.78,0,0,1,.17.73Zm-74.75,9.49h.58v1.21h0a2,2,0,0,1,.74-1,1.94,1.94,0,0,1,1.21-.31V88a1.65,1.65,0,0,0-.78.12,1.61,1.61,0,0,0-.61.38,1.56,1.56,0,0,0-.39.6,2,2,0,0,0-.14.75v2.75h-.63Zm6.69,2.22a2.28,2.28,0,0,0-.13-.69,1.64,1.64,0,0,0-.32-.58,1.45,1.45,0,0,0-.51-.41,1.55,1.55,0,0,0-1.37,0,1.45,1.45,0,0,0-.51.41A2,2,0,0,0,112,89a3.06,3.06,0,0,0-.16.68Zm-3.34.53a3.07,3.07,0,0,0,.09.71,2.17,2.17,0,0,0,.31.65,1.88,1.88,0,0,0,.53.48,1.74,1.74,0,0,0,1.85-.17,1.89,1.89,0,0,0,.54-1h.63a2.5,2.5,0,0,1-.74,1.36,2.17,2.17,0,0,1-1.51.48,2.47,2.47,0,0,1-1.06-.21,2.2,2.2,0,0,1-.72-.59,2.7,2.7,0,0,1-.42-.87,4.08,4.08,0,0,1-.13-1.05,3.71,3.71,0,0,1,.13-1,2.51,2.51,0,0,1,.42-.87,2.05,2.05,0,0,1,.72-.62,2.21,2.21,0,0,1,1.06-.24,2.08,2.08,0,0,1,1.06.25,2,2,0,0,1,.71.66,2.45,2.45,0,0,1,.4.93,4.15,4.15,0,0,1,.1,1.06Zm4.82-2.75h.58v1h0a1.61,1.61,0,0,1,.71-.83,2.15,2.15,0,0,1,1.13-.3,2.19,2.19,0,0,1,1,.22,2,2,0,0,1,.73.6,2.53,2.53,0,0,1,.43.87,3.84,3.84,0,0,1,.14,1,4.09,4.09,0,0,1-.14,1.05,3,3,0,0,1-.43.87,2.1,2.1,0,0,1-1.75.8,2.6,2.6,0,0,1-.56-.07,2.18,2.18,0,0,1-.52-.21,1.83,1.83,0,0,1-.43-.35,1.49,1.49,0,0,1-.28-.49h0v2.88h-.63ZM120.82,90a3.49,3.49,0,0,0-.1-.79,2,2,0,0,0-.3-.71,1.55,1.55,0,0,0-.52-.5,1.38,1.38,0,0,0-.77-.2,1.87,1.87,0,0,0-.87.18,1.46,1.46,0,0,0-.56.48,1.93,1.93,0,0,0-.3.7,3.74,3.74,0,0,0-.08.84,3.7,3.7,0,0,0,.09.8,2.11,2.11,0,0,0,.31.7,1.84,1.84,0,0,0,.56.51,1.81,1.81,0,0,0,.85.19,1.57,1.57,0,0,0,.77-.19,1.94,1.94,0,0,0,.52-.51,2.09,2.09,0,0,0,.3-.7A3.73,3.73,0,0,0,120.82,90Zm1.61-2.58H123v1.21h0a1.92,1.92,0,0,1,.74-1,1.94,1.94,0,0,1,1.21-.31V88a1.65,1.65,0,0,0-.78.12,1.54,1.54,0,0,0-.61.38,1.56,1.56,0,0,0-.39.6,1.79,1.79,0,0,0-.14.75v2.75h-.63Zm6.69,2.22a2.28,2.28,0,0,0-.13-.69,1.81,1.81,0,0,0-.32-.58,1.45,1.45,0,0,0-.51-.41,1.55,1.55,0,0,0-1.37,0,1.45,1.45,0,0,0-.51.41,1.79,1.79,0,0,0-.34.59,2.59,2.59,0,0,0-.16.68Zm-3.34.53a3.07,3.07,0,0,0,.09.71,2,2,0,0,0,.31.65,1.75,1.75,0,0,0,.53.48,1.74,1.74,0,0,0,1.85-.17,1.89,1.89,0,0,0,.54-1h.63a2.57,2.57,0,0,1-.74,1.36,2.19,2.19,0,0,1-1.51.48,2.47,2.47,0,0,1-1.06-.21,2,2,0,0,1-.72-.59,2.7,2.7,0,0,1-.42-.87,4.08,4.08,0,0,1-.13-1.05,3.71,3.71,0,0,1,.13-1,2.51,2.51,0,0,1,.42-.87,1.89,1.89,0,0,1,.72-.62,2.21,2.21,0,0,1,1.06-.24,2.1,2.1,0,0,1,1.06.25,2,2,0,0,1,.71.66,2.62,2.62,0,0,1,.4.93,4.15,4.15,0,0,1,.1,1.06Zm7.9-1.24a1,1,0,0,0-.12-.5.88.88,0,0,0-.3-.36,1,1,0,0,0-.42-.2,1.7,1.7,0,0,0-.51-.07,1.63,1.63,0,0,0-.43,0,.93.93,0,0,0-.39.15.75.75,0,0,0-.29.27.77.77,0,0,0-.11.42.69.69,0,0,0,.1.36,1.55,1.55,0,0,0,.27.24l.35.17.35.1.84.19a1.68,1.68,0,0,1,.53.15,1.29,1.29,0,0,1,.47.27,1.17,1.17,0,0,1,.34.42,1.2,1.2,0,0,1,.13.59,1.29,1.29,0,0,1-.19.72,1.6,1.6,0,0,1-.49.48,2.17,2.17,0,0,1-.66.26,3.63,3.63,0,0,1-.73.08,2.45,2.45,0,0,1-1.48-.43,1.88,1.88,0,0,1-.64-1.38h.63a1.29,1.29,0,0,0,.46,1,1.75,1.75,0,0,0,1.06.32,2.5,2.5,0,0,0,.47,0,1.68,1.68,0,0,0,.46-.17,1,1,0,0,0,.34-.3.72.72,0,0,0,.14-.46.75.75,0,0,0-.35-.64,1.06,1.06,0,0,0-.37-.18,2.77,2.77,0,0,0-.41-.12l-.81-.18-.57-.18a2.9,2.9,0,0,1-.46-.26,1.57,1.57,0,0,1-.3-.38,1.36,1.36,0,0,1-.11-.56,1.28,1.28,0,0,1,.17-.67,1.41,1.41,0,0,1,.46-.45,2,2,0,0,1,.62-.25,2.82,2.82,0,0,1,.69-.08,2.37,2.37,0,0,1,.72.1,1.45,1.45,0,0,1,.59.31,1.4,1.4,0,0,1,.41.52,1.78,1.78,0,0,1,.17.73Zm5.44.71a2.28,2.28,0,0,0-.13-.69,1.81,1.81,0,0,0-.32-.58,1.45,1.45,0,0,0-.51-.41,1.55,1.55,0,0,0-1.37,0,1.45,1.45,0,0,0-.51.41,1.79,1.79,0,0,0-.34.59,2.59,2.59,0,0,0-.16.68Zm-3.34.53a3.07,3.07,0,0,0,.09.71,2,2,0,0,0,.31.65,1.75,1.75,0,0,0,.53.48,1.74,1.74,0,0,0,1.85-.17,1.89,1.89,0,0,0,.54-1h.63a2.57,2.57,0,0,1-.74,1.36,2.19,2.19,0,0,1-1.51.48,2.47,2.47,0,0,1-1.06-.21,2,2,0,0,1-.72-.59,2.7,2.7,0,0,1-.42-.87,4.08,4.08,0,0,1-.13-1.05,3.71,3.71,0,0,1,.13-1,2.51,2.51,0,0,1,.42-.87,1.89,1.89,0,0,1,.72-.62,2.21,2.21,0,0,1,1.06-.24,2.1,2.1,0,0,1,1.06.25,2,2,0,0,1,.71.66,2.62,2.62,0,0,1,.4.93,4.15,4.15,0,0,1,.1,1.06Zm4.8-2.75h.63v.89h0a1.47,1.47,0,0,1,.64-.75,1.83,1.83,0,0,1,1-.29,2.36,2.36,0,0,1,.9.14,1.27,1.27,0,0,1,.59.4,1.35,1.35,0,0,1,.31.62,3.46,3.46,0,0,1,.09.83v3.32h-.63V89.35a2.87,2.87,0,0,0-.06-.61,1.26,1.26,0,0,0-.21-.5,1,1,0,0,0-.41-.33,1.41,1.41,0,0,0-.63-.12,1.51,1.51,0,0,0-.68.14,1.39,1.39,0,0,0-.5.37,1.79,1.79,0,0,0-.32.56,2.5,2.5,0,0,0-.12.7v3h-.63Zm6.38,0h1v.53h-1v3.48a1.32,1.32,0,0,0,.08.49c.06.11.21.17.43.19a4.89,4.89,0,0,0,.54,0v.53h-.56a1.27,1.27,0,0,1-.88-.24,1.32,1.32,0,0,1-.24-.91V87.94h-.9v-.53h.9V85.86H147Zm5,1.51a1,1,0,0,0-.12-.5.88.88,0,0,0-.3-.36,1,1,0,0,0-.42-.2,1.7,1.7,0,0,0-.51-.07,1.63,1.63,0,0,0-.43,0,.93.93,0,0,0-.39.15.75.75,0,0,0-.29.27.77.77,0,0,0-.11.42.69.69,0,0,0,.1.36,1.55,1.55,0,0,0,.27.24l.35.17.35.1.84.19a1.68,1.68,0,0,1,.53.15,1.29,1.29,0,0,1,.47.27,1.17,1.17,0,0,1,.34.42,1.2,1.2,0,0,1,.13.59,1.29,1.29,0,0,1-.19.72,1.6,1.6,0,0,1-.49.48,2.17,2.17,0,0,1-.66.26,3.63,3.63,0,0,1-.73.08,2.45,2.45,0,0,1-1.48-.43,1.88,1.88,0,0,1-.64-1.38h.63a1.29,1.29,0,0,0,.46,1,1.75,1.75,0,0,0,1.06.32,2.5,2.5,0,0,0,.47,0,1.68,1.68,0,0,0,.46-.17,1,1,0,0,0,.34-.3.72.72,0,0,0,.14-.46.75.75,0,0,0-.35-.64,1.06,1.06,0,0,0-.37-.18,2.77,2.77,0,0,0-.41-.12l-.81-.18-.57-.18a2.9,2.9,0,0,1-.46-.26,1.57,1.57,0,0,1-.3-.38,1.36,1.36,0,0,1-.11-.56A1.28,1.28,0,0,1,149,88a1.41,1.41,0,0,1,.46-.45,2,2,0,0,1,.62-.25,2.82,2.82,0,0,1,.69-.08,2.37,2.37,0,0,1,.72.1,1.45,1.45,0,0,1,.59.31,1.4,1.4,0,0,1,.41.52,1.78,1.78,0,0,1,.17.73Zm-42.49,9.49h1v.53h-1v3.48a1.32,1.32,0,0,0,.08.49c.06.11.2.17.43.19a4.89,4.89,0,0,0,.54,0v.53H110a1.27,1.27,0,0,1-.88-.24,1.23,1.23,0,0,1-.24-.91V98.94H108v-.53h.9V96.86h.63Zm2-2h.63V99.3h0a1.42,1.42,0,0,1,.64-.75,1.89,1.89,0,0,1,1-.29,2.36,2.36,0,0,1,.9.14,1.32,1.32,0,0,1,.59.4,1.4,1.4,0,0,1,.31.62,3.52,3.52,0,0,1,.09.83v3.32H115v-3.22a2.93,2.93,0,0,0-.06-.61,1.26,1.26,0,0,0-.21-.5,1,1,0,0,0-.41-.33,1.48,1.48,0,0,0-.63-.12,1.51,1.51,0,0,0-.68.14,1.39,1.39,0,0,0-.5.37,1.79,1.79,0,0,0-.32.56,2.5,2.5,0,0,0-.12.7v3h-.63Zm9.09,4.2a2.28,2.28,0,0,0-.13-.69,1.73,1.73,0,0,0-.32-.58,1.45,1.45,0,0,0-.51-.41,1.55,1.55,0,0,0-1.37,0,1.45,1.45,0,0,0-.51.41,2.12,2.12,0,0,0-.34.59,3.2,3.2,0,0,0-.16.68Zm-3.34.53a3,3,0,0,0,.09.71,2.06,2.06,0,0,0,.31.65,1.88,1.88,0,0,0,.53.48,1.74,1.74,0,0,0,1.85-.17,1.89,1.89,0,0,0,.54-1h.63a2.47,2.47,0,0,1-.74,1.36,2.17,2.17,0,0,1-1.51.48,2.47,2.47,0,0,1-1.06-.21,2.2,2.2,0,0,1-.72-.59,2.7,2.7,0,0,1-.42-.87,4,4,0,0,1-.13-1.05,3.76,3.76,0,0,1,.13-1,2.51,2.51,0,0,1,.42-.87,2.05,2.05,0,0,1,.72-.62,2.21,2.21,0,0,1,1.06-.24,2.08,2.08,0,0,1,1.06.25,2.14,2.14,0,0,1,.71.66,2.52,2.52,0,0,1,.4.93,4.15,4.15,0,0,1,.1,1.06Zm7.61-4.73h.63v7.14h-.63Zm1.85,0h.63v1h-.63Zm0,2h.63v5.16h-.63Zm1.82,0h.63v.89h0a1.47,1.47,0,0,1,.64-.75,1.91,1.91,0,0,1,1-.29,2.36,2.36,0,0,1,.9.14,1.27,1.27,0,0,1,.59.4,1.4,1.4,0,0,1,.31.62,3.52,3.52,0,0,1,.09.83v3.32h-.63v-3.22a2.93,2.93,0,0,0-.06-.61,1.26,1.26,0,0,0-.21-.5,1,1,0,0,0-.41-.33,1.41,1.41,0,0,0-.63-.12,1.51,1.51,0,0,0-.68.14,1.39,1.39,0,0,0-.5.37,1.79,1.79,0,0,0-.32.56,2.5,2.5,0,0,0-.12.7v3h-.63Zm9.09,2.22a2,2,0,0,0-.13-.69,1.73,1.73,0,0,0-.32-.58,1.45,1.45,0,0,0-.51-.41,1.37,1.37,0,0,0-.68-.16,1.41,1.41,0,0,0-.69.16,1.45,1.45,0,0,0-.51.41,2.12,2.12,0,0,0-.34.59,3.2,3.2,0,0,0-.16.68Zm-3.34.53a3,3,0,0,0,.09.71,2.06,2.06,0,0,0,.31.65,1.88,1.88,0,0,0,.53.48,1.57,1.57,0,0,0,.77.19,1.53,1.53,0,0,0,1.08-.36,1.89,1.89,0,0,0,.54-1h.63a2.47,2.47,0,0,1-.74,1.36,2.16,2.16,0,0,1-1.51.48,2.51,2.51,0,0,1-1.06-.21,2.2,2.2,0,0,1-.72-.59,3.19,3.19,0,0,1-.42-.87,4.44,4.44,0,0,1-.13-1.05,4.22,4.22,0,0,1,.13-1,2.93,2.93,0,0,1,.42-.87,2.05,2.05,0,0,1,.72-.62,2.24,2.24,0,0,1,1.06-.24,2,2,0,0,1,1.77.91,2.52,2.52,0,0,1,.4.93,3.74,3.74,0,0,1,.1,1.06ZM145.49,100a1.77,1.77,0,0,0-.48-.91,1.37,1.37,0,0,0-1-.33,1.57,1.57,0,0,0-.79.19,1.72,1.72,0,0,0-.57.5,2.23,2.23,0,0,0-.34.71,3.09,3.09,0,0,0-.11.8,3.22,3.22,0,0,0,.11.81,2.4,2.4,0,0,0,.34.7,1.72,1.72,0,0,0,.57.5,1.68,1.68,0,0,0,.79.19,1.46,1.46,0,0,0,.55-.11,1.83,1.83,0,0,0,.46-.3,1.8,1.8,0,0,0,.33-.47,1.67,1.67,0,0,0,.16-.59h.63a2.45,2.45,0,0,1-.69,1.47,2,2,0,0,1-1.44.52,2.52,2.52,0,0,1-1.05-.21,2.47,2.47,0,0,1-.76-.59,2.66,2.66,0,0,1-.47-.86,3.36,3.36,0,0,1-.16-1.06,3.21,3.21,0,0,1,.16-1,2.61,2.61,0,0,1,.47-.87,2.2,2.2,0,0,1,.76-.59,2.38,2.38,0,0,1,1.05-.22,2.19,2.19,0,0,1,1.4.44,1.83,1.83,0,0,1,.69,1.33Zm3.73-1.24a1.54,1.54,0,0,0-.79.19,1.72,1.72,0,0,0-.57.5,2.23,2.23,0,0,0-.34.71,2.71,2.71,0,0,0-.11.8,2.82,2.82,0,0,0,.11.81,2.4,2.4,0,0,0,.34.7,1.72,1.72,0,0,0,.57.5,1.65,1.65,0,0,0,.79.19A1.68,1.68,0,0,0,150,103a1.79,1.79,0,0,0,.56-.5,2.4,2.4,0,0,0,.34-.7A2.84,2.84,0,0,0,151,101a2.72,2.72,0,0,0-.12-.8,2.23,2.23,0,0,0-.34-.71A1.79,1.79,0,0,0,150,99,1.57,1.57,0,0,0,149.22,98.79Zm0-.53a2.31,2.31,0,0,1,1,.22,2.23,2.23,0,0,1,.77.59,2.8,2.8,0,0,1,.47.87,3.5,3.5,0,0,1,.16,1,3.67,3.67,0,0,1-.16,1.06,2.87,2.87,0,0,1-.47.86,2.51,2.51,0,0,1-.77.59,2.71,2.71,0,0,1-2.09,0,2.35,2.35,0,0,1-.76-.59,2.49,2.49,0,0,1-.47-.86,3.36,3.36,0,0,1-.16-1.06,3.21,3.21,0,0,1,.16-1,2.44,2.44,0,0,1,.47-.87,2.11,2.11,0,0,1,.76-.59A2.32,2.32,0,0,1,149.22,98.26Zm2.79.15h.7l1.62,4.53h0l1.6-4.53h.65l-1.93,5.16H154Zm8.92,2.22a2,2,0,0,0-.13-.69,1.73,1.73,0,0,0-.32-.58A1.45,1.45,0,0,0,160,99a1.37,1.37,0,0,0-.68-.16,1.41,1.41,0,0,0-.69.16,1.45,1.45,0,0,0-.51.41,2.12,2.12,0,0,0-.34.59,3.2,3.2,0,0,0-.16.68Zm-3.34.53a3,3,0,0,0,.09.71,2.06,2.06,0,0,0,.31.65,1.88,1.88,0,0,0,.53.48,1.57,1.57,0,0,0,.77.19,1.53,1.53,0,0,0,1.08-.36,1.89,1.89,0,0,0,.54-1h.63a2.47,2.47,0,0,1-.74,1.36,2.16,2.16,0,0,1-1.51.48,2.51,2.51,0,0,1-1.06-.21,2.2,2.2,0,0,1-.72-.59,3.19,3.19,0,0,1-.42-.87A4.44,4.44,0,0,1,157,101a4.22,4.22,0,0,1,.13-1,2.93,2.93,0,0,1,.42-.87,2.05,2.05,0,0,1,.72-.62,2.24,2.24,0,0,1,1.06-.24,2,2,0,0,1,1.77.91,2.52,2.52,0,0,1,.4.93,3.74,3.74,0,0,1,.1,1.06Zm4.82-2.75H163v1.21h0a1.92,1.92,0,0,1,.74-1,1.94,1.94,0,0,1,1.21-.31V99a1.94,1.94,0,0,0-.78.12,1.66,1.66,0,0,0-.61.38,1.64,1.64,0,0,0-.39.6,1.79,1.79,0,0,0-.14.75v2.75h-.63ZM165.5,100a2.23,2.23,0,0,1,.19-.78,1.54,1.54,0,0,1,.43-.54,2.06,2.06,0,0,1,.65-.31,3,3,0,0,1,.82-.1,3.08,3.08,0,0,1,.68.07,1.56,1.56,0,0,1,.61.24,1.3,1.3,0,0,1,.44.51,1.7,1.7,0,0,1,.17.84v2.74a.34.34,0,0,0,.37.38.42.42,0,0,0,.2,0v.53l-.2,0h-.21a1.07,1.07,0,0,1-.39-.06.67.67,0,0,1-.22-.19.78.78,0,0,1-.11-.28c0-.11,0-.24,0-.37h0a5.37,5.37,0,0,1-.35.45,1.52,1.52,0,0,1-.39.32,1.68,1.68,0,0,1-.49.2,2.93,2.93,0,0,1-.65.07,2.54,2.54,0,0,1-.68-.09,1.55,1.55,0,0,1-.55-.26,1.57,1.57,0,0,1-.37-.47,1.79,1.79,0,0,1-.13-.68,1.31,1.31,0,0,1,.24-.84,1.42,1.42,0,0,1,.63-.47,3.52,3.52,0,0,1,.89-.22l1-.13a2.66,2.66,0,0,0,.35,0,.72.72,0,0,0,.25-.1.41.41,0,0,0,.15-.21.83.83,0,0,0,.06-.34,1,1,0,0,0-.11-.52.72.72,0,0,0-.29-.33,1,1,0,0,0-.43-.16,2.14,2.14,0,0,0-.52,0,1.61,1.61,0,0,0-1,.29,1.12,1.12,0,0,0-.4.91Zm3.36.76h0a.38.38,0,0,1-.23.16,2.11,2.11,0,0,1-.3.07l-.83.13a3.62,3.62,0,0,0-.77.16,1.55,1.55,0,0,0-.58.32.77.77,0,0,0-.22.58,1,1,0,0,0,.09.43,1.35,1.35,0,0,0,.26.32,1.46,1.46,0,0,0,.37.2,1.29,1.29,0,0,0,.43.07,2.26,2.26,0,0,0,.69-.11,1.76,1.76,0,0,0,.57-.32,1.39,1.39,0,0,0,.39-.51,1.51,1.51,0,0,0,.15-.68Zm6.25,2.4a4.09,4.09,0,0,1-.13,1,2,2,0,0,1-.39.78,1.84,1.84,0,0,1-.71.49,3,3,0,0,1-1.06.17,3.16,3.16,0,0,1-.76-.09,2.37,2.37,0,0,1-.67-.28,1.64,1.64,0,0,1-.49-.49,1.41,1.41,0,0,1-.22-.7h.63a1,1,0,0,0,.19.48,1.19,1.19,0,0,0,.35.32,1.41,1.41,0,0,0,.46.17,2.1,2.1,0,0,0,.51.06,1.53,1.53,0,0,0,1.27-.5,2.31,2.31,0,0,0,.39-1.44v-.7h0a1.88,1.88,0,0,1-.65.77,1.72,1.72,0,0,1-1,.29,2.57,2.57,0,0,1-1.06-.2,2,2,0,0,1-.73-.57,2.2,2.2,0,0,1-.41-.84,4,4,0,0,1-.13-1,3.22,3.22,0,0,1,.15-1,2.29,2.29,0,0,1,.45-.83,2,2,0,0,1,.73-.56,2.26,2.26,0,0,1,1-.21,1.91,1.91,0,0,1,.54.08,1.58,1.58,0,0,1,.47.23,1.65,1.65,0,0,1,.37.33,1.61,1.61,0,0,1,.26.4h0v-.89h.63Zm-2.29-.17a1.53,1.53,0,0,0,.72-.17,1.76,1.76,0,0,0,.52-.46,2.22,2.22,0,0,0,.31-.66,2.79,2.79,0,0,0,.11-.76,3.29,3.29,0,0,0-.09-.76,2.24,2.24,0,0,0-.29-.69,1.65,1.65,0,0,0-.52-.5,1.41,1.41,0,0,0-.76-.19,1.44,1.44,0,0,0-.77.19,1.53,1.53,0,0,0-.53.48,2,2,0,0,0-.31.69,3.33,3.33,0,0,0-.09.78,2.78,2.78,0,0,0,.1.76,2,2,0,0,0,.31.66,1.58,1.58,0,0,0,.53.46A1.61,1.61,0,0,0,172.82,103Zm7.19-2.35a2,2,0,0,0-.13-.69,1.73,1.73,0,0,0-.32-.58,1.45,1.45,0,0,0-.51-.41,1.37,1.37,0,0,0-.68-.16,1.41,1.41,0,0,0-.69.16,1.45,1.45,0,0,0-.51.41,2.12,2.12,0,0,0-.34.59,3.2,3.2,0,0,0-.16.68Zm-3.34.53a3,3,0,0,0,.09.71,2.06,2.06,0,0,0,.31.65,1.88,1.88,0,0,0,.53.48,1.57,1.57,0,0,0,.77.19,1.53,1.53,0,0,0,1.08-.36,1.89,1.89,0,0,0,.54-1h.63a2.47,2.47,0,0,1-.74,1.36,2.16,2.16,0,0,1-1.51.48,2.51,2.51,0,0,1-1.06-.21,2.2,2.2,0,0,1-.72-.59,3.19,3.19,0,0,1-.42-.87A4.44,4.44,0,0,1,176,101a4.22,4.22,0,0,1,.13-1,2.93,2.93,0,0,1,.42-.87,2.05,2.05,0,0,1,.72-.62,2.24,2.24,0,0,1,1.06-.24,2,2,0,0,1,1.77.91,2.52,2.52,0,0,1,.4.93,3.74,3.74,0,0,1,.1,1.06Z"/><path class="cls-6" d="M70.92,84.57h-57v-57h57ZM14.49,84H70.36V28.13H14.49Z"/><path class="cls-7" d="M44.92,32.57h60"/><path class="cls-7" d="M52.92,47.57h52"/><path class="cls-7" d="M38.92,61.57h66"/><path class="cls-7" d="M74.92,76.57h30"/><path class="cls-8" d="M72,80.57h2.92v-8h-3"/></g></g></svg>